G04*
G04 #@! TF.GenerationSoftware,Altium Limited,Altium Designer,22.11.1 (43)*
G04*
G04 Layer_Color=32896*
%FSLAX44Y44*%
%MOMM*%
G71*
G04*
G04 #@! TF.SameCoordinates,6BFD124F-6662-46D6-B746-139303AAAD4B*
G04*
G04*
G04 #@! TF.FilePolarity,Positive*
G04*
G01*
G75*
%ADD12C,0.1600*%
%ADD57C,0.1000*%
D12*
X869189Y994534D02*
Y988440D01*
X869570Y987298D01*
X869951Y986917D01*
X870713Y986536D01*
X871475D01*
X872236Y986917D01*
X872617Y987298D01*
X872998Y988440D01*
Y989202D01*
X866371Y994534D02*
X862181D01*
X864466Y991487D01*
X863324D01*
X862562Y991106D01*
X862181Y990726D01*
X861800Y989583D01*
Y988821D01*
X862181Y987679D01*
X862943Y986917D01*
X864086Y986536D01*
X865228D01*
X866371Y986917D01*
X866752Y987298D01*
X867133Y988059D01*
X669799Y978278D02*
Y972184D01*
X670180Y971042D01*
X670561Y970661D01*
X671323Y970280D01*
X672085D01*
X672846Y970661D01*
X673227Y971042D01*
X673608Y972184D01*
Y972946D01*
X667743Y976755D02*
X666981Y977136D01*
X665838Y978278D01*
Y970280D01*
D57*
X870730Y542000D02*
X930730D01*
X870730D02*
Y969300D01*
X930730D01*
Y542000D02*
Y969300D01*
X690730Y542000D02*
X750730D01*
X690730D02*
Y969300D01*
X750730D01*
Y542000D02*
Y969300D01*
M02*
