G04*
G04 #@! TF.GenerationSoftware,Altium Limited,Altium Designer,22.11.1 (43)*
G04*
G04 Layer_Color=0*
%FSLAX44Y44*%
%MOMM*%
G71*
G04*
G04 #@! TF.SameCoordinates,93F20DB6-68A8-4E48-8693-521813210F72*
G04*
G04*
G04 #@! TF.FilePolarity,Positive*
G04*
G01*
G75*
%ADD43C,0.0254*%
G36*
X830035Y933713D02*
X832906Y933142D01*
X835708Y932292D01*
X838413Y931172D01*
X840995Y929791D01*
X843429Y928165D01*
X845693Y926307D01*
X846728Y925272D01*
X846728Y925272D01*
X848560Y923439D01*
X850330Y921671D01*
X853109Y917511D01*
X855024Y912888D01*
X856000Y907981D01*
X856000Y905479D01*
X856000Y905479D01*
X856000Y582521D01*
X856000Y580019D01*
X855024Y575112D01*
X853109Y570490D01*
X850330Y566329D01*
X848560Y564561D01*
X847603Y563430D01*
X845476Y561368D01*
X843158Y559525D01*
X840669Y557917D01*
X838035Y556562D01*
X835281Y555471D01*
X832433Y554655D01*
X829519Y554122D01*
X828043Y554000D01*
X828043Y554000D01*
X825657D01*
X824274Y554000D01*
X821523Y554271D01*
X818811Y554810D01*
X816164Y555613D01*
X813610Y556671D01*
X811171Y557975D01*
X808872Y559511D01*
X806735Y561265D01*
X805757Y562243D01*
Y562243D01*
X803071Y564929D01*
X801390Y566610D01*
X798748Y570564D01*
X796928Y574958D01*
X796000Y579622D01*
Y582000D01*
Y905479D01*
Y907981D01*
X796976Y912888D01*
X798891Y917510D01*
X801671Y921670D01*
X803439Y923439D01*
X803439Y923439D01*
X805758Y925758D01*
X806735Y926735D01*
X808873Y928489D01*
X811172Y930025D01*
X813610Y931329D01*
X816165Y932387D01*
X818811Y933190D01*
X821523Y933729D01*
X824275Y934000D01*
X825657Y934000D01*
X825657Y934000D01*
X827121Y934000D01*
X830035Y933713D01*
D02*
G37*
D43*
X656000Y334000D02*
X656000Y521300D01*
D02*
G02*
X664980Y542980I30661J-0D01*
G01*
X667020Y545020D01*
D02*
G03*
X676000Y566700I-21680J21680D01*
G01*
X676000Y902000D01*
D02*
G03*
X667020Y923680I-30660J0D01*
G01*
X664980Y925720D01*
D02*
G02*
X656000Y947400I21680J21680D01*
G01*
Y1094000D01*
D02*
G02*
X684000Y1122000I28000J0D01*
G01*
X984000Y1122000D01*
D02*
G02*
X1012000Y1094000I0J-28000D01*
G01*
Y967400D01*
D02*
G02*
X1003020Y945720I-30660J-0D01*
G01*
X980980Y923680D01*
D02*
G03*
X972000Y902000I21680J-21680D01*
G01*
Y586700D01*
D02*
G03*
X980980Y565020I30661J0D01*
G01*
X1003020Y542980D01*
D02*
G02*
X1012000Y521300I-21680J-21680D01*
G01*
Y334000D01*
D02*
G02*
X984000Y306000I-28000J0D01*
G01*
X684000Y306000D01*
D02*
G02*
X656000Y334000I0J28000D01*
G01*
M02*
