G04*
G04 #@! TF.GenerationSoftware,Altium Limited,Altium Designer,22.11.1 (43)*
G04*
G04 Layer_Physical_Order=4*
G04 Layer_Color=16711680*
%FSLAX44Y44*%
%MOMM*%
G71*
G04*
G04 #@! TF.SameCoordinates,6BFD124F-6662-46D6-B746-139303AAAD4B*
G04*
G04*
G04 #@! TF.FilePolarity,Positive*
G04*
G01*
G75*
%ADD18C,2.0500*%
%ADD30C,1.3400*%
%ADD31C,1.2000*%
%ADD32C,1.5000*%
G04:AMPARAMS|DCode=33|XSize=1.5mm|YSize=1.5mm|CornerRadius=0.375mm|HoleSize=0mm|Usage=FLASHONLY|Rotation=90.000|XOffset=0mm|YOffset=0mm|HoleType=Round|Shape=RoundedRectangle|*
%AMROUNDEDRECTD33*
21,1,1.5000,0.7500,0,0,90.0*
21,1,0.7500,1.5000,0,0,90.0*
1,1,0.7500,0.3750,0.3750*
1,1,0.7500,0.3750,-0.3750*
1,1,0.7500,-0.3750,-0.3750*
1,1,0.7500,-0.3750,0.3750*
%
%ADD33ROUNDEDRECTD33*%
G04:AMPARAMS|DCode=34|XSize=1.52mm|YSize=1.52mm|CornerRadius=0.38mm|HoleSize=0mm|Usage=FLASHONLY|Rotation=0.000|XOffset=0mm|YOffset=0mm|HoleType=Round|Shape=RoundedRectangle|*
%AMROUNDEDRECTD34*
21,1,1.5200,0.7600,0,0,0.0*
21,1,0.7600,1.5200,0,0,0.0*
1,1,0.7600,0.3800,-0.3800*
1,1,0.7600,-0.3800,-0.3800*
1,1,0.7600,-0.3800,0.3800*
1,1,0.7600,0.3800,0.3800*
%
%ADD34ROUNDEDRECTD34*%
%ADD35C,1.5200*%
G04:AMPARAMS|DCode=36|XSize=1.65mm|YSize=1.65mm|CornerRadius=0.4125mm|HoleSize=0mm|Usage=FLASHONLY|Rotation=270.000|XOffset=0mm|YOffset=0mm|HoleType=Round|Shape=RoundedRectangle|*
%AMROUNDEDRECTD36*
21,1,1.6500,0.8250,0,0,270.0*
21,1,0.8250,1.6500,0,0,270.0*
1,1,0.8250,-0.4125,-0.4125*
1,1,0.8250,-0.4125,0.4125*
1,1,0.8250,0.4125,0.4125*
1,1,0.8250,0.4125,-0.4125*
%
%ADD36ROUNDEDRECTD36*%
%ADD37C,1.6500*%
%ADD38C,5.0000*%
G04:AMPARAMS|DCode=39|XSize=1.52mm|YSize=1.52mm|CornerRadius=0.38mm|HoleSize=0mm|Usage=FLASHONLY|Rotation=90.000|XOffset=0mm|YOffset=0mm|HoleType=Round|Shape=RoundedRectangle|*
%AMROUNDEDRECTD39*
21,1,1.5200,0.7600,0,0,90.0*
21,1,0.7600,1.5200,0,0,90.0*
1,1,0.7600,0.3800,0.3800*
1,1,0.7600,0.3800,-0.3800*
1,1,0.7600,-0.3800,-0.3800*
1,1,0.7600,-0.3800,0.3800*
%
%ADD39ROUNDEDRECTD39*%
%ADD40C,0.6096*%
%ADD56C,0.1500*%
G36*
X750827Y1118941D02*
X750887Y1117696D01*
X750887Y1117671D01*
Y1099968D01*
X774979D01*
Y1083936D01*
X890064D01*
Y1099968D01*
X914032D01*
Y1117671D01*
X914092Y1118941D01*
X961661D01*
X962101Y1117750D01*
X961103Y1116897D01*
X957803Y1113034D01*
X955148Y1108701D01*
X953203Y1104007D01*
X952017Y1099066D01*
X951618Y1094000D01*
X952017Y1088934D01*
X953203Y1083994D01*
X955148Y1079299D01*
X957803Y1074966D01*
X961103Y1071103D01*
X964966Y1067803D01*
X969299Y1065148D01*
X973994Y1063203D01*
X978934Y1062017D01*
X984000Y1061618D01*
X989066Y1062017D01*
X994007Y1063203D01*
X998701Y1065148D01*
X1003034Y1067803D01*
X1006897Y1071103D01*
X1007750Y1072101D01*
X1008941Y1071661D01*
X1008941Y967400D01*
X1008941Y966044D01*
X1008676Y963345D01*
X1008147Y960685D01*
X1007359Y958090D01*
X1006321Y955584D01*
X1005043Y953193D01*
X1003536Y950938D01*
X1001816Y948841D01*
X1000857Y947883D01*
X1000857Y947883D01*
X978818Y925843D01*
X978796Y925811D01*
X978765Y925789D01*
X977727Y924699D01*
X977666Y924603D01*
X977578Y924531D01*
X975669Y922205D01*
X975598Y922071D01*
X975491Y921964D01*
X973819Y919462D01*
X973761Y919322D01*
X973665Y919204D01*
X972246Y916551D01*
X972202Y916406D01*
X972118Y916280D01*
X970966Y913500D01*
X970937Y913351D01*
X970865Y913217D01*
X969992Y910338D01*
X969977Y910187D01*
X969919Y910047D01*
X969332Y907095D01*
Y906944D01*
X969288Y906799D01*
X968993Y903804D01*
X969004Y903691D01*
X968979Y903579D01*
X968942Y902075D01*
X968949Y902037D01*
X968941Y902000D01*
Y586700D01*
X968949Y586663D01*
X968942Y586625D01*
X968979Y585121D01*
X969004Y585009D01*
X968993Y584896D01*
X969288Y581901D01*
X969332Y581756D01*
Y581604D01*
X969919Y578653D01*
X969977Y578513D01*
X969992Y578362D01*
X970865Y575483D01*
X970937Y575349D01*
X970966Y575200D01*
X972118Y572420D01*
X972202Y572294D01*
X972246Y572149D01*
X973665Y569496D01*
X973761Y569378D01*
X973819Y569238D01*
X975491Y566736D01*
X975598Y566629D01*
X975669Y566495D01*
X977578Y564169D01*
X977666Y564097D01*
X977727Y564001D01*
X978765Y562911D01*
X978796Y562889D01*
X978818Y562857D01*
X1000857Y540817D01*
X1001816Y539859D01*
X1003536Y537762D01*
X1005043Y535507D01*
X1006321Y533115D01*
X1007359Y530610D01*
X1008146Y528015D01*
X1008676Y525355D01*
X1008941Y522656D01*
X1008941Y521300D01*
Y356339D01*
X1007750Y355899D01*
X1006897Y356897D01*
X1003034Y360197D01*
X998701Y362852D01*
X994007Y364797D01*
X989066Y365983D01*
X984000Y366382D01*
X978934Y365983D01*
X973994Y364797D01*
X969299Y362852D01*
X964966Y360197D01*
X961103Y356897D01*
X957803Y353034D01*
X955148Y348701D01*
X953203Y344007D01*
X952017Y339066D01*
X951618Y334000D01*
X952017Y328934D01*
X953203Y323993D01*
X955148Y319299D01*
X957803Y314966D01*
X961103Y311103D01*
X962101Y310250D01*
X961661Y309059D01*
X706339Y309059D01*
X705899Y310250D01*
X706897Y311103D01*
X710198Y314966D01*
X712852Y319299D01*
X714797Y323993D01*
X715983Y328934D01*
X716382Y334000D01*
X715983Y339066D01*
X714797Y344007D01*
X712852Y348701D01*
X710198Y353034D01*
X706897Y356897D01*
X703034Y360197D01*
X698701Y362852D01*
X694007Y364797D01*
X689066Y365983D01*
X684000Y366382D01*
X678934Y365983D01*
X673994Y364797D01*
X669299Y362852D01*
X664966Y360197D01*
X661103Y356897D01*
X660250Y355899D01*
X659059Y356339D01*
X659059Y521300D01*
Y522656D01*
X659324Y525355D01*
X659854Y528015D01*
X660641Y530610D01*
X661679Y533115D01*
X662957Y535507D01*
X664464Y537762D01*
X666184Y539859D01*
X667143Y540817D01*
X667143Y540817D01*
X669183Y542857D01*
X669204Y542889D01*
X669235Y542911D01*
X670273Y544001D01*
X670334Y544097D01*
X670422Y544169D01*
X672331Y546495D01*
X672402Y546629D01*
X672509Y546736D01*
X674181Y549238D01*
X674239Y549378D01*
X674335Y549496D01*
X675754Y552149D01*
X675798Y552294D01*
X675882Y552421D01*
X677033Y555200D01*
X677063Y555349D01*
X677135Y555483D01*
X678008Y558362D01*
X678023Y558513D01*
X678081Y558653D01*
X678668Y561604D01*
Y561756D01*
X678712Y561901D01*
X679007Y564896D01*
X678996Y565009D01*
X679021Y565120D01*
X679058Y566625D01*
X679051Y566663D01*
X679059Y566700D01*
X679059Y902000D01*
X679051Y902037D01*
X679058Y902075D01*
X679021Y903579D01*
X678996Y903691D01*
X679007Y903804D01*
X678712Y906799D01*
X678668Y906944D01*
Y907095D01*
X678081Y910046D01*
X678023Y910187D01*
X678008Y910338D01*
X677135Y913217D01*
X677063Y913351D01*
X677033Y913500D01*
X675882Y916280D01*
X675798Y916406D01*
X675754Y916551D01*
X674335Y919204D01*
X674239Y919322D01*
X674181Y919462D01*
X672509Y921964D01*
X672402Y922071D01*
X672331Y922205D01*
X670422Y924531D01*
X670334Y924603D01*
X670273Y924699D01*
X669235Y925789D01*
X669204Y925811D01*
X669183Y925843D01*
X667143Y927882D01*
X667143Y927883D01*
X666184Y928841D01*
X664464Y930938D01*
X662957Y933193D01*
X661678Y935584D01*
X660641Y938090D01*
X659854Y940685D01*
X659324Y943345D01*
X659059Y946044D01*
X659059Y947400D01*
Y1071661D01*
X660250Y1072101D01*
X661103Y1071103D01*
X664966Y1067803D01*
X669299Y1065148D01*
X673994Y1063203D01*
X678934Y1062017D01*
X684000Y1061618D01*
X689066Y1062017D01*
X694007Y1063203D01*
X698701Y1065148D01*
X703034Y1067803D01*
X706897Y1071103D01*
X710198Y1074966D01*
X712852Y1079299D01*
X714797Y1083994D01*
X715983Y1088934D01*
X716382Y1094000D01*
X715983Y1099066D01*
X714797Y1104007D01*
X712852Y1108701D01*
X710198Y1113034D01*
X706897Y1116897D01*
X705899Y1117750D01*
X706339Y1118941D01*
X750827D01*
D02*
G37*
G36*
X885552Y1098246D02*
X885674Y1098231D01*
X885750Y1098201D01*
X885765Y1098185D01*
X885780D01*
X885902Y1098124D01*
X885993Y1098064D01*
X886054Y1098003D01*
X886069Y1097988D01*
X886145Y1097896D01*
X886206Y1097805D01*
X886252Y1097729D01*
X886267Y1097714D01*
Y1097699D01*
X886298Y1097577D01*
X886313Y1097455D01*
X886328Y1097379D01*
Y1097364D01*
Y1097348D01*
X886313Y1097212D01*
X886298Y1097090D01*
X886282Y1097014D01*
X886267Y1096999D01*
Y1096983D01*
X886206Y1096862D01*
X886145Y1096770D01*
X886085Y1096710D01*
X886069Y1096694D01*
X885978Y1096618D01*
X885872Y1096557D01*
X885811Y1096512D01*
X885780Y1096497D01*
X885658Y1096466D01*
X885537Y1096451D01*
X885445Y1096436D01*
X885415D01*
X885278Y1096451D01*
X885172Y1096466D01*
X885096Y1096481D01*
X885065Y1096497D01*
X884943Y1096557D01*
X884852Y1096618D01*
X884791Y1096679D01*
X884776Y1096694D01*
X884700Y1096786D01*
X884624Y1096892D01*
X884594Y1096953D01*
X884578Y1096983D01*
X884533Y1097105D01*
X884517Y1097227D01*
X884502Y1097318D01*
Y1097333D01*
Y1097348D01*
X884517Y1097486D01*
X884533Y1097592D01*
X884563Y1097668D01*
X884578Y1097699D01*
X884639Y1097820D01*
X884700Y1097912D01*
X884761Y1097972D01*
X884776Y1097988D01*
X884867Y1098064D01*
X884959Y1098140D01*
X885035Y1098170D01*
X885050Y1098185D01*
X885065D01*
X885187Y1098231D01*
X885309Y1098246D01*
X885385Y1098261D01*
X885415D01*
X885552Y1098246D01*
D02*
G37*
G36*
X840547D02*
X840669Y1098231D01*
X840745Y1098201D01*
X840760Y1098185D01*
X840776D01*
X840897Y1098124D01*
X840988Y1098064D01*
X841049Y1098003D01*
X841065Y1097988D01*
X841141Y1097896D01*
X841201Y1097805D01*
X841247Y1097729D01*
X841262Y1097714D01*
Y1097699D01*
X841293Y1097577D01*
X841308Y1097455D01*
X841323Y1097379D01*
Y1097364D01*
Y1097348D01*
X841308Y1097212D01*
X841293Y1097090D01*
X841277Y1097014D01*
X841262Y1096999D01*
Y1096983D01*
X841201Y1096862D01*
X841141Y1096770D01*
X841080Y1096710D01*
X841065Y1096694D01*
X840973Y1096618D01*
X840867Y1096557D01*
X840806Y1096512D01*
X840776Y1096497D01*
X840654Y1096466D01*
X840532Y1096451D01*
X840441Y1096436D01*
X840410D01*
X840273Y1096451D01*
X840167Y1096466D01*
X840091Y1096481D01*
X840060Y1096497D01*
X839939Y1096557D01*
X839847Y1096618D01*
X839787Y1096679D01*
X839771Y1096694D01*
X839695Y1096786D01*
X839619Y1096892D01*
X839589Y1096953D01*
X839574Y1096983D01*
X839528Y1097105D01*
X839513Y1097227D01*
X839497Y1097318D01*
Y1097333D01*
Y1097348D01*
X839513Y1097486D01*
X839528Y1097592D01*
X839558Y1097668D01*
X839574Y1097699D01*
X839634Y1097820D01*
X839695Y1097912D01*
X839756Y1097972D01*
X839771Y1097988D01*
X839863Y1098064D01*
X839954Y1098140D01*
X840030Y1098170D01*
X840045Y1098185D01*
X840060D01*
X840182Y1098231D01*
X840304Y1098246D01*
X840380Y1098261D01*
X840410D01*
X840547Y1098246D01*
D02*
G37*
G36*
X803347Y1097577D02*
X803637Y1097546D01*
X803895Y1097486D01*
X804108Y1097440D01*
X804291Y1097379D01*
X804428Y1097318D01*
X804504Y1097288D01*
X804534Y1097272D01*
X804762Y1097151D01*
X804976Y1097014D01*
X805173Y1096877D01*
X805341Y1096755D01*
X805478Y1096633D01*
X805569Y1096542D01*
X805645Y1096481D01*
X805660Y1096451D01*
X805021Y1095690D01*
X804869Y1095827D01*
X804732Y1095949D01*
X804595Y1096055D01*
X804473Y1096147D01*
X804352Y1096223D01*
X804276Y1096268D01*
X804215Y1096299D01*
X804200Y1096314D01*
X804032Y1096405D01*
X803850Y1096466D01*
X803682Y1096512D01*
X803530Y1096542D01*
X803393Y1096557D01*
X803287Y1096573D01*
X803043D01*
X802922Y1096557D01*
X802800Y1096527D01*
X802693Y1096512D01*
X802617Y1096481D01*
X802556Y1096451D01*
X802526Y1096436D01*
X802511D01*
X802313Y1096329D01*
X802161Y1096223D01*
X802115Y1096162D01*
X802069Y1096131D01*
X802054Y1096101D01*
X802039Y1096086D01*
X801917Y1095918D01*
X801826Y1095751D01*
X801796Y1095690D01*
X801780Y1095629D01*
X801765Y1095599D01*
Y1095584D01*
X801704Y1095371D01*
X801689Y1095158D01*
X801674Y1095082D01*
Y1095021D01*
Y1094975D01*
Y1094960D01*
X801689Y1094716D01*
X801704Y1094610D01*
Y1094519D01*
X801720Y1094443D01*
X801735Y1094382D01*
X801750Y1094351D01*
Y1094336D01*
X801811Y1094123D01*
X801902Y1093910D01*
X801948Y1093834D01*
X801978Y1093773D01*
X801993Y1093727D01*
X802009Y1093712D01*
X802176Y1093454D01*
X802267Y1093332D01*
X802359Y1093225D01*
X802435Y1093119D01*
X802495Y1093043D01*
X802541Y1092997D01*
X802556Y1092982D01*
X802693Y1092830D01*
X802830Y1092662D01*
X802982Y1092510D01*
X803135Y1092358D01*
X803256Y1092236D01*
X803363Y1092130D01*
X803424Y1092069D01*
X803454Y1092039D01*
X805691Y1089802D01*
Y1088767D01*
X799955D01*
Y1089878D01*
X804184D01*
X802617Y1091415D01*
X802420Y1091613D01*
X802222Y1091795D01*
X802054Y1091963D01*
X801917Y1092100D01*
X801796Y1092221D01*
X801720Y1092312D01*
X801659Y1092373D01*
X801644Y1092389D01*
X801491Y1092556D01*
X801370Y1092723D01*
X801248Y1092875D01*
X801157Y1092997D01*
X801081Y1093119D01*
X801020Y1093195D01*
X800989Y1093256D01*
X800974Y1093271D01*
X800791Y1093590D01*
X800731Y1093727D01*
X800670Y1093864D01*
X800624Y1093971D01*
X800594Y1094047D01*
X800563Y1094108D01*
Y1094123D01*
X800487Y1094443D01*
X800457Y1094610D01*
X800442Y1094747D01*
X800426Y1094868D01*
Y1094960D01*
Y1095036D01*
Y1095051D01*
X800442Y1095264D01*
X800457Y1095462D01*
X800487Y1095645D01*
X800518Y1095812D01*
X800563Y1095934D01*
X800594Y1096040D01*
X800609Y1096101D01*
X800624Y1096116D01*
X800700Y1096283D01*
X800776Y1096436D01*
X800868Y1096573D01*
X800959Y1096694D01*
X801035Y1096786D01*
X801096Y1096846D01*
X801141Y1096892D01*
X801157Y1096907D01*
X801294Y1097029D01*
X801431Y1097120D01*
X801567Y1097212D01*
X801704Y1097288D01*
X801826Y1097333D01*
X801917Y1097379D01*
X801978Y1097409D01*
X801993D01*
X802176Y1097470D01*
X802359Y1097516D01*
X802526Y1097546D01*
X802693Y1097577D01*
X802830D01*
X802952Y1097592D01*
X803043D01*
X803347Y1097577D01*
D02*
G37*
G36*
X788346D02*
X788635Y1097546D01*
X788894Y1097486D01*
X789107Y1097440D01*
X789289Y1097379D01*
X789426Y1097318D01*
X789502Y1097288D01*
X789533Y1097272D01*
X789761Y1097151D01*
X789974Y1097014D01*
X790172Y1096877D01*
X790339Y1096755D01*
X790476Y1096633D01*
X790567Y1096542D01*
X790643Y1096481D01*
X790659Y1096451D01*
X790020Y1095690D01*
X789867Y1095827D01*
X789731Y1095949D01*
X789594Y1096055D01*
X789472Y1096147D01*
X789350Y1096223D01*
X789274Y1096268D01*
X789213Y1096299D01*
X789198Y1096314D01*
X789031Y1096405D01*
X788848Y1096466D01*
X788681Y1096512D01*
X788529Y1096542D01*
X788392Y1096557D01*
X788285Y1096573D01*
X788042D01*
X787920Y1096557D01*
X787798Y1096527D01*
X787692Y1096512D01*
X787616Y1096481D01*
X787555Y1096451D01*
X787524Y1096436D01*
X787509D01*
X787311Y1096329D01*
X787159Y1096223D01*
X787114Y1096162D01*
X787068Y1096131D01*
X787053Y1096101D01*
X787038Y1096086D01*
X786916Y1095918D01*
X786824Y1095751D01*
X786794Y1095690D01*
X786779Y1095629D01*
X786764Y1095599D01*
Y1095584D01*
X786703Y1095371D01*
X786688Y1095158D01*
X786672Y1095082D01*
Y1095021D01*
Y1094975D01*
Y1094960D01*
X786688Y1094716D01*
X786703Y1094610D01*
Y1094519D01*
X786718Y1094443D01*
X786733Y1094382D01*
X786748Y1094351D01*
Y1094336D01*
X786809Y1094123D01*
X786901Y1093910D01*
X786946Y1093834D01*
X786977Y1093773D01*
X786992Y1093727D01*
X787007Y1093712D01*
X787174Y1093454D01*
X787266Y1093332D01*
X787357Y1093225D01*
X787433Y1093119D01*
X787494Y1093043D01*
X787540Y1092997D01*
X787555Y1092982D01*
X787692Y1092830D01*
X787829Y1092662D01*
X787981Y1092510D01*
X788133Y1092358D01*
X788255Y1092236D01*
X788361Y1092130D01*
X788422Y1092069D01*
X788452Y1092039D01*
X790689Y1089802D01*
Y1088767D01*
X784953D01*
Y1089878D01*
X789183D01*
X787616Y1091415D01*
X787418Y1091613D01*
X787220Y1091795D01*
X787053Y1091963D01*
X786916Y1092100D01*
X786794Y1092221D01*
X786718Y1092312D01*
X786657Y1092373D01*
X786642Y1092389D01*
X786490Y1092556D01*
X786368Y1092723D01*
X786246Y1092875D01*
X786155Y1092997D01*
X786079Y1093119D01*
X786018Y1093195D01*
X785988Y1093256D01*
X785973Y1093271D01*
X785790Y1093590D01*
X785729Y1093727D01*
X785668Y1093864D01*
X785622Y1093971D01*
X785592Y1094047D01*
X785562Y1094108D01*
Y1094123D01*
X785486Y1094443D01*
X785455Y1094610D01*
X785440Y1094747D01*
X785425Y1094868D01*
Y1094960D01*
Y1095036D01*
Y1095051D01*
X785440Y1095264D01*
X785455Y1095462D01*
X785486Y1095645D01*
X785516Y1095812D01*
X785562Y1095934D01*
X785592Y1096040D01*
X785607Y1096101D01*
X785622Y1096116D01*
X785699Y1096283D01*
X785775Y1096436D01*
X785866Y1096573D01*
X785957Y1096694D01*
X786033Y1096786D01*
X786094Y1096846D01*
X786140Y1096892D01*
X786155Y1096907D01*
X786292Y1097029D01*
X786429Y1097120D01*
X786566Y1097212D01*
X786703Y1097288D01*
X786824Y1097333D01*
X786916Y1097379D01*
X786977Y1097409D01*
X786992D01*
X787174Y1097470D01*
X787357Y1097516D01*
X787524Y1097546D01*
X787692Y1097577D01*
X787829D01*
X787950Y1097592D01*
X788042D01*
X788346Y1097577D01*
D02*
G37*
G36*
X880607Y1088767D02*
X879451D01*
Y1093195D01*
X879329Y1093347D01*
X879223Y1093469D01*
X879116Y1093590D01*
X879025Y1093682D01*
X878964Y1093758D01*
X878903Y1093819D01*
X878873Y1093849D01*
X878858Y1093864D01*
X878675Y1094047D01*
X878523Y1094184D01*
X878462Y1094230D01*
X878416Y1094260D01*
X878401Y1094290D01*
X878386D01*
X878219Y1094382D01*
X878082Y1094458D01*
X877990Y1094488D01*
X877975Y1094503D01*
X877960D01*
X877808Y1094549D01*
X877656Y1094564D01*
X877595Y1094579D01*
X877519D01*
X877336Y1094564D01*
X877169Y1094519D01*
X877032Y1094458D01*
X876910Y1094382D01*
X876819Y1094306D01*
X876743Y1094245D01*
X876712Y1094199D01*
X876697Y1094184D01*
X876591Y1094032D01*
X876515Y1093849D01*
X876469Y1093651D01*
X876423Y1093469D01*
X876408Y1093286D01*
X876393Y1093149D01*
Y1093058D01*
Y1093043D01*
Y1093028D01*
Y1088767D01*
X875237D01*
Y1093134D01*
X875267Y1093560D01*
X875328Y1093941D01*
X875404Y1094245D01*
X875510Y1094503D01*
X875617Y1094701D01*
X875693Y1094853D01*
X875754Y1094929D01*
X875784Y1094960D01*
X876012Y1095173D01*
X876256Y1095325D01*
X876515Y1095432D01*
X876758Y1095508D01*
X876986Y1095553D01*
X877169Y1095568D01*
X877245Y1095584D01*
X877336D01*
X877549Y1095568D01*
X877732Y1095553D01*
X877793Y1095538D01*
X877853D01*
X877884Y1095523D01*
X877899D01*
X878097Y1095462D01*
X878279Y1095401D01*
X878340Y1095355D01*
X878401Y1095340D01*
X878432Y1095310D01*
X878447D01*
X878629Y1095188D01*
X878797Y1095082D01*
X878873Y1095021D01*
X878919Y1094990D01*
X878949Y1094960D01*
X878964Y1094945D01*
X879162Y1094777D01*
X879329Y1094595D01*
X879390Y1094519D01*
X879451Y1094458D01*
X879481Y1094412D01*
X879497Y1094397D01*
X879451Y1095462D01*
Y1098185D01*
X880607D01*
Y1088767D01*
D02*
G37*
G36*
X870748Y1095568D02*
X870839D01*
X870931Y1095553D01*
X870992D01*
X871037Y1095538D01*
X871052D01*
X871281Y1095508D01*
X871479Y1095477D01*
X871570Y1095462D01*
X871631D01*
X871661Y1095447D01*
X871676D01*
X871889Y1095401D01*
X872072Y1095355D01*
X872148Y1095340D01*
X872209Y1095325D01*
X872239Y1095310D01*
X872254D01*
X872437Y1095249D01*
X872589Y1095203D01*
X872650Y1095188D01*
X872696Y1095173D01*
X872711Y1095158D01*
X872726D01*
Y1094108D01*
X872300Y1094260D01*
X872117Y1094321D01*
X871950Y1094367D01*
X871798Y1094412D01*
X871692Y1094443D01*
X871631Y1094458D01*
X871600D01*
X871189Y1094534D01*
X871007Y1094564D01*
X870839Y1094579D01*
X870703Y1094595D01*
X870490D01*
X870216Y1094579D01*
X869972Y1094534D01*
X869774Y1094473D01*
X869607Y1094412D01*
X869485Y1094351D01*
X869394Y1094290D01*
X869333Y1094245D01*
X869318Y1094230D01*
X869196Y1094077D01*
X869105Y1093925D01*
X869029Y1093773D01*
X868983Y1093621D01*
X868953Y1093484D01*
X868938Y1093378D01*
Y1093301D01*
Y1093271D01*
Y1092693D01*
X870596D01*
X870855Y1092662D01*
X871083Y1092647D01*
X871296Y1092602D01*
X871494Y1092556D01*
X871676Y1092510D01*
X871844Y1092465D01*
X871981Y1092404D01*
X872117Y1092343D01*
X872224Y1092297D01*
X872330Y1092252D01*
X872407Y1092206D01*
X872467Y1092176D01*
X872513Y1092145D01*
X872528Y1092115D01*
X872543D01*
X872681Y1092008D01*
X872787Y1091887D01*
X872894Y1091765D01*
X872970Y1091628D01*
X873107Y1091369D01*
X873198Y1091126D01*
X873243Y1090898D01*
X873274Y1090715D01*
X873289Y1090639D01*
Y1090593D01*
Y1090563D01*
Y1090548D01*
X873274Y1090258D01*
X873243Y1090122D01*
X873228Y1090015D01*
X873198Y1089924D01*
X873183Y1089848D01*
X873167Y1089802D01*
Y1089787D01*
X873061Y1089543D01*
X873000Y1089437D01*
X872924Y1089346D01*
X872878Y1089285D01*
X872833Y1089224D01*
X872802Y1089193D01*
X872787Y1089178D01*
X872574Y1089011D01*
X872361Y1088889D01*
X872254Y1088844D01*
X872178Y1088813D01*
X872133Y1088783D01*
X872117D01*
X871798Y1088707D01*
X871631Y1088676D01*
X871479Y1088661D01*
X871342D01*
X871235Y1088646D01*
X871144D01*
X870916Y1088661D01*
X870687Y1088676D01*
X870490Y1088722D01*
X870322Y1088767D01*
X870170Y1088798D01*
X870048Y1088844D01*
X869987Y1088859D01*
X869957Y1088874D01*
X869744Y1088980D01*
X869546Y1089102D01*
X869364Y1089239D01*
X869196Y1089361D01*
X869044Y1089483D01*
X868938Y1089574D01*
X868877Y1089635D01*
X868846Y1089665D01*
X868816Y1088767D01*
X867766D01*
Y1093378D01*
Y1093575D01*
X867797Y1093773D01*
X867827Y1093941D01*
X867857Y1094077D01*
X867888Y1094199D01*
X867918Y1094275D01*
X867934Y1094336D01*
X867949Y1094351D01*
X868025Y1094503D01*
X868101Y1094625D01*
X868192Y1094747D01*
X868268Y1094853D01*
X868344Y1094929D01*
X868405Y1094990D01*
X868451Y1095021D01*
X868466Y1095036D01*
X868740Y1095219D01*
X868877Y1095279D01*
X868998Y1095340D01*
X869120Y1095386D01*
X869212Y1095416D01*
X869272Y1095447D01*
X869288D01*
X869668Y1095523D01*
X869851Y1095553D01*
X870018Y1095568D01*
X870170Y1095584D01*
X870627D01*
X870748Y1095568D01*
D02*
G37*
G36*
X850482Y1088767D02*
X849113D01*
X848185Y1091521D01*
X847957Y1092236D01*
X847759Y1091567D01*
X846785Y1088767D01*
X845386D01*
X844412Y1095462D01*
X845553D01*
X846070Y1090867D01*
X846177Y1089939D01*
X846481Y1090806D01*
X847531Y1093788D01*
X848367D01*
X849341Y1090776D01*
X849630Y1089893D01*
X849752Y1090898D01*
X850315Y1095462D01*
X851441D01*
X850482Y1088767D01*
D02*
G37*
G36*
X856872Y1097303D02*
Y1095462D01*
X858744D01*
Y1094488D01*
X856872D01*
Y1090989D01*
X856842Y1090578D01*
X856781Y1090213D01*
X856675Y1089909D01*
X856568Y1089665D01*
X856462Y1089483D01*
X856355Y1089346D01*
X856294Y1089270D01*
X856264Y1089239D01*
X856005Y1089057D01*
X855701Y1088920D01*
X855397Y1088813D01*
X855092Y1088752D01*
X854803Y1088707D01*
X854682Y1088691D01*
X854590D01*
X854499Y1088676D01*
X854377D01*
X854058Y1088691D01*
X853921D01*
X853784Y1088707D01*
X853677D01*
X853601Y1088722D01*
X853525D01*
X853221Y1088767D01*
X853084Y1088783D01*
X852947Y1088813D01*
X852856Y1088828D01*
X852765Y1088844D01*
X852719Y1088859D01*
X852704D01*
Y1089863D01*
X853008Y1089787D01*
X853145Y1089756D01*
X853267Y1089741D01*
X853373Y1089711D01*
X853449D01*
X853495Y1089696D01*
X853510D01*
X853784Y1089665D01*
X853906D01*
X853997Y1089650D01*
X854210D01*
X854469Y1089665D01*
X854697Y1089711D01*
X854895Y1089756D01*
X855047Y1089833D01*
X855169Y1089893D01*
X855260Y1089939D01*
X855321Y1089985D01*
X855336Y1090000D01*
X855458Y1090152D01*
X855549Y1090319D01*
X855625Y1090502D01*
X855671Y1090669D01*
X855701Y1090837D01*
X855716Y1090958D01*
Y1091050D01*
Y1091065D01*
Y1091080D01*
Y1094488D01*
X852704D01*
Y1095462D01*
X855716D01*
Y1097607D01*
X856872Y1097303D01*
D02*
G37*
G36*
X887819Y1094503D02*
X885826D01*
Y1089741D01*
X888032D01*
Y1088767D01*
X882661D01*
Y1089741D01*
X884654D01*
Y1095462D01*
X887819D01*
Y1094503D01*
D02*
G37*
G36*
X862137Y1095568D02*
X862350Y1095538D01*
X862548Y1095477D01*
X862715Y1095416D01*
X862867Y1095355D01*
X862974Y1095295D01*
X863050Y1095264D01*
X863080Y1095249D01*
X863293Y1095112D01*
X863506Y1094960D01*
X863704Y1094777D01*
X863886Y1094610D01*
X864039Y1094458D01*
X864145Y1094336D01*
X864221Y1094245D01*
X864252Y1094230D01*
Y1094214D01*
X864282Y1095462D01*
X865332D01*
Y1088767D01*
X864160D01*
Y1093058D01*
X864039Y1093210D01*
X863932Y1093332D01*
X863826Y1093454D01*
X863749Y1093560D01*
X863673Y1093636D01*
X863613Y1093697D01*
X863582Y1093727D01*
X863567Y1093743D01*
X863369Y1093941D01*
X863202Y1094093D01*
X863141Y1094138D01*
X863095Y1094184D01*
X863065Y1094199D01*
X863050Y1094214D01*
X862867Y1094336D01*
X862715Y1094427D01*
X862654Y1094458D01*
X862608Y1094473D01*
X862578Y1094488D01*
X862563D01*
X862380Y1094549D01*
X862228Y1094564D01*
X862182Y1094579D01*
X862091D01*
X861908Y1094564D01*
X861741Y1094519D01*
X861604Y1094443D01*
X861482Y1094382D01*
X861406Y1094306D01*
X861330Y1094230D01*
X861300Y1094184D01*
X861285Y1094169D01*
X861193Y1094001D01*
X861117Y1093803D01*
X861072Y1093590D01*
X861041Y1093393D01*
X861026Y1093195D01*
X861011Y1093043D01*
Y1092982D01*
Y1092952D01*
Y1092921D01*
Y1092906D01*
X859839D01*
Y1093149D01*
X859855Y1093378D01*
X859870Y1093575D01*
X859900Y1093773D01*
X859946Y1093956D01*
X859992Y1094123D01*
X860037Y1094260D01*
X860083Y1094397D01*
X860128Y1094519D01*
X860174Y1094625D01*
X860220Y1094701D01*
X860265Y1094777D01*
X860296Y1094823D01*
X860311Y1094868D01*
X860341Y1094899D01*
X860448Y1095021D01*
X860554Y1095127D01*
X860813Y1095295D01*
X861072Y1095416D01*
X861330Y1095492D01*
X861559Y1095553D01*
X861665Y1095568D01*
X861756D01*
X861817Y1095584D01*
X861924D01*
X862137Y1095568D01*
D02*
G37*
G36*
X842814Y1094503D02*
X840821D01*
Y1089741D01*
X843027D01*
Y1088767D01*
X837656D01*
Y1089741D01*
X839650D01*
Y1095462D01*
X842814D01*
Y1094503D01*
D02*
G37*
G36*
X783873Y1091704D02*
Y1090685D01*
X779689D01*
Y1088767D01*
X778502D01*
Y1090685D01*
X777011D01*
Y1091704D01*
X778502D01*
Y1097470D01*
X780176D01*
X783873Y1091704D01*
D02*
G37*
G36*
X818212Y1097561D02*
X818501Y1097531D01*
X818760Y1097470D01*
X818988Y1097409D01*
X819171Y1097348D01*
X819308Y1097288D01*
X819399Y1097257D01*
X819414Y1097242D01*
X819429D01*
X819673Y1097105D01*
X819886Y1096953D01*
X820084Y1096801D01*
X820251Y1096649D01*
X820403Y1096527D01*
X820494Y1096405D01*
X820571Y1096344D01*
X820586Y1096314D01*
X820753Y1096086D01*
X820905Y1095857D01*
X821042Y1095614D01*
X821133Y1095401D01*
X821225Y1095203D01*
X821286Y1095051D01*
X821301Y1094990D01*
X821316Y1094945D01*
X821331Y1094929D01*
Y1094914D01*
X821423Y1094595D01*
X821483Y1094290D01*
X821529Y1093986D01*
X821559Y1093697D01*
X821575Y1093454D01*
Y1093362D01*
X821590Y1093271D01*
Y1093195D01*
Y1093149D01*
Y1093119D01*
Y1093104D01*
X821575Y1092769D01*
X821544Y1092434D01*
X821514Y1092145D01*
X821468Y1091887D01*
X821423Y1091658D01*
X821377Y1091491D01*
X821362Y1091430D01*
Y1091384D01*
X821346Y1091369D01*
Y1091354D01*
X821240Y1091065D01*
X821133Y1090791D01*
X821012Y1090548D01*
X820890Y1090335D01*
X820799Y1090167D01*
X820707Y1090045D01*
X820647Y1089969D01*
X820631Y1089939D01*
X820449Y1089726D01*
X820251Y1089543D01*
X820053Y1089376D01*
X819871Y1089239D01*
X819718Y1089133D01*
X819582Y1089057D01*
X819505Y1089011D01*
X819475Y1088996D01*
X819216Y1088889D01*
X818942Y1088798D01*
X818684Y1088737D01*
X818456Y1088707D01*
X818243Y1088676D01*
X818075Y1088661D01*
X817938D01*
X817634Y1088676D01*
X817360Y1088707D01*
X817102Y1088767D01*
X816873Y1088828D01*
X816691Y1088874D01*
X816554Y1088935D01*
X816462Y1088965D01*
X816432Y1088980D01*
X816189Y1089117D01*
X815960Y1089254D01*
X815763Y1089407D01*
X815595Y1089559D01*
X815443Y1089696D01*
X815352Y1089802D01*
X815276Y1089863D01*
X815261Y1089893D01*
X815093Y1090122D01*
X814941Y1090365D01*
X814804Y1090609D01*
X814698Y1090822D01*
X814622Y1091019D01*
X814561Y1091171D01*
X814546Y1091232D01*
X814530Y1091278D01*
X814515Y1091293D01*
Y1091308D01*
X814424Y1091628D01*
X814363Y1091932D01*
X814302Y1092236D01*
X814272Y1092510D01*
X814256Y1092754D01*
Y1092860D01*
X814241Y1092936D01*
Y1093012D01*
Y1093058D01*
Y1093088D01*
Y1093104D01*
X814256Y1093454D01*
X814287Y1093773D01*
X814317Y1094077D01*
X814363Y1094336D01*
X814424Y1094549D01*
X814454Y1094716D01*
X814469Y1094777D01*
X814485Y1094823D01*
X814500Y1094838D01*
Y1094853D01*
X814606Y1095158D01*
X814713Y1095416D01*
X814835Y1095660D01*
X814941Y1095873D01*
X815048Y1096040D01*
X815139Y1096162D01*
X815200Y1096238D01*
X815215Y1096268D01*
X815397Y1096481D01*
X815595Y1096679D01*
X815793Y1096846D01*
X815976Y1096983D01*
X816128Y1097090D01*
X816249Y1097166D01*
X816341Y1097212D01*
X816356Y1097227D01*
X816371D01*
X816630Y1097348D01*
X816904Y1097425D01*
X817162Y1097486D01*
X817391Y1097531D01*
X817604Y1097561D01*
X817771Y1097577D01*
X817908D01*
X818212Y1097561D01*
D02*
G37*
G36*
X795634Y1097577D02*
X795908Y1097546D01*
X796151Y1097486D01*
X796349Y1097425D01*
X796531Y1097364D01*
X796653Y1097303D01*
X796729Y1097272D01*
X796760Y1097257D01*
X796973Y1097120D01*
X797170Y1096983D01*
X797353Y1096831D01*
X797490Y1096679D01*
X797612Y1096542D01*
X797703Y1096436D01*
X797764Y1096375D01*
X797779Y1096344D01*
X797916Y1096116D01*
X798038Y1095873D01*
X798144Y1095645D01*
X798220Y1095416D01*
X798281Y1095219D01*
X798342Y1095066D01*
X798357Y1095005D01*
Y1094960D01*
X798372Y1094945D01*
Y1094929D01*
X798433Y1094610D01*
X798479Y1094306D01*
X798524Y1093986D01*
X798540Y1093712D01*
X798555Y1093469D01*
X798570Y1093362D01*
Y1093271D01*
Y1093195D01*
Y1093149D01*
Y1093119D01*
Y1093104D01*
X798555Y1092693D01*
X798540Y1092297D01*
X798509Y1091963D01*
X798464Y1091674D01*
X798418Y1091430D01*
X798403Y1091323D01*
X798388Y1091247D01*
X798372Y1091187D01*
Y1091141D01*
X798357Y1091111D01*
Y1091095D01*
X798266Y1090791D01*
X798175Y1090532D01*
X798068Y1090289D01*
X797962Y1090091D01*
X797870Y1089924D01*
X797794Y1089817D01*
X797749Y1089741D01*
X797733Y1089711D01*
X797566Y1089513D01*
X797414Y1089361D01*
X797246Y1089209D01*
X797094Y1089102D01*
X796957Y1089011D01*
X796851Y1088950D01*
X796790Y1088920D01*
X796760Y1088904D01*
X796531Y1088813D01*
X796318Y1088752D01*
X796105Y1088707D01*
X795908Y1088676D01*
X795740Y1088661D01*
X795603Y1088646D01*
X795482D01*
X795177Y1088661D01*
X794919Y1088691D01*
X794675Y1088752D01*
X794462Y1088813D01*
X794295Y1088859D01*
X794173Y1088920D01*
X794097Y1088950D01*
X794067Y1088965D01*
X793854Y1089102D01*
X793656Y1089239D01*
X793488Y1089391D01*
X793336Y1089528D01*
X793215Y1089665D01*
X793139Y1089772D01*
X793078Y1089833D01*
X793063Y1089863D01*
X792910Y1090091D01*
X792789Y1090335D01*
X792682Y1090578D01*
X792606Y1090791D01*
X792545Y1090989D01*
X792484Y1091141D01*
X792469Y1091202D01*
Y1091247D01*
X792454Y1091263D01*
Y1091278D01*
X792378Y1091597D01*
X792332Y1091917D01*
X792287Y1092221D01*
X792271Y1092510D01*
X792256Y1092754D01*
X792241Y1092845D01*
Y1092936D01*
Y1093012D01*
Y1093058D01*
Y1093088D01*
Y1093104D01*
X792256Y1093530D01*
X792271Y1093910D01*
X792317Y1094245D01*
X792347Y1094549D01*
X792393Y1094777D01*
X792408Y1094884D01*
X792439Y1094960D01*
X792454Y1095021D01*
Y1095066D01*
X792469Y1095097D01*
Y1095112D01*
X792560Y1095416D01*
X792652Y1095690D01*
X792758Y1095934D01*
X792865Y1096131D01*
X792956Y1096299D01*
X793032Y1096420D01*
X793078Y1096481D01*
X793093Y1096512D01*
X793260Y1096710D01*
X793428Y1096877D01*
X793580Y1097014D01*
X793747Y1097120D01*
X793884Y1097212D01*
X793991Y1097272D01*
X794051Y1097303D01*
X794082Y1097318D01*
X794295Y1097409D01*
X794523Y1097470D01*
X794721Y1097531D01*
X794919Y1097561D01*
X795086Y1097577D01*
X795223Y1097592D01*
X795345D01*
X795634Y1097577D01*
D02*
G37*
G36*
X833442Y1095553D02*
X833625Y1095523D01*
X833777Y1095492D01*
X833914Y1095462D01*
X834005Y1095432D01*
X834081Y1095416D01*
X834096Y1095401D01*
X834264Y1095340D01*
X834416Y1095264D01*
X834568Y1095173D01*
X834690Y1095097D01*
X834781Y1095036D01*
X834857Y1094975D01*
X834903Y1094945D01*
X834918Y1094929D01*
X835040Y1094808D01*
X835146Y1094686D01*
X835237Y1094564D01*
X835313Y1094443D01*
X835374Y1094336D01*
X835420Y1094260D01*
X835435Y1094199D01*
X835450Y1094184D01*
X835511Y1094016D01*
X835557Y1093864D01*
X835587Y1093697D01*
X835602Y1093560D01*
X835618Y1093423D01*
X835633Y1093332D01*
Y1093271D01*
Y1093241D01*
Y1093073D01*
X835618Y1092936D01*
X835602Y1092830D01*
Y1092815D01*
Y1092799D01*
X835572Y1092662D01*
X835542Y1092541D01*
X835511Y1092449D01*
X835496Y1092434D01*
Y1092419D01*
X835435Y1092297D01*
X835389Y1092191D01*
X835344Y1092130D01*
X835329Y1092100D01*
X835253Y1091993D01*
X835176Y1091902D01*
X835116Y1091841D01*
X835100Y1091810D01*
X835298Y1091567D01*
X835450Y1091354D01*
X835511Y1091263D01*
X835557Y1091187D01*
X835572Y1091141D01*
X835587Y1091126D01*
X835648Y1090989D01*
X835694Y1090852D01*
X835739Y1090715D01*
X835755Y1090593D01*
X835770Y1090487D01*
X835785Y1090411D01*
Y1090350D01*
Y1090335D01*
Y1090228D01*
X835770Y1090122D01*
X835755Y1090045D01*
Y1090030D01*
Y1090015D01*
X835709Y1089909D01*
X835679Y1089802D01*
X835648Y1089741D01*
X835633Y1089711D01*
X835572Y1089620D01*
X835511Y1089528D01*
X835450Y1089467D01*
X835435Y1089452D01*
X835329Y1089376D01*
X835237Y1089315D01*
X835161Y1089270D01*
X835131Y1089254D01*
X835298Y1089133D01*
X835435Y1089011D01*
X835557Y1088889D01*
X835663Y1088783D01*
X835739Y1088691D01*
X835785Y1088631D01*
X835816Y1088585D01*
X835831Y1088570D01*
X835907Y1088433D01*
X835952Y1088281D01*
X835998Y1088144D01*
X836013Y1088007D01*
X836029Y1087885D01*
X836044Y1087794D01*
Y1087733D01*
Y1087718D01*
X836013Y1087444D01*
X835998Y1087322D01*
X835968Y1087231D01*
X835937Y1087140D01*
X835922Y1087079D01*
X835892Y1087033D01*
Y1087018D01*
X835816Y1086896D01*
X835739Y1086805D01*
X835557Y1086622D01*
X835481Y1086561D01*
X835420Y1086516D01*
X835374Y1086485D01*
X835359Y1086470D01*
X835207Y1086394D01*
X835055Y1086318D01*
X834887Y1086257D01*
X834751Y1086196D01*
X834613Y1086166D01*
X834507Y1086135D01*
X834446Y1086105D01*
X834416D01*
X834187Y1086059D01*
X833959Y1086029D01*
X833731Y1085998D01*
X833518Y1085983D01*
X833320D01*
X833168Y1085968D01*
X833031D01*
X832727Y1085983D01*
X832438Y1085998D01*
X832194Y1086029D01*
X831981Y1086059D01*
X831814Y1086090D01*
X831677Y1086120D01*
X831601Y1086151D01*
X831571D01*
X831342Y1086227D01*
X831145Y1086303D01*
X830977Y1086379D01*
X830825Y1086470D01*
X830703Y1086531D01*
X830627Y1086592D01*
X830566Y1086622D01*
X830551Y1086637D01*
X830399Y1086759D01*
X830277Y1086881D01*
X830171Y1087003D01*
X830095Y1087109D01*
X830034Y1087200D01*
X829973Y1087292D01*
X829958Y1087337D01*
X829943Y1087353D01*
X829882Y1087505D01*
X829821Y1087657D01*
X829790Y1087794D01*
X829775Y1087915D01*
X829760Y1088022D01*
X829745Y1088113D01*
Y1088174D01*
Y1088189D01*
Y1088342D01*
X829775Y1088478D01*
X829806Y1088600D01*
X829836Y1088707D01*
X829867Y1088783D01*
X829897Y1088844D01*
X829912Y1088889D01*
X829927Y1088904D01*
X830064Y1089117D01*
X830232Y1089285D01*
X830293Y1089346D01*
X830353Y1089407D01*
X830384Y1089422D01*
X830399Y1089437D01*
X830642Y1089574D01*
X830871Y1089680D01*
X830977Y1089711D01*
X831053Y1089741D01*
X831114Y1089756D01*
X831129D01*
X831449Y1089833D01*
X831601Y1089848D01*
X831738Y1089863D01*
X831860Y1089878D01*
X832042D01*
X833792Y1089954D01*
X833944Y1089969D01*
X834066Y1089985D01*
X834172Y1090015D01*
X834279Y1090045D01*
X834340Y1090076D01*
X834400Y1090106D01*
X834431Y1090137D01*
X834446D01*
X834522Y1090198D01*
X834583Y1090274D01*
X834613Y1090335D01*
X834644Y1090411D01*
X834659Y1090456D01*
X834674Y1090502D01*
Y1090532D01*
Y1090548D01*
X834659Y1090700D01*
X834629Y1090822D01*
X834613Y1090898D01*
X834598Y1090928D01*
X834522Y1091050D01*
X834461Y1091171D01*
X834400Y1091247D01*
X834385Y1091263D01*
Y1091278D01*
X834203Y1091187D01*
X834020Y1091111D01*
X833929Y1091080D01*
X833868Y1091065D01*
X833822Y1091050D01*
X833807D01*
X833533Y1091004D01*
X833396Y1090989D01*
X833275D01*
X833168Y1090974D01*
X833016D01*
X832803Y1090989D01*
X832605Y1091004D01*
X832423Y1091034D01*
X832271Y1091065D01*
X832149Y1091095D01*
X832042Y1091111D01*
X831981Y1091141D01*
X831966D01*
X831784Y1091217D01*
X831631Y1091293D01*
X831495Y1091369D01*
X831358Y1091445D01*
X831266Y1091506D01*
X831190Y1091567D01*
X831145Y1091597D01*
X831129Y1091613D01*
X831008Y1091734D01*
X830901Y1091856D01*
X830810Y1091978D01*
X830734Y1092100D01*
X830673Y1092191D01*
X830627Y1092267D01*
X830612Y1092328D01*
X830597Y1092343D01*
X830536Y1092510D01*
X830475Y1092678D01*
X830445Y1092845D01*
X830430Y1092982D01*
X830414Y1093119D01*
X830399Y1093210D01*
Y1093286D01*
Y1093301D01*
X830414Y1093545D01*
X830430Y1093667D01*
X830445Y1093758D01*
X830475Y1093834D01*
X830490Y1093910D01*
X830506Y1093941D01*
Y1093956D01*
X830597Y1094184D01*
X830688Y1094351D01*
X830734Y1094427D01*
X830764Y1094473D01*
X830779Y1094503D01*
X830795Y1094519D01*
X829714D01*
Y1095462D01*
X832149D01*
X832286Y1095492D01*
X832407Y1095523D01*
X832499Y1095538D01*
X832544D01*
X832712Y1095568D01*
X832864Y1095584D01*
X833229D01*
X833442Y1095553D01*
D02*
G37*
%LPC*%
G36*
X934000Y1064072D02*
X934000Y1064072D01*
X722000D01*
X722000Y1064072D01*
X721207Y1063914D01*
X720535Y1063465D01*
X714535Y1057465D01*
X714086Y1056793D01*
X713928Y1056000D01*
X713928Y1056000D01*
Y1041130D01*
X712658Y1040790D01*
X712558Y1040964D01*
X710764Y1042757D01*
X708568Y1044026D01*
X706118Y1044682D01*
X703582D01*
X701132Y1044026D01*
X698936Y1042757D01*
X697142Y1040964D01*
X695874Y1038768D01*
X695218Y1036318D01*
Y1033782D01*
X695874Y1031332D01*
X697142Y1029136D01*
X698936Y1027343D01*
X701132Y1026074D01*
X703582Y1025418D01*
X706118D01*
X708568Y1026074D01*
X710764Y1027343D01*
X712558Y1029136D01*
X712658Y1029310D01*
X713928Y1028970D01*
Y1018160D01*
X712658Y1017786D01*
X710926Y1018944D01*
X708650Y1019396D01*
X701050D01*
X698774Y1018944D01*
X696845Y1017655D01*
X695556Y1015725D01*
X695104Y1013450D01*
Y1005850D01*
X695556Y1003575D01*
X696845Y1001645D01*
X698774Y1000356D01*
X701050Y999904D01*
X708650D01*
X710926Y1000356D01*
X712658Y1001514D01*
X713928Y1001140D01*
Y992858D01*
X694535Y973465D01*
X694086Y972793D01*
X693928Y972000D01*
X693928Y972000D01*
Y890000D01*
X693928Y890000D01*
X694086Y889207D01*
X694535Y888535D01*
X694535Y888535D01*
X700535Y882535D01*
X701207Y882086D01*
X702000Y881928D01*
X702000Y881928D01*
X703116D01*
X703849Y880658D01*
X703242Y879606D01*
X702660Y877434D01*
Y875186D01*
X703242Y873014D01*
X704291Y871197D01*
X710302Y877208D01*
X711200Y876310D01*
X712098Y877208D01*
X718109Y871197D01*
X719158Y873014D01*
X719740Y875186D01*
Y877434D01*
X719158Y879606D01*
X718551Y880658D01*
X719284Y881928D01*
X722006D01*
X722271Y881981D01*
X722542Y881999D01*
X722664Y882059D01*
X722798Y882086D01*
X723024Y882236D01*
X723267Y882356D01*
X723357Y882459D01*
X723471Y882535D01*
X723506Y882589D01*
X724115Y882803D01*
X725011Y882880D01*
X725318Y882573D01*
X727150Y881515D01*
X729193Y880968D01*
X731307D01*
X733350Y881515D01*
X735182Y882573D01*
X735490Y882880D01*
X736385Y882803D01*
X736994Y882589D01*
X737029Y882535D01*
X737143Y882459D01*
X737233Y882356D01*
X737476Y882236D01*
X737702Y882086D01*
X737836Y882059D01*
X737958Y881999D01*
X738229Y881981D01*
X738494Y881928D01*
X745142D01*
X749928Y877142D01*
Y552858D01*
X739142Y542072D01*
X682000D01*
X682000Y542072D01*
X681207Y541914D01*
X680535Y541465D01*
X666535Y527465D01*
X666086Y526793D01*
X665928Y526000D01*
X665928Y526000D01*
Y478000D01*
X666086Y477207D01*
X666535Y476535D01*
X666535Y476535D01*
X678535Y464535D01*
X679207Y464086D01*
X680000Y463928D01*
X680000Y463928D01*
X828000D01*
X828000Y463928D01*
X828793Y464086D01*
X829465Y464535D01*
X829465Y464535D01*
X860858Y495928D01*
X873749D01*
X874352Y494658D01*
X873294Y492825D01*
X872610Y490272D01*
Y487628D01*
X873294Y485075D01*
X874616Y482785D01*
X874653Y482749D01*
X881752Y489848D01*
X882650Y488950D01*
X883548Y489848D01*
X890647Y482749D01*
X890684Y482785D01*
X892006Y485075D01*
X892690Y487628D01*
Y490272D01*
X892006Y492825D01*
X890948Y494658D01*
X891551Y495928D01*
X897481D01*
X898276Y494658D01*
X897887Y492700D01*
Y485200D01*
X898375Y482746D01*
X899046Y481742D01*
X907152Y489848D01*
X908050Y488950D01*
X908948Y489848D01*
X917054Y481742D01*
X917725Y482746D01*
X918213Y485200D01*
Y492700D01*
X917824Y494658D01*
X918619Y495928D01*
X922000D01*
X922000Y495928D01*
X922793Y496086D01*
X923465Y496535D01*
X929465Y502535D01*
X929914Y503207D01*
X930072Y504000D01*
X930072Y504000D01*
Y524000D01*
X930072Y524000D01*
X929914Y524793D01*
X929465Y525465D01*
X929465Y525465D01*
X923465Y531465D01*
X922793Y531914D01*
X922000Y532072D01*
X922000Y532072D01*
X860858D01*
X840149Y552781D01*
X840392Y554334D01*
X842069Y555198D01*
X842188Y555292D01*
X842329Y555348D01*
X844817Y556955D01*
X844926Y557061D01*
X845061Y557130D01*
X847380Y558974D01*
X847478Y559090D01*
X847606Y559172D01*
X849732Y561234D01*
X849819Y561359D01*
X849937Y561453D01*
X850813Y562487D01*
X852492Y564166D01*
X852660Y564417D01*
X852873Y564630D01*
X855653Y568790D01*
X855768Y569068D01*
X855935Y569319D01*
X857850Y573941D01*
X857909Y574237D01*
X858024Y574515D01*
X859000Y579423D01*
X859000Y579724D01*
X859059Y580019D01*
X859059Y582521D01*
X859059Y880658D01*
X859059Y881928D01*
X883116D01*
X883849Y880658D01*
X883242Y879606D01*
X882660Y877434D01*
Y875186D01*
X883242Y873014D01*
X884291Y871197D01*
X890302Y877208D01*
X891200Y876310D01*
X892098Y877208D01*
X898109Y871197D01*
X899158Y873014D01*
X899740Y875186D01*
Y877434D01*
X899158Y879606D01*
X898551Y880658D01*
X899284Y881928D01*
X902006D01*
X902271Y881981D01*
X902542Y881999D01*
X902664Y882059D01*
X902798Y882086D01*
X903024Y882236D01*
X903267Y882356D01*
X903357Y882459D01*
X903471Y882535D01*
X903506Y882589D01*
X904115Y882803D01*
X905011Y882880D01*
X905318Y882573D01*
X907150Y881515D01*
X909193Y880968D01*
X911307D01*
X913350Y881515D01*
X915182Y882573D01*
X915490Y882880D01*
X916385Y882803D01*
X916994Y882589D01*
X917029Y882535D01*
X917143Y882459D01*
X917233Y882356D01*
X917476Y882236D01*
X917702Y882086D01*
X917836Y882059D01*
X917958Y881999D01*
X918229Y881981D01*
X918494Y881928D01*
X934000D01*
X934000Y881928D01*
X934793Y882086D01*
X935465Y882535D01*
X935465Y882535D01*
X941465Y888535D01*
X941914Y889207D01*
X942072Y890000D01*
X942072Y890000D01*
Y1024786D01*
X943600D01*
X946074Y1025278D01*
X947094Y1025960D01*
X938902Y1034152D01*
X939800Y1035050D01*
X938902Y1035948D01*
X947094Y1044140D01*
X946074Y1044822D01*
X943600Y1045314D01*
X942072D01*
Y1056000D01*
X942072Y1056000D01*
X941914Y1056793D01*
X941465Y1057465D01*
X941465Y1057465D01*
X935465Y1063465D01*
X934793Y1063914D01*
X934000Y1064072D01*
D02*
G37*
G36*
X677112Y1049588D02*
X674889D01*
X672993Y1048803D01*
X676000Y1045796D01*
X679007Y1048803D01*
X677112Y1049588D01*
D02*
G37*
G36*
X680803Y1047007D02*
X677796Y1044000D01*
X680803Y1040993D01*
X681588Y1042888D01*
Y1045111D01*
X680803Y1047007D01*
D02*
G37*
G36*
X671197Y1047007D02*
X670412Y1045111D01*
Y1042888D01*
X671197Y1040993D01*
X674204Y1044000D01*
X671197Y1047007D01*
D02*
G37*
G36*
X676000Y1042204D02*
X672993Y1039197D01*
X674889Y1038412D01*
X677112D01*
X679007Y1039197D01*
X676000Y1042204D01*
D02*
G37*
G36*
X969000Y1045314D02*
X961400D01*
X958926Y1044822D01*
X957906Y1044140D01*
X965200Y1036846D01*
X972494Y1044140D01*
X971474Y1044822D01*
X969000Y1045314D01*
D02*
G37*
G36*
X974290Y1042344D02*
X966996Y1035050D01*
X974290Y1027756D01*
X974972Y1028776D01*
X975464Y1031250D01*
Y1038850D01*
X974972Y1041324D01*
X974290Y1042344D01*
D02*
G37*
G36*
X956110Y1042344D02*
X955428Y1041324D01*
X954936Y1038850D01*
Y1031250D01*
X955428Y1028776D01*
X956110Y1027756D01*
X963404Y1035050D01*
X956110Y1042344D01*
D02*
G37*
G36*
X948890Y1042344D02*
X941596Y1035050D01*
X948890Y1027756D01*
X949572Y1028776D01*
X950064Y1031250D01*
Y1038850D01*
X949572Y1041324D01*
X948890Y1042344D01*
D02*
G37*
G36*
X991868Y1044682D02*
X989332D01*
X986882Y1044026D01*
X984686Y1042757D01*
X982893Y1040964D01*
X981624Y1038768D01*
X980968Y1036318D01*
Y1033782D01*
X981624Y1031332D01*
X982893Y1029136D01*
X984686Y1027343D01*
X986882Y1026074D01*
X989332Y1025418D01*
X991868D01*
X994318Y1026074D01*
X996514Y1027343D01*
X998307Y1029136D01*
X999576Y1031332D01*
X1000232Y1033782D01*
Y1036318D01*
X999576Y1038768D01*
X998307Y1040964D01*
X996514Y1042757D01*
X994318Y1044026D01*
X991868Y1044682D01*
D02*
G37*
G36*
X965200Y1033254D02*
X957906Y1025960D01*
X958926Y1025278D01*
X961400Y1024786D01*
X969000D01*
X971474Y1025278D01*
X972494Y1025960D01*
X965200Y1033254D01*
D02*
G37*
G36*
X891200Y874514D02*
X886087Y869401D01*
X887904Y868352D01*
X890076Y867770D01*
X892324D01*
X894496Y868352D01*
X896313Y869401D01*
X891200Y874514D01*
D02*
G37*
G36*
X711200Y874514D02*
X706087Y869401D01*
X707904Y868352D01*
X710076Y867770D01*
X712324D01*
X714496Y868352D01*
X716313Y869401D01*
X711200Y874514D01*
D02*
G37*
G36*
X731374Y872140D02*
X729126D01*
X726954Y871558D01*
X725137Y870509D01*
X730250Y865396D01*
X735363Y870509D01*
X733546Y871558D01*
X731374Y872140D01*
D02*
G37*
G36*
X911374D02*
X909126D01*
X906954Y871558D01*
X905137Y870509D01*
X910250Y865396D01*
X915363Y870509D01*
X913546Y871558D01*
X911374Y872140D01*
D02*
G37*
G36*
X723341Y868713D02*
X722292Y866896D01*
X721710Y864724D01*
Y862476D01*
X722292Y860304D01*
X723341Y858487D01*
X728454Y863600D01*
X723341Y868713D01*
D02*
G37*
G36*
X737159D02*
X732046Y863600D01*
X737159Y858487D01*
X738208Y860304D01*
X738790Y862476D01*
Y864724D01*
X738208Y866896D01*
X737159Y868713D01*
D02*
G37*
G36*
X917159Y868713D02*
X912046Y863600D01*
X917159Y858487D01*
X918208Y860304D01*
X918790Y862476D01*
Y864724D01*
X918208Y866896D01*
X917159Y868713D01*
D02*
G37*
G36*
X903341Y868713D02*
X902292Y866896D01*
X901710Y864724D01*
Y862476D01*
X902292Y860304D01*
X903341Y858487D01*
X908454Y863600D01*
X903341Y868713D01*
D02*
G37*
G36*
X910250Y861804D02*
X905137Y856691D01*
X906954Y855642D01*
X909126Y855060D01*
X911374D01*
X913546Y855642D01*
X915363Y856691D01*
X910250Y861804D01*
D02*
G37*
G36*
X730250Y861804D02*
X725137Y856691D01*
X726954Y855642D01*
X729126Y855060D01*
X731374D01*
X733546Y855642D01*
X735363Y856691D01*
X730250Y861804D01*
D02*
G37*
G36*
X712324Y859440D02*
X710076D01*
X707904Y858858D01*
X706087Y857809D01*
X711200Y852696D01*
X716313Y857809D01*
X714496Y858858D01*
X712324Y859440D01*
D02*
G37*
G36*
X892324D02*
X890076D01*
X887904Y858858D01*
X886087Y857809D01*
X891200Y852696D01*
X896313Y857809D01*
X894496Y858858D01*
X892324Y859440D01*
D02*
G37*
G36*
X704291Y856013D02*
X703242Y854196D01*
X702660Y852024D01*
Y849776D01*
X703242Y847604D01*
X704291Y845787D01*
X709404Y850900D01*
X704291Y856013D01*
D02*
G37*
G36*
X718109D02*
X712996Y850900D01*
X718109Y845787D01*
X719158Y847604D01*
X719740Y849776D01*
Y852024D01*
X719158Y854196D01*
X718109Y856013D01*
D02*
G37*
G36*
X898109Y856013D02*
X892996Y850900D01*
X898109Y845787D01*
X899158Y847604D01*
X899740Y849776D01*
Y852024D01*
X899158Y854196D01*
X898109Y856013D01*
D02*
G37*
G36*
X884291Y856013D02*
X883242Y854196D01*
X882660Y852024D01*
Y849776D01*
X883242Y847604D01*
X884291Y845787D01*
X889404Y850900D01*
X884291Y856013D01*
D02*
G37*
G36*
X891200Y849104D02*
X886087Y843991D01*
X887904Y842942D01*
X890076Y842360D01*
X892324D01*
X894496Y842942D01*
X896313Y843991D01*
X891200Y849104D01*
D02*
G37*
G36*
X711200Y849104D02*
X706087Y843991D01*
X707904Y842942D01*
X710076Y842360D01*
X712324D01*
X714496Y842942D01*
X716313Y843991D01*
X711200Y849104D01*
D02*
G37*
G36*
X911307Y846232D02*
X909193D01*
X907150Y845685D01*
X905318Y844627D01*
X903823Y843132D01*
X902765Y841300D01*
X902218Y839257D01*
Y837143D01*
X902765Y835100D01*
X903823Y833268D01*
X905318Y831773D01*
X907150Y830715D01*
X909193Y830168D01*
X911307D01*
X913350Y830715D01*
X915182Y831773D01*
X916677Y833268D01*
X917735Y835100D01*
X918282Y837143D01*
Y839257D01*
X917735Y841300D01*
X916677Y843132D01*
X915182Y844627D01*
X913350Y845685D01*
X911307Y846232D01*
D02*
G37*
G36*
X731307D02*
X729193D01*
X727150Y845685D01*
X725318Y844627D01*
X723823Y843132D01*
X722765Y841300D01*
X722218Y839257D01*
Y837143D01*
X722765Y835100D01*
X723823Y833268D01*
X725318Y831773D01*
X727150Y830715D01*
X729193Y830168D01*
X731307D01*
X733350Y830715D01*
X735182Y831773D01*
X736677Y833268D01*
X737735Y835100D01*
X738282Y837143D01*
Y839257D01*
X737735Y841300D01*
X736677Y843132D01*
X735182Y844627D01*
X733350Y845685D01*
X731307Y846232D01*
D02*
G37*
G36*
X892257Y833532D02*
X890143D01*
X888100Y832985D01*
X886268Y831927D01*
X884773Y830432D01*
X883715Y828600D01*
X883168Y826557D01*
Y824443D01*
X883715Y822400D01*
X884773Y820568D01*
X886268Y819073D01*
X888100Y818015D01*
X890143Y817468D01*
X892257D01*
X894300Y818015D01*
X896132Y819073D01*
X897627Y820568D01*
X898685Y822400D01*
X899232Y824443D01*
Y826557D01*
X898685Y828600D01*
X897627Y830432D01*
X896132Y831927D01*
X894300Y832985D01*
X892257Y833532D01*
D02*
G37*
G36*
X712257D02*
X710143D01*
X708100Y832985D01*
X706268Y831927D01*
X704773Y830432D01*
X703715Y828600D01*
X703168Y826557D01*
Y824443D01*
X703715Y822400D01*
X704773Y820568D01*
X706268Y819073D01*
X708100Y818015D01*
X710143Y817468D01*
X712257D01*
X714300Y818015D01*
X716132Y819073D01*
X717627Y820568D01*
X718685Y822400D01*
X719232Y824443D01*
Y826557D01*
X718685Y828600D01*
X717627Y830432D01*
X716132Y831927D01*
X714300Y832985D01*
X712257Y833532D01*
D02*
G37*
G36*
X911307Y820832D02*
X909193D01*
X907150Y820285D01*
X905318Y819227D01*
X903823Y817732D01*
X902765Y815900D01*
X902218Y813857D01*
Y811743D01*
X902765Y809700D01*
X903823Y807868D01*
X905318Y806373D01*
X907150Y805315D01*
X909193Y804768D01*
X911307D01*
X913350Y805315D01*
X915182Y806373D01*
X916677Y807868D01*
X917735Y809700D01*
X918282Y811743D01*
Y813857D01*
X917735Y815900D01*
X916677Y817732D01*
X915182Y819227D01*
X913350Y820285D01*
X911307Y820832D01*
D02*
G37*
G36*
X731307D02*
X729193D01*
X727150Y820285D01*
X725318Y819227D01*
X723823Y817732D01*
X722765Y815900D01*
X722218Y813857D01*
Y811743D01*
X722765Y809700D01*
X723823Y807868D01*
X725318Y806373D01*
X727150Y805315D01*
X729193Y804768D01*
X731307D01*
X733350Y805315D01*
X735182Y806373D01*
X736677Y807868D01*
X737735Y809700D01*
X738282Y811743D01*
Y813857D01*
X737735Y815900D01*
X736677Y817732D01*
X735182Y819227D01*
X733350Y820285D01*
X731307Y820832D01*
D02*
G37*
G36*
X712324Y808640D02*
X710076D01*
X707904Y808058D01*
X706087Y807009D01*
X711200Y801896D01*
X716313Y807009D01*
X714496Y808058D01*
X712324Y808640D01*
D02*
G37*
G36*
X892324D02*
X890076D01*
X887904Y808058D01*
X886087Y807009D01*
X891200Y801896D01*
X896313Y807009D01*
X894496Y808058D01*
X892324Y808640D01*
D02*
G37*
G36*
X704291Y805213D02*
X703242Y803396D01*
X702660Y801224D01*
Y798976D01*
X703242Y796804D01*
X704291Y794987D01*
X709404Y800100D01*
X704291Y805213D01*
D02*
G37*
G36*
X718109D02*
X712996Y800100D01*
X718109Y794987D01*
X719158Y796804D01*
X719740Y798976D01*
Y801224D01*
X719158Y803396D01*
X718109Y805213D01*
D02*
G37*
G36*
X898109Y805213D02*
X892996Y800100D01*
X898109Y794987D01*
X899158Y796804D01*
X899740Y798976D01*
Y801224D01*
X899158Y803396D01*
X898109Y805213D01*
D02*
G37*
G36*
X884291Y805213D02*
X883242Y803396D01*
X882660Y801224D01*
Y798976D01*
X883242Y796804D01*
X884291Y794987D01*
X889404Y800100D01*
X884291Y805213D01*
D02*
G37*
G36*
X891200Y798304D02*
X886087Y793191D01*
X887904Y792142D01*
X890076Y791560D01*
X892324D01*
X894496Y792142D01*
X896313Y793191D01*
X891200Y798304D01*
D02*
G37*
G36*
X711200Y798304D02*
X706087Y793191D01*
X707904Y792142D01*
X710076Y791560D01*
X712324D01*
X714496Y792142D01*
X716313Y793191D01*
X711200Y798304D01*
D02*
G37*
G36*
X731374Y795940D02*
X729126D01*
X726954Y795358D01*
X725137Y794309D01*
X730250Y789196D01*
X735363Y794309D01*
X733546Y795358D01*
X731374Y795940D01*
D02*
G37*
G36*
X911374D02*
X909126D01*
X906954Y795358D01*
X905137Y794309D01*
X910250Y789196D01*
X915363Y794309D01*
X913546Y795358D01*
X911374Y795940D01*
D02*
G37*
G36*
X723341Y792513D02*
X722292Y790696D01*
X721710Y788524D01*
Y786276D01*
X722292Y784104D01*
X723341Y782287D01*
X728454Y787400D01*
X723341Y792513D01*
D02*
G37*
G36*
X737159D02*
X732046Y787400D01*
X737159Y782287D01*
X738208Y784104D01*
X738790Y786276D01*
Y788524D01*
X738208Y790696D01*
X737159Y792513D01*
D02*
G37*
G36*
X917159Y792513D02*
X912046Y787400D01*
X917159Y782287D01*
X918208Y784104D01*
X918790Y786276D01*
Y788524D01*
X918208Y790696D01*
X917159Y792513D01*
D02*
G37*
G36*
X903341Y792513D02*
X902292Y790696D01*
X901710Y788524D01*
Y786276D01*
X902292Y784104D01*
X903341Y782287D01*
X908454Y787400D01*
X903341Y792513D01*
D02*
G37*
G36*
X910250Y785604D02*
X905137Y780491D01*
X906954Y779442D01*
X909126Y778860D01*
X911374D01*
X913546Y779442D01*
X915363Y780491D01*
X910250Y785604D01*
D02*
G37*
G36*
X730250Y785604D02*
X725137Y780491D01*
X726954Y779442D01*
X729126Y778860D01*
X731374D01*
X733546Y779442D01*
X735363Y780491D01*
X730250Y785604D01*
D02*
G37*
G36*
X712324Y783240D02*
X710076D01*
X707904Y782658D01*
X706087Y781609D01*
X711200Y776496D01*
X716313Y781609D01*
X714496Y782658D01*
X712324Y783240D01*
D02*
G37*
G36*
X892324D02*
X890076D01*
X887904Y782658D01*
X886087Y781609D01*
X891200Y776496D01*
X896313Y781609D01*
X894496Y782658D01*
X892324Y783240D01*
D02*
G37*
G36*
X704291Y779813D02*
X703242Y777996D01*
X702660Y775824D01*
Y773576D01*
X703242Y771404D01*
X704291Y769587D01*
X709404Y774700D01*
X704291Y779813D01*
D02*
G37*
G36*
X718109D02*
X712996Y774700D01*
X718109Y769587D01*
X719158Y771404D01*
X719740Y773576D01*
Y775824D01*
X719158Y777996D01*
X718109Y779813D01*
D02*
G37*
G36*
X898109Y779813D02*
X892996Y774700D01*
X898109Y769587D01*
X899158Y771404D01*
X899740Y773576D01*
Y775824D01*
X899158Y777996D01*
X898109Y779813D01*
D02*
G37*
G36*
X884291Y779813D02*
X883242Y777996D01*
X882660Y775824D01*
Y773576D01*
X883242Y771404D01*
X884291Y769587D01*
X889404Y774700D01*
X884291Y779813D01*
D02*
G37*
G36*
X891200Y772904D02*
X886087Y767791D01*
X887904Y766742D01*
X890076Y766160D01*
X892324D01*
X894496Y766742D01*
X896313Y767791D01*
X891200Y772904D01*
D02*
G37*
G36*
X711200Y772904D02*
X706087Y767791D01*
X707904Y766742D01*
X710076Y766160D01*
X712324D01*
X714496Y766742D01*
X716313Y767791D01*
X711200Y772904D01*
D02*
G37*
G36*
X911307Y770032D02*
X909193D01*
X907150Y769485D01*
X905318Y768427D01*
X903823Y766932D01*
X902765Y765100D01*
X902218Y763057D01*
Y760943D01*
X902765Y758900D01*
X903823Y757068D01*
X905318Y755573D01*
X907150Y754515D01*
X909193Y753968D01*
X911307D01*
X913350Y754515D01*
X915182Y755573D01*
X916677Y757068D01*
X917735Y758900D01*
X918282Y760943D01*
Y763057D01*
X917735Y765100D01*
X916677Y766932D01*
X915182Y768427D01*
X913350Y769485D01*
X911307Y770032D01*
D02*
G37*
G36*
X731307D02*
X729193D01*
X727150Y769485D01*
X725318Y768427D01*
X723823Y766932D01*
X722765Y765100D01*
X722218Y763057D01*
Y760943D01*
X722765Y758900D01*
X723823Y757068D01*
X725318Y755573D01*
X727150Y754515D01*
X729193Y753968D01*
X731307D01*
X733350Y754515D01*
X735182Y755573D01*
X736677Y757068D01*
X737735Y758900D01*
X738282Y760943D01*
Y763057D01*
X737735Y765100D01*
X736677Y766932D01*
X735182Y768427D01*
X733350Y769485D01*
X731307Y770032D01*
D02*
G37*
G36*
X892257Y757332D02*
X890143D01*
X888100Y756785D01*
X886268Y755727D01*
X884773Y754232D01*
X883715Y752400D01*
X883168Y750357D01*
Y748243D01*
X883715Y746200D01*
X884773Y744368D01*
X886268Y742873D01*
X888100Y741815D01*
X890143Y741268D01*
X892257D01*
X894300Y741815D01*
X896132Y742873D01*
X897627Y744368D01*
X898685Y746200D01*
X899232Y748243D01*
Y750357D01*
X898685Y752400D01*
X897627Y754232D01*
X896132Y755727D01*
X894300Y756785D01*
X892257Y757332D01*
D02*
G37*
G36*
X712257D02*
X710143D01*
X708100Y756785D01*
X706268Y755727D01*
X704773Y754232D01*
X703715Y752400D01*
X703168Y750357D01*
Y748243D01*
X703715Y746200D01*
X704773Y744368D01*
X706268Y742873D01*
X708100Y741815D01*
X710143Y741268D01*
X712257D01*
X714300Y741815D01*
X716132Y742873D01*
X717627Y744368D01*
X718685Y746200D01*
X719232Y748243D01*
Y750357D01*
X718685Y752400D01*
X717627Y754232D01*
X716132Y755727D01*
X714300Y756785D01*
X712257Y757332D01*
D02*
G37*
G36*
X911307Y744632D02*
X909193D01*
X907150Y744085D01*
X905318Y743027D01*
X903823Y741532D01*
X902765Y739700D01*
X902218Y737657D01*
Y735543D01*
X902765Y733500D01*
X903823Y731668D01*
X905318Y730173D01*
X907150Y729115D01*
X909193Y728568D01*
X911307D01*
X913350Y729115D01*
X915182Y730173D01*
X916677Y731668D01*
X917735Y733500D01*
X918282Y735543D01*
Y737657D01*
X917735Y739700D01*
X916677Y741532D01*
X915182Y743027D01*
X913350Y744085D01*
X911307Y744632D01*
D02*
G37*
G36*
X731307D02*
X729193D01*
X727150Y744085D01*
X725318Y743027D01*
X723823Y741532D01*
X722765Y739700D01*
X722218Y737657D01*
Y735543D01*
X722765Y733500D01*
X723823Y731668D01*
X725318Y730173D01*
X727150Y729115D01*
X729193Y728568D01*
X731307D01*
X733350Y729115D01*
X735182Y730173D01*
X736677Y731668D01*
X737735Y733500D01*
X738282Y735543D01*
Y737657D01*
X737735Y739700D01*
X736677Y741532D01*
X735182Y743027D01*
X733350Y744085D01*
X731307Y744632D01*
D02*
G37*
G36*
X712324Y681640D02*
X710076D01*
X707904Y681058D01*
X706087Y680009D01*
X711200Y674896D01*
X716313Y680009D01*
X714496Y681058D01*
X712324Y681640D01*
D02*
G37*
G36*
X892324D02*
X890076D01*
X887904Y681058D01*
X886087Y680009D01*
X891200Y674896D01*
X896313Y680009D01*
X894496Y681058D01*
X892324Y681640D01*
D02*
G37*
G36*
X704291Y678213D02*
X703242Y676396D01*
X702660Y674224D01*
Y671976D01*
X703242Y669804D01*
X704291Y667987D01*
X709404Y673100D01*
X704291Y678213D01*
D02*
G37*
G36*
X718109D02*
X712996Y673100D01*
X718109Y667987D01*
X719158Y669804D01*
X719740Y671976D01*
Y674224D01*
X719158Y676396D01*
X718109Y678213D01*
D02*
G37*
G36*
X898109Y678213D02*
X892996Y673100D01*
X898109Y667987D01*
X899158Y669804D01*
X899740Y671976D01*
Y674224D01*
X899158Y676396D01*
X898109Y678213D01*
D02*
G37*
G36*
X884291Y678213D02*
X883242Y676396D01*
X882660Y674224D01*
Y671976D01*
X883242Y669804D01*
X884291Y667987D01*
X889404Y673100D01*
X884291Y678213D01*
D02*
G37*
G36*
X891200Y671304D02*
X886087Y666191D01*
X887904Y665142D01*
X890076Y664560D01*
X892324D01*
X894496Y665142D01*
X896313Y666191D01*
X891200Y671304D01*
D02*
G37*
G36*
X711200Y671304D02*
X706087Y666191D01*
X707904Y665142D01*
X710076Y664560D01*
X712324D01*
X714496Y665142D01*
X716313Y666191D01*
X711200Y671304D01*
D02*
G37*
G36*
X911307Y668442D02*
X909193D01*
X907150Y667895D01*
X905318Y666837D01*
X903823Y665342D01*
X902765Y663510D01*
X902218Y661467D01*
Y659353D01*
X902765Y657310D01*
X903823Y655478D01*
X905318Y653983D01*
X907150Y652925D01*
X909193Y652378D01*
X911307D01*
X913350Y652925D01*
X915182Y653983D01*
X916677Y655478D01*
X917735Y657310D01*
X918282Y659353D01*
Y661467D01*
X917735Y663510D01*
X916677Y665342D01*
X915182Y666837D01*
X913350Y667895D01*
X911307Y668442D01*
D02*
G37*
G36*
X731307D02*
X729193D01*
X727150Y667895D01*
X725318Y666837D01*
X723823Y665342D01*
X722765Y663510D01*
X722218Y661467D01*
Y659353D01*
X722765Y657310D01*
X723823Y655478D01*
X725318Y653983D01*
X727150Y652925D01*
X729193Y652378D01*
X731307D01*
X733350Y652925D01*
X735182Y653983D01*
X736677Y655478D01*
X737735Y657310D01*
X738282Y659353D01*
Y661467D01*
X737735Y663510D01*
X736677Y665342D01*
X735182Y666837D01*
X733350Y667895D01*
X731307Y668442D01*
D02*
G37*
G36*
X892257Y655732D02*
X890143D01*
X888100Y655185D01*
X886268Y654127D01*
X884773Y652632D01*
X883715Y650800D01*
X883168Y648757D01*
Y646643D01*
X883715Y644600D01*
X884773Y642768D01*
X886268Y641273D01*
X888100Y640215D01*
X890143Y639668D01*
X892257D01*
X894300Y640215D01*
X896132Y641273D01*
X897627Y642768D01*
X898685Y644600D01*
X899232Y646643D01*
Y648757D01*
X898685Y650800D01*
X897627Y652632D01*
X896132Y654127D01*
X894300Y655185D01*
X892257Y655732D01*
D02*
G37*
G36*
X712257D02*
X710143D01*
X708100Y655185D01*
X706268Y654127D01*
X704773Y652632D01*
X703715Y650800D01*
X703168Y648757D01*
Y646643D01*
X703715Y644600D01*
X704773Y642768D01*
X706268Y641273D01*
X708100Y640215D01*
X710143Y639668D01*
X712257D01*
X714300Y640215D01*
X716132Y641273D01*
X717627Y642768D01*
X718685Y644600D01*
X719232Y646643D01*
Y648757D01*
X718685Y650800D01*
X717627Y652632D01*
X716132Y654127D01*
X714300Y655185D01*
X712257Y655732D01*
D02*
G37*
G36*
X731374Y643540D02*
X729126D01*
X726954Y642958D01*
X725137Y641909D01*
X730250Y636796D01*
X735363Y641909D01*
X733546Y642958D01*
X731374Y643540D01*
D02*
G37*
G36*
X911374D02*
X909126D01*
X906954Y642958D01*
X905137Y641909D01*
X910250Y636796D01*
X915363Y641909D01*
X913546Y642958D01*
X911374Y643540D01*
D02*
G37*
G36*
X723341Y640113D02*
X722292Y638296D01*
X721710Y636124D01*
Y633876D01*
X722292Y631704D01*
X723341Y629887D01*
X728454Y635000D01*
X723341Y640113D01*
D02*
G37*
G36*
X737159D02*
X732046Y635000D01*
X737159Y629887D01*
X738208Y631704D01*
X738790Y633876D01*
Y636124D01*
X738208Y638296D01*
X737159Y640113D01*
D02*
G37*
G36*
X917159Y640113D02*
X912046Y635000D01*
X917159Y629887D01*
X918208Y631704D01*
X918790Y633876D01*
Y636124D01*
X918208Y638296D01*
X917159Y640113D01*
D02*
G37*
G36*
X903341Y640113D02*
X902292Y638296D01*
X901710Y636124D01*
Y633876D01*
X902292Y631704D01*
X903341Y629887D01*
X908454Y635000D01*
X903341Y640113D01*
D02*
G37*
G36*
X910250Y633204D02*
X905137Y628091D01*
X906954Y627042D01*
X909126Y626460D01*
X911374D01*
X913546Y627042D01*
X915363Y628091D01*
X910250Y633204D01*
D02*
G37*
G36*
X730250Y633204D02*
X725137Y628091D01*
X726954Y627042D01*
X729126Y626460D01*
X731374D01*
X733546Y627042D01*
X735363Y628091D01*
X730250Y633204D01*
D02*
G37*
G36*
X892257Y630332D02*
X890143D01*
X888100Y629785D01*
X886268Y628727D01*
X884773Y627232D01*
X883715Y625400D01*
X883168Y623357D01*
Y621243D01*
X883715Y619200D01*
X884773Y617368D01*
X886268Y615873D01*
X888100Y614815D01*
X890143Y614268D01*
X892257D01*
X894300Y614815D01*
X896132Y615873D01*
X897627Y617368D01*
X898685Y619200D01*
X899232Y621243D01*
Y623357D01*
X898685Y625400D01*
X897627Y627232D01*
X896132Y628727D01*
X894300Y629785D01*
X892257Y630332D01*
D02*
G37*
G36*
X712257D02*
X710143D01*
X708100Y629785D01*
X706268Y628727D01*
X704773Y627232D01*
X703715Y625400D01*
X703168Y623357D01*
Y621243D01*
X703715Y619200D01*
X704773Y617368D01*
X706268Y615873D01*
X708100Y614815D01*
X710143Y614268D01*
X712257D01*
X714300Y614815D01*
X716132Y615873D01*
X717627Y617368D01*
X718685Y619200D01*
X719232Y621243D01*
Y623357D01*
X718685Y625400D01*
X717627Y627232D01*
X716132Y628727D01*
X714300Y629785D01*
X712257Y630332D01*
D02*
G37*
G36*
X911307Y617632D02*
X909193D01*
X907150Y617085D01*
X905318Y616027D01*
X903823Y614532D01*
X902765Y612700D01*
X902218Y610657D01*
Y608543D01*
X902765Y606500D01*
X903823Y604668D01*
X905318Y603173D01*
X907150Y602115D01*
X909193Y601568D01*
X911307D01*
X913350Y602115D01*
X915182Y603173D01*
X916677Y604668D01*
X917735Y606500D01*
X918282Y608543D01*
Y610657D01*
X917735Y612700D01*
X916677Y614532D01*
X915182Y616027D01*
X913350Y617085D01*
X911307Y617632D01*
D02*
G37*
G36*
X731307D02*
X729193D01*
X727150Y617085D01*
X725318Y616027D01*
X723823Y614532D01*
X722765Y612700D01*
X722218Y610657D01*
Y608543D01*
X722765Y606500D01*
X723823Y604668D01*
X725318Y603173D01*
X727150Y602115D01*
X729193Y601568D01*
X731307D01*
X733350Y602115D01*
X735182Y603173D01*
X736677Y604668D01*
X737735Y606500D01*
X738282Y608543D01*
Y610657D01*
X737735Y612700D01*
X736677Y614532D01*
X735182Y616027D01*
X733350Y617085D01*
X731307Y617632D01*
D02*
G37*
G36*
X712324Y605440D02*
X710076D01*
X707904Y604858D01*
X706087Y603809D01*
X711200Y598696D01*
X716313Y603809D01*
X714496Y604858D01*
X712324Y605440D01*
D02*
G37*
G36*
X892324D02*
X890076D01*
X887904Y604858D01*
X886087Y603809D01*
X891200Y598696D01*
X896313Y603809D01*
X894496Y604858D01*
X892324Y605440D01*
D02*
G37*
G36*
X704291Y602013D02*
X703242Y600196D01*
X702660Y598024D01*
Y595776D01*
X703242Y593604D01*
X704291Y591787D01*
X709404Y596900D01*
X704291Y602013D01*
D02*
G37*
G36*
X718109D02*
X712996Y596900D01*
X718109Y591787D01*
X719158Y593604D01*
X719740Y595776D01*
Y598024D01*
X719158Y600196D01*
X718109Y602013D01*
D02*
G37*
G36*
X898109Y602013D02*
X892996Y596900D01*
X898109Y591787D01*
X899158Y593604D01*
X899740Y595776D01*
Y598024D01*
X899158Y600196D01*
X898109Y602013D01*
D02*
G37*
G36*
X884291Y602013D02*
X883242Y600196D01*
X882660Y598024D01*
Y595776D01*
X883242Y593604D01*
X884291Y591787D01*
X889404Y596900D01*
X884291Y602013D01*
D02*
G37*
G36*
X891200Y595104D02*
X886087Y589991D01*
X887904Y588942D01*
X890076Y588360D01*
X892324D01*
X894496Y588942D01*
X896313Y589991D01*
X891200Y595104D01*
D02*
G37*
G36*
X711200Y595104D02*
X706087Y589991D01*
X707904Y588942D01*
X710076Y588360D01*
X712324D01*
X714496Y588942D01*
X716313Y589991D01*
X711200Y595104D01*
D02*
G37*
G36*
X911780Y577432D02*
X908740D01*
X905759Y576839D01*
X902950Y575676D01*
X900423Y573987D01*
X898273Y571837D01*
X896584Y569310D01*
X895421Y566501D01*
X894828Y563520D01*
Y560480D01*
X895421Y557499D01*
X896584Y554690D01*
X898273Y552163D01*
X900423Y550013D01*
X902950Y548324D01*
X905759Y547161D01*
X908740Y546568D01*
X911780D01*
X914761Y547161D01*
X917570Y548324D01*
X920097Y550013D01*
X922247Y552163D01*
X923936Y554690D01*
X925099Y557499D01*
X925692Y560480D01*
Y563520D01*
X925099Y566501D01*
X923936Y569310D01*
X922247Y571837D01*
X920097Y573987D01*
X917570Y575676D01*
X914761Y576839D01*
X911780Y577432D01*
D02*
G37*
G36*
X731780D02*
X728740D01*
X725759Y576839D01*
X722950Y575676D01*
X720423Y573987D01*
X718273Y571837D01*
X716584Y569310D01*
X715421Y566501D01*
X714828Y563520D01*
Y560480D01*
X715421Y557499D01*
X716584Y554690D01*
X718273Y552163D01*
X720423Y550013D01*
X722950Y548324D01*
X725759Y547161D01*
X728740Y546568D01*
X731780D01*
X734761Y547161D01*
X737570Y548324D01*
X740097Y550013D01*
X742247Y552163D01*
X743936Y554690D01*
X745099Y557499D01*
X745692Y560480D01*
Y563520D01*
X745099Y566501D01*
X743936Y569310D01*
X742247Y571837D01*
X740097Y573987D01*
X737570Y575676D01*
X734761Y576839D01*
X731780Y577432D01*
D02*
G37*
G36*
X857112Y483588D02*
X854889D01*
X852993Y482803D01*
X856000Y479796D01*
X859007Y482803D01*
X857112Y483588D01*
D02*
G37*
G36*
X882650Y487154D02*
X876449Y480953D01*
X876485Y480916D01*
X878775Y479594D01*
X881328Y478910D01*
X883972D01*
X886525Y479594D01*
X888815Y480916D01*
X888851Y480953D01*
X882650Y487154D01*
D02*
G37*
G36*
X908050D02*
X900842Y479946D01*
X901846Y479275D01*
X904300Y478787D01*
X911800D01*
X914254Y479275D01*
X915258Y479946D01*
X908050Y487154D01*
D02*
G37*
G36*
X860803Y481007D02*
X857796Y478000D01*
X860803Y474993D01*
X861588Y476889D01*
Y479112D01*
X860803Y481007D01*
D02*
G37*
G36*
X851197Y481007D02*
X850412Y479112D01*
Y476889D01*
X851197Y474993D01*
X854204Y478000D01*
X851197Y481007D01*
D02*
G37*
G36*
X856000Y476204D02*
X852993Y473197D01*
X854889Y472412D01*
X857112D01*
X859007Y473197D01*
X856000Y476204D01*
D02*
G37*
G36*
X921112Y447588D02*
X918888D01*
X916993Y446803D01*
X920000Y443796D01*
X923007Y446803D01*
X921112Y447588D01*
D02*
G37*
G36*
X959111D02*
X956889D01*
X954993Y446803D01*
X958000Y443796D01*
X961007Y446803D01*
X959111Y447588D01*
D02*
G37*
G36*
X883111D02*
X880889D01*
X878993Y446803D01*
X882000Y443796D01*
X885007Y446803D01*
X883111Y447588D01*
D02*
G37*
G36*
X781112D02*
X778888D01*
X776993Y446803D01*
X780000Y443796D01*
X783007Y446803D01*
X781112Y447588D01*
D02*
G37*
G36*
X743111D02*
X740889D01*
X738993Y446803D01*
X742000Y443796D01*
X745007Y446803D01*
X743111Y447588D01*
D02*
G37*
G36*
X705111D02*
X702888D01*
X700993Y446803D01*
X704000Y443796D01*
X707007Y446803D01*
X705111Y447588D01*
D02*
G37*
G36*
X962803Y445007D02*
X959796Y442000D01*
X962803Y438993D01*
X963588Y440888D01*
Y443111D01*
X962803Y445007D01*
D02*
G37*
G36*
X924803D02*
X921796Y442000D01*
X924803Y438993D01*
X925588Y440888D01*
Y443111D01*
X924803Y445007D01*
D02*
G37*
G36*
X886803D02*
X883796Y442000D01*
X886803Y438993D01*
X887588Y440888D01*
Y443111D01*
X886803Y445007D01*
D02*
G37*
G36*
X784803D02*
X781796Y442000D01*
X784803Y438993D01*
X785588Y440888D01*
Y443111D01*
X784803Y445007D01*
D02*
G37*
G36*
X746803D02*
X743796Y442000D01*
X746803Y438993D01*
X747588Y440888D01*
Y443111D01*
X746803Y445007D01*
D02*
G37*
G36*
X708803D02*
X705796Y442000D01*
X708803Y438993D01*
X709588Y440888D01*
Y443111D01*
X708803Y445007D01*
D02*
G37*
G36*
X953197Y445007D02*
X952412Y443111D01*
Y440888D01*
X953197Y438993D01*
X956204Y442000D01*
X953197Y445007D01*
D02*
G37*
G36*
X915197D02*
X914412Y443111D01*
Y440888D01*
X915197Y438993D01*
X918204Y442000D01*
X915197Y445007D01*
D02*
G37*
G36*
X877197D02*
X876412Y443111D01*
Y440888D01*
X877197Y438993D01*
X880204Y442000D01*
X877197Y445007D01*
D02*
G37*
G36*
X775197D02*
X774412Y443111D01*
Y440888D01*
X775197Y438993D01*
X778204Y442000D01*
X775197Y445007D01*
D02*
G37*
G36*
X737197D02*
X736412Y443111D01*
Y440888D01*
X737197Y438993D01*
X740204Y442000D01*
X737197Y445007D01*
D02*
G37*
G36*
X699197D02*
X698412Y443111D01*
Y440888D01*
X699197Y438993D01*
X702204Y442000D01*
X699197Y445007D01*
D02*
G37*
G36*
X958000Y440204D02*
X954993Y437197D01*
X956889Y436412D01*
X959111D01*
X961007Y437197D01*
X958000Y440204D01*
D02*
G37*
G36*
X920000D02*
X916993Y437197D01*
X918888Y436412D01*
X921112D01*
X923007Y437197D01*
X920000Y440204D01*
D02*
G37*
G36*
X882000D02*
X878993Y437197D01*
X880889Y436412D01*
X883111D01*
X885007Y437197D01*
X882000Y440204D01*
D02*
G37*
G36*
X780000D02*
X776993Y437197D01*
X778888Y436412D01*
X781112D01*
X783007Y437197D01*
X780000Y440204D01*
D02*
G37*
G36*
X742000D02*
X738993Y437197D01*
X740889Y436412D01*
X743111D01*
X745007Y437197D01*
X742000Y440204D01*
D02*
G37*
G36*
X704000D02*
X700993Y437197D01*
X702888Y436412D01*
X705111D01*
X707007Y437197D01*
X704000Y440204D01*
D02*
G37*
G36*
X858934Y444590D02*
X855566D01*
X852313Y443718D01*
X849397Y442034D01*
X849104Y441742D01*
X857250Y433596D01*
X865396Y441742D01*
X865103Y442034D01*
X862187Y443718D01*
X858934Y444590D01*
D02*
G37*
G36*
X681134D02*
X677766D01*
X674513Y443718D01*
X671597Y442034D01*
X671304Y441742D01*
X679450Y433596D01*
X687596Y441742D01*
X687303Y442034D01*
X684387Y443718D01*
X681134Y444590D01*
D02*
G37*
G36*
X847308Y439946D02*
X847016Y439653D01*
X845332Y436737D01*
X844460Y433484D01*
Y430116D01*
X845332Y426863D01*
X847016Y423947D01*
X847308Y423654D01*
X855454Y431800D01*
X847308Y439946D01*
D02*
G37*
G36*
X669508D02*
X669215Y439653D01*
X667532Y436737D01*
X666660Y433484D01*
Y430116D01*
X667532Y426863D01*
X669215Y423947D01*
X669508Y423654D01*
X677654Y431800D01*
X669508Y439946D01*
D02*
G37*
G36*
X867192D02*
X859046Y431800D01*
X867192Y423654D01*
X867485Y423947D01*
X869168Y426863D01*
X870040Y430116D01*
Y433484D01*
X869168Y436737D01*
X867485Y439653D01*
X867192Y439946D01*
D02*
G37*
G36*
X689392D02*
X681246Y431800D01*
X689392Y423654D01*
X689685Y423947D01*
X691368Y426863D01*
X692240Y430116D01*
Y433484D01*
X691368Y436737D01*
X689685Y439653D01*
X689392Y439946D01*
D02*
G37*
G36*
X809434Y434590D02*
X806066D01*
X802813Y433718D01*
X799897Y432034D01*
X799604Y431742D01*
X807750Y423596D01*
X815896Y431742D01*
X815603Y432034D01*
X812687Y433718D01*
X809434Y434590D01*
D02*
G37*
G36*
X987234D02*
X983866D01*
X980613Y433718D01*
X977697Y432034D01*
X977404Y431742D01*
X985550Y423596D01*
X993696Y431742D01*
X993403Y432034D01*
X990487Y433718D01*
X987234Y434590D01*
D02*
G37*
G36*
X857250Y430004D02*
X849104Y421858D01*
X849397Y421566D01*
X852313Y419882D01*
X855566Y419010D01*
X858934D01*
X862187Y419882D01*
X865103Y421566D01*
X865396Y421858D01*
X857250Y430004D01*
D02*
G37*
G36*
X679450D02*
X671304Y421858D01*
X671597Y421566D01*
X674513Y419882D01*
X677766Y419010D01*
X681134D01*
X684387Y419882D01*
X687303Y421566D01*
X687596Y421858D01*
X679450Y430004D01*
D02*
G37*
G36*
X797808Y429946D02*
X797515Y429653D01*
X795832Y426737D01*
X794960Y423484D01*
Y420116D01*
X795832Y416863D01*
X797515Y413947D01*
X797808Y413654D01*
X805954Y421800D01*
X797808Y429946D01*
D02*
G37*
G36*
X975608D02*
X975315Y429653D01*
X973632Y426737D01*
X972760Y423484D01*
Y420116D01*
X973632Y416863D01*
X975315Y413947D01*
X975608Y413654D01*
X983754Y421800D01*
X975608Y429946D01*
D02*
G37*
G36*
X995492Y429946D02*
X987346Y421800D01*
X995492Y413654D01*
X995785Y413947D01*
X997468Y416863D01*
X998340Y420116D01*
Y423484D01*
X997468Y426737D01*
X995785Y429653D01*
X995492Y429946D01*
D02*
G37*
G36*
X817692D02*
X809546Y421800D01*
X817692Y413654D01*
X817984Y413947D01*
X819668Y416863D01*
X820540Y420116D01*
Y423484D01*
X819668Y426737D01*
X817984Y429653D01*
X817692Y429946D01*
D02*
G37*
G36*
X985550Y420004D02*
X977404Y411858D01*
X977697Y411565D01*
X980613Y409882D01*
X983866Y409010D01*
X987234D01*
X990487Y409882D01*
X993403Y411565D01*
X993696Y411858D01*
X985550Y420004D01*
D02*
G37*
G36*
X807750D02*
X799604Y411858D01*
X799897Y411565D01*
X802813Y409882D01*
X806066Y409010D01*
X809434D01*
X812687Y409882D01*
X815603Y411565D01*
X815896Y411858D01*
X807750Y420004D01*
D02*
G37*
%LPD*%
G36*
X940000Y1056000D02*
Y1044796D01*
X936000D01*
X933725Y1044344D01*
X931795Y1043055D01*
X930506Y1041125D01*
X930054Y1038850D01*
Y1031250D01*
X930506Y1028975D01*
X931795Y1027045D01*
X933725Y1025756D01*
X936000Y1025304D01*
X940000D01*
Y890000D01*
X934000Y884000D01*
X918494D01*
X917859Y885100D01*
X918208Y885704D01*
X918790Y887876D01*
Y890124D01*
X918208Y892296D01*
X917159Y894113D01*
X911148Y888102D01*
X910250Y889000D01*
X909352Y888102D01*
X903341Y894113D01*
X902292Y892296D01*
X901710Y890124D01*
Y887876D01*
X902292Y885704D01*
X902641Y885100D01*
X902006Y884000D01*
X893534D01*
X892257Y884342D01*
X890143D01*
X888866Y884000D01*
X859059D01*
Y905479D01*
X859059Y905479D01*
X859059Y907980D01*
X859000Y908276D01*
Y908577D01*
X858024Y913485D01*
X857909Y913763D01*
X857850Y914058D01*
X855935Y918681D01*
X855768Y918932D01*
X855653Y919210D01*
X852873Y923370D01*
X852660Y923583D01*
X852492Y923834D01*
X850723Y925602D01*
X848891Y927435D01*
X848890Y927435D01*
X847856Y928470D01*
X847729Y928554D01*
X847633Y928672D01*
X845370Y930529D01*
X845236Y930601D01*
X845129Y930708D01*
X842695Y932335D01*
X842554Y932393D01*
X842437Y932489D01*
X839855Y933869D01*
X839710Y933913D01*
X839584Y933998D01*
X836879Y935118D01*
X836730Y935148D01*
X836596Y935219D01*
X833794Y936069D01*
X833643Y936084D01*
X833503Y936142D01*
X830631Y936713D01*
X830480D01*
X830335Y936757D01*
X827421Y937044D01*
X827270Y937029D01*
X827121Y937059D01*
X825657Y937059D01*
X825657Y937059D01*
X824275Y937059D01*
X824126Y937029D01*
X823975Y937044D01*
X821223Y936773D01*
X821078Y936729D01*
X820926D01*
X818214Y936190D01*
X818074Y936132D01*
X817923Y936117D01*
X815277Y935314D01*
X815143Y935243D01*
X814995Y935213D01*
X812440Y934155D01*
X812314Y934071D01*
X812169Y934027D01*
X809730Y932723D01*
X809613Y932627D01*
X809473Y932569D01*
X807173Y931033D01*
X807066Y930925D01*
X806932Y930854D01*
X804795Y929100D01*
X804698Y928982D01*
X804572Y928898D01*
X803595Y927921D01*
X801277Y925602D01*
X801276Y925602D01*
X799508Y923833D01*
X799340Y923583D01*
X799127Y923370D01*
X796348Y919210D01*
X796232Y918931D01*
X796065Y918681D01*
X794150Y914058D01*
X794091Y913763D01*
X793976Y913484D01*
X793000Y908577D01*
Y908276D01*
X792941Y907981D01*
Y905479D01*
Y884000D01*
X790000D01*
X784000Y878000D01*
Y606000D01*
X792941Y597059D01*
Y579622D01*
X793000Y579327D01*
Y579025D01*
X793928Y574361D01*
X794043Y574083D01*
X794102Y573787D01*
X795922Y569394D01*
X796089Y569143D01*
X796204Y568865D01*
X798847Y564911D01*
X799060Y564698D01*
X799227Y564447D01*
X800908Y562766D01*
X800908Y562766D01*
X803594Y560080D01*
X803594Y560080D01*
X803595Y560080D01*
X804572Y559102D01*
X804698Y559018D01*
X804794Y558901D01*
X806932Y557146D01*
X807066Y557075D01*
X807173Y556968D01*
X809472Y555431D01*
X809612Y555373D01*
X809730Y555277D01*
X812168Y553974D01*
X812313Y553930D01*
X812439Y553845D01*
X814994Y552787D01*
X815143Y552758D01*
X815277Y552686D01*
X817923Y551883D01*
X818074Y551869D01*
X818214Y551810D01*
X820926Y551271D01*
X821077D01*
X821223Y551227D01*
X823974Y550956D01*
X824125Y550971D01*
X824274Y550941D01*
X825657Y550941D01*
X828043D01*
X828043Y550941D01*
X828169Y550966D01*
X828296Y550952D01*
X829772Y551074D01*
X829918Y551116D01*
X830069Y551113D01*
X832983Y551646D01*
X833124Y551702D01*
X833276Y551714D01*
X836124Y552530D01*
X836258Y552599D01*
X836408Y552627D01*
X837099Y552901D01*
X860000Y530000D01*
X922000D01*
X928000Y524000D01*
Y504000D01*
X922000Y498000D01*
X914275D01*
X914056Y498147D01*
X911800Y498595D01*
X904300D01*
X902044Y498147D01*
X901825Y498000D01*
X885704D01*
X883905Y498482D01*
X881395D01*
X879596Y498000D01*
X860000D01*
X828000Y466000D01*
X680000D01*
X668000Y478000D01*
Y526000D01*
X682000Y540000D01*
X740000D01*
X752000Y552000D01*
Y878000D01*
X746000Y884000D01*
X738494D01*
X737859Y885100D01*
X738208Y885704D01*
X738790Y887876D01*
Y890124D01*
X738208Y892296D01*
X737159Y894113D01*
X731148Y888102D01*
X730250Y889000D01*
X729352Y888102D01*
X723341Y894113D01*
X722292Y892296D01*
X721710Y890124D01*
Y887876D01*
X722292Y885704D01*
X722641Y885100D01*
X722006Y884000D01*
X713534D01*
X712257Y884342D01*
X710143D01*
X708866Y884000D01*
X702000D01*
X696000Y890000D01*
Y972000D01*
X716000Y992000D01*
Y1056000D01*
X722000Y1062000D01*
X934000D01*
X940000Y1056000D01*
D02*
G37*
G36*
X792941Y601648D02*
X791768Y601162D01*
X786072Y606858D01*
Y877142D01*
X790858Y881928D01*
X792941D01*
Y601648D01*
D02*
G37*
%LPC*%
G36*
X863010Y1049080D02*
X860990D01*
X859122Y1048307D01*
X857693Y1046878D01*
X856920Y1045011D01*
Y1042990D01*
X857693Y1041122D01*
X859122Y1039693D01*
X860990Y1038920D01*
X863010D01*
X864878Y1039693D01*
X866307Y1041122D01*
X867080Y1042990D01*
Y1045011D01*
X866307Y1046878D01*
X864878Y1048307D01*
X863010Y1049080D01*
D02*
G37*
G36*
X915735Y1045190D02*
X913065D01*
X910486Y1044499D01*
X908174Y1043164D01*
X908128Y1043118D01*
X914400Y1036846D01*
X920672Y1043118D01*
X920626Y1043164D01*
X918314Y1044499D01*
X915735Y1045190D01*
D02*
G37*
G36*
X731585D02*
X728915D01*
X726336Y1044499D01*
X724024Y1043164D01*
X723978Y1043118D01*
X730250Y1036846D01*
X736522Y1043118D01*
X736476Y1043164D01*
X734164Y1044499D01*
X731585Y1045190D01*
D02*
G37*
G36*
X906332Y1041322D02*
X906286Y1041276D01*
X904951Y1038964D01*
X904260Y1036385D01*
Y1033715D01*
X904951Y1031136D01*
X906286Y1028824D01*
X906332Y1028778D01*
X912604Y1035050D01*
X906332Y1041322D01*
D02*
G37*
G36*
X722182D02*
X722136Y1041276D01*
X720801Y1038964D01*
X720110Y1036385D01*
Y1033715D01*
X720801Y1031136D01*
X722136Y1028824D01*
X722182Y1028778D01*
X728454Y1035050D01*
X722182Y1041322D01*
D02*
G37*
G36*
X738318Y1041322D02*
X732046Y1035050D01*
X738318Y1028778D01*
X738364Y1028824D01*
X739699Y1031136D01*
X740390Y1033715D01*
Y1036385D01*
X739699Y1038964D01*
X738364Y1041276D01*
X738318Y1041322D01*
D02*
G37*
G36*
X922468D02*
X916196Y1035050D01*
X922468Y1028778D01*
X922514Y1028824D01*
X923849Y1031136D01*
X924540Y1033715D01*
Y1036385D01*
X923849Y1038964D01*
X922514Y1041276D01*
X922468Y1041322D01*
D02*
G37*
G36*
X890268Y1044682D02*
X887732D01*
X885282Y1044026D01*
X883086Y1042757D01*
X881292Y1040964D01*
X880024Y1038768D01*
X879368Y1036318D01*
Y1033782D01*
X880024Y1031332D01*
X881292Y1029136D01*
X883086Y1027343D01*
X885282Y1026074D01*
X887732Y1025418D01*
X890268D01*
X892718Y1026074D01*
X894914Y1027343D01*
X896708Y1029136D01*
X897976Y1031332D01*
X898632Y1033782D01*
Y1036318D01*
X897976Y1038768D01*
X896708Y1040964D01*
X894914Y1042757D01*
X892718Y1044026D01*
X890268Y1044682D01*
D02*
G37*
G36*
X807718D02*
X805182D01*
X802732Y1044026D01*
X800536Y1042757D01*
X798743Y1040964D01*
X797474Y1038768D01*
X796818Y1036318D01*
Y1033782D01*
X797474Y1031332D01*
X798743Y1029136D01*
X800536Y1027343D01*
X802732Y1026074D01*
X805182Y1025418D01*
X807718D01*
X810168Y1026074D01*
X812364Y1027343D01*
X814157Y1029136D01*
X815426Y1031332D01*
X816082Y1033782D01*
Y1036318D01*
X815426Y1038768D01*
X814157Y1040964D01*
X812364Y1042757D01*
X810168Y1044026D01*
X807718Y1044682D01*
D02*
G37*
G36*
X784850Y1044796D02*
X777250D01*
X774975Y1044344D01*
X773045Y1043055D01*
X771756Y1041125D01*
X771304Y1038850D01*
Y1031250D01*
X771756Y1028975D01*
X773045Y1027045D01*
X774975Y1025756D01*
X777250Y1025304D01*
X784850D01*
X787125Y1025756D01*
X789055Y1027045D01*
X790344Y1028975D01*
X790796Y1031250D01*
Y1038850D01*
X790344Y1041125D01*
X789055Y1043055D01*
X787125Y1044344D01*
X784850Y1044796D01*
D02*
G37*
G36*
X759450D02*
X751850D01*
X749575Y1044344D01*
X747645Y1043055D01*
X746356Y1041125D01*
X745904Y1038850D01*
Y1031250D01*
X746356Y1028975D01*
X747645Y1027045D01*
X749575Y1025756D01*
X751850Y1025304D01*
X759450D01*
X761725Y1025756D01*
X763655Y1027045D01*
X764944Y1028975D01*
X765396Y1031250D01*
Y1038850D01*
X764944Y1041125D01*
X763655Y1043055D01*
X761725Y1044344D01*
X759450Y1044796D01*
D02*
G37*
G36*
X914400Y1033254D02*
X908128Y1026982D01*
X908174Y1026936D01*
X910486Y1025601D01*
X913065Y1024910D01*
X915735D01*
X918314Y1025601D01*
X920626Y1026936D01*
X920672Y1026982D01*
X914400Y1033254D01*
D02*
G37*
G36*
X730250D02*
X723978Y1026982D01*
X724024Y1026936D01*
X726336Y1025601D01*
X728915Y1024910D01*
X731585D01*
X734164Y1025601D01*
X736476Y1026936D01*
X736522Y1026982D01*
X730250Y1033254D01*
D02*
G37*
G36*
X892800Y1019396D02*
X885200D01*
X882924Y1018944D01*
X880995Y1017655D01*
X879706Y1015725D01*
X879254Y1013450D01*
Y1005850D01*
X879706Y1003575D01*
X880995Y1001645D01*
X882924Y1000356D01*
X885200Y999904D01*
X892800D01*
X895076Y1000356D01*
X897005Y1001645D01*
X898294Y1003575D01*
X898746Y1005850D01*
Y1013450D01*
X898294Y1015725D01*
X897005Y1017655D01*
X895076Y1018944D01*
X892800Y1019396D01*
D02*
G37*
G36*
X865011Y973080D02*
X862990D01*
X861122Y972307D01*
X859693Y970878D01*
X858920Y969010D01*
Y966990D01*
X859693Y965122D01*
X861122Y963693D01*
X862990Y962920D01*
X865011D01*
X866878Y963693D01*
X868307Y965122D01*
X869080Y966990D01*
Y969010D01*
X868307Y970878D01*
X866878Y972307D01*
X865011Y973080D01*
D02*
G37*
G36*
X911780Y964732D02*
X908740D01*
X905759Y964139D01*
X902950Y962976D01*
X900423Y961287D01*
X898273Y959137D01*
X896584Y956610D01*
X895421Y953801D01*
X894828Y950820D01*
Y947780D01*
X895421Y944799D01*
X896584Y941990D01*
X898273Y939463D01*
X900423Y937313D01*
X902950Y935624D01*
X905759Y934461D01*
X908740Y933868D01*
X911780D01*
X914761Y934461D01*
X917570Y935624D01*
X920097Y937313D01*
X922247Y939463D01*
X923936Y941990D01*
X925099Y944799D01*
X925692Y947780D01*
Y950820D01*
X925099Y953801D01*
X923936Y956610D01*
X922247Y959137D01*
X920097Y961287D01*
X917570Y962976D01*
X914761Y964139D01*
X911780Y964732D01*
D02*
G37*
G36*
X731780D02*
X728740D01*
X725759Y964139D01*
X722950Y962976D01*
X720423Y961287D01*
X718273Y959137D01*
X716584Y956610D01*
X715421Y953801D01*
X714828Y950820D01*
Y947780D01*
X715421Y944799D01*
X716584Y941990D01*
X718273Y939463D01*
X720423Y937313D01*
X722950Y935624D01*
X725759Y934461D01*
X728740Y933868D01*
X731780D01*
X734761Y934461D01*
X737570Y935624D01*
X740097Y937313D01*
X742247Y939463D01*
X743936Y941990D01*
X745099Y944799D01*
X745692Y947780D01*
Y950820D01*
X745099Y953801D01*
X743936Y956610D01*
X742247Y959137D01*
X740097Y961287D01*
X737570Y962976D01*
X734761Y964139D01*
X731780Y964732D01*
D02*
G37*
G36*
X731374Y922940D02*
X729126D01*
X726954Y922358D01*
X725137Y921309D01*
X730250Y916196D01*
X735363Y921309D01*
X733546Y922358D01*
X731374Y922940D01*
D02*
G37*
G36*
X911374D02*
X909126D01*
X906954Y922358D01*
X905137Y921309D01*
X910250Y916196D01*
X915363Y921309D01*
X913546Y922358D01*
X911374Y922940D01*
D02*
G37*
G36*
X723341Y919513D02*
X722292Y917696D01*
X721710Y915524D01*
Y913276D01*
X722292Y911104D01*
X723341Y909287D01*
X728454Y914400D01*
X723341Y919513D01*
D02*
G37*
G36*
X737159D02*
X732046Y914400D01*
X737159Y909287D01*
X738208Y911104D01*
X738790Y913276D01*
Y915524D01*
X738208Y917696D01*
X737159Y919513D01*
D02*
G37*
G36*
X917159Y919513D02*
X912046Y914400D01*
X917159Y909287D01*
X918208Y911104D01*
X918790Y913276D01*
Y915524D01*
X918208Y917696D01*
X917159Y919513D01*
D02*
G37*
G36*
X903341Y919513D02*
X902292Y917696D01*
X901710Y915524D01*
Y913276D01*
X902292Y911104D01*
X903341Y909287D01*
X908454Y914400D01*
X903341Y919513D01*
D02*
G37*
G36*
X910250Y912604D02*
X905137Y907491D01*
X906954Y906442D01*
X909126Y905860D01*
X911374D01*
X913546Y906442D01*
X915363Y907491D01*
X910250Y912604D01*
D02*
G37*
G36*
X730250Y912604D02*
X725137Y907491D01*
X726954Y906442D01*
X729126Y905860D01*
X731374D01*
X733546Y906442D01*
X735363Y907491D01*
X730250Y912604D01*
D02*
G37*
G36*
X712324Y910240D02*
X710076D01*
X707904Y909658D01*
X706087Y908609D01*
X711200Y903496D01*
X716313Y908609D01*
X714496Y909658D01*
X712324Y910240D01*
D02*
G37*
G36*
X892324D02*
X890076D01*
X887904Y909658D01*
X886087Y908609D01*
X891200Y903496D01*
X896313Y908609D01*
X894496Y909658D01*
X892324Y910240D01*
D02*
G37*
G36*
X704291Y906813D02*
X703242Y904996D01*
X702660Y902824D01*
Y900576D01*
X703242Y898404D01*
X704291Y896587D01*
X709404Y901700D01*
X704291Y906813D01*
D02*
G37*
G36*
X718109D02*
X712996Y901700D01*
X718109Y896587D01*
X719158Y898404D01*
X719740Y900576D01*
Y902824D01*
X719158Y904996D01*
X718109Y906813D01*
D02*
G37*
G36*
X898109Y906813D02*
X892996Y901700D01*
X898109Y896587D01*
X899158Y898404D01*
X899740Y900576D01*
Y902824D01*
X899158Y904996D01*
X898109Y906813D01*
D02*
G37*
G36*
X884291Y906813D02*
X883242Y904996D01*
X882660Y902824D01*
Y900576D01*
X883242Y898404D01*
X884291Y896587D01*
X889404Y901700D01*
X884291Y906813D01*
D02*
G37*
G36*
X891200Y899904D02*
X886087Y894791D01*
X887904Y893742D01*
X890076Y893160D01*
X892324D01*
X894496Y893742D01*
X896313Y894791D01*
X891200Y899904D01*
D02*
G37*
G36*
X711200Y899904D02*
X706087Y894791D01*
X707904Y893742D01*
X710076Y893160D01*
X712324D01*
X714496Y893742D01*
X716313Y894791D01*
X711200Y899904D01*
D02*
G37*
G36*
X731374Y897540D02*
X729126D01*
X726954Y896958D01*
X725137Y895909D01*
X730250Y890796D01*
X735363Y895909D01*
X733546Y896958D01*
X731374Y897540D01*
D02*
G37*
G36*
X911374D02*
X909126D01*
X906954Y896958D01*
X905137Y895909D01*
X910250Y890796D01*
X915363Y895909D01*
X913546Y896958D01*
X911374Y897540D01*
D02*
G37*
G36*
X909372Y524390D02*
X906728D01*
X904175Y523706D01*
X901885Y522384D01*
X901849Y522347D01*
X908050Y516146D01*
X914251Y522347D01*
X914215Y522384D01*
X911925Y523706D01*
X909372Y524390D01*
D02*
G37*
G36*
X883972D02*
X881328D01*
X878775Y523706D01*
X876485Y522384D01*
X876449Y522347D01*
X882650Y516146D01*
X888851Y522347D01*
X888815Y522384D01*
X886525Y523706D01*
X883972Y524390D01*
D02*
G37*
G36*
X900053Y520551D02*
X900016Y520515D01*
X898694Y518225D01*
X898010Y515672D01*
Y513028D01*
X898694Y510475D01*
X900016Y508185D01*
X900053Y508149D01*
X906254Y514350D01*
X900053Y520551D01*
D02*
G37*
G36*
X874653D02*
X874616Y520515D01*
X873294Y518225D01*
X872610Y515672D01*
Y513028D01*
X873294Y510475D01*
X874616Y508185D01*
X874653Y508149D01*
X880854Y514350D01*
X874653Y520551D01*
D02*
G37*
G36*
X890647D02*
X884446Y514350D01*
X890647Y508149D01*
X890684Y508185D01*
X892006Y510475D01*
X892690Y513028D01*
Y515672D01*
X892006Y518225D01*
X890684Y520515D01*
X890647Y520551D01*
D02*
G37*
G36*
X916047D02*
X909846Y514350D01*
X916047Y508149D01*
X916084Y508185D01*
X917406Y510475D01*
X918090Y513028D01*
Y515672D01*
X917406Y518225D01*
X916084Y520515D01*
X916047Y520551D01*
D02*
G37*
G36*
X908050Y512554D02*
X901849Y506353D01*
X901885Y506316D01*
X904175Y504994D01*
X906728Y504310D01*
X909372D01*
X911925Y504994D01*
X914215Y506316D01*
X914251Y506353D01*
X908050Y512554D01*
D02*
G37*
G36*
X882650D02*
X876449Y506353D01*
X876485Y506316D01*
X878775Y504994D01*
X881328Y504310D01*
X883972D01*
X886525Y504994D01*
X888815Y506316D01*
X888851Y506353D01*
X882650Y512554D01*
D02*
G37*
G36*
X718904Y524632D02*
X716196D01*
X713581Y523931D01*
X711237Y522578D01*
X709322Y520663D01*
X707969Y518319D01*
X707268Y515704D01*
Y512996D01*
X707969Y510381D01*
X709322Y508037D01*
X711237Y506122D01*
X713581Y504769D01*
X716196Y504068D01*
X718904D01*
X721519Y504769D01*
X723863Y506122D01*
X725778Y508037D01*
X727131Y510381D01*
X727832Y512996D01*
Y515704D01*
X727131Y518319D01*
X725778Y520663D01*
X723863Y522578D01*
X721519Y523931D01*
X718904Y524632D01*
D02*
G37*
G36*
X693504D02*
X690796D01*
X688181Y523931D01*
X685837Y522578D01*
X683922Y520663D01*
X682569Y518319D01*
X681868Y515704D01*
Y512996D01*
X682569Y510381D01*
X683922Y508037D01*
X685837Y506122D01*
X688181Y504769D01*
X690796Y504068D01*
X693504D01*
X696119Y504769D01*
X698463Y506122D01*
X700378Y508037D01*
X701731Y510381D01*
X702432Y512996D01*
Y515704D01*
X701731Y518319D01*
X700378Y520663D01*
X698463Y522578D01*
X696119Y523931D01*
X693504Y524632D01*
D02*
G37*
G36*
X696275Y499798D02*
X688025D01*
X686285Y499568D01*
X684664Y498897D01*
X684288Y498608D01*
X692150Y490746D01*
X700012Y498608D01*
X699636Y498897D01*
X698015Y499568D01*
X696275Y499798D01*
D02*
G37*
G36*
X718970Y499740D02*
X716130D01*
X713385Y499005D01*
X710925Y497584D01*
X710818Y497478D01*
X717550Y490746D01*
X724282Y497478D01*
X724175Y497584D01*
X721715Y499005D01*
X718970Y499740D01*
D02*
G37*
G36*
X726078Y495682D02*
X719346Y488950D01*
X726078Y482218D01*
X726184Y482325D01*
X727605Y484785D01*
X728340Y487529D01*
Y490370D01*
X727605Y493115D01*
X726184Y495575D01*
X726078Y495682D01*
D02*
G37*
G36*
X709022D02*
X708916Y495575D01*
X707495Y493115D01*
X706760Y490370D01*
Y487529D01*
X707495Y484785D01*
X708916Y482325D01*
X709022Y482218D01*
X715754Y488950D01*
X709022Y495682D01*
D02*
G37*
G36*
X701808Y496812D02*
X693946Y488950D01*
X701808Y481088D01*
X702097Y481464D01*
X702768Y483085D01*
X702998Y484825D01*
Y493075D01*
X702768Y494815D01*
X702097Y496436D01*
X701808Y496812D01*
D02*
G37*
G36*
X682492D02*
X682203Y496436D01*
X681532Y494815D01*
X681302Y493075D01*
Y484825D01*
X681532Y483085D01*
X682203Y481464D01*
X682492Y481088D01*
X690354Y488950D01*
X682492Y496812D01*
D02*
G37*
G36*
X717550Y487154D02*
X710818Y480422D01*
X710925Y480316D01*
X713385Y478895D01*
X716130Y478160D01*
X718970D01*
X721715Y478895D01*
X724175Y480316D01*
X724282Y480422D01*
X717550Y487154D01*
D02*
G37*
G36*
X692150D02*
X684288Y479292D01*
X684664Y479003D01*
X686285Y478332D01*
X688025Y478102D01*
X696275D01*
X698015Y478332D01*
X699636Y479003D01*
X700012Y479292D01*
X692150Y487154D01*
D02*
G37*
G36*
X870566Y1091810D02*
X868938D01*
Y1090624D01*
X869151Y1090441D01*
X869349Y1090274D01*
X869531Y1090152D01*
X869698Y1090030D01*
X869835Y1089954D01*
X869942Y1089893D01*
X870003Y1089863D01*
X870033Y1089848D01*
X870216Y1089772D01*
X870398Y1089711D01*
X870550Y1089680D01*
X870687Y1089650D01*
X870794Y1089635D01*
X870870Y1089620D01*
X870946D01*
X871159Y1089635D01*
X871311Y1089665D01*
X871372D01*
X871418Y1089680D01*
X871448Y1089696D01*
X871463D01*
X871600Y1089756D01*
X871722Y1089833D01*
X871783Y1089893D01*
X871813Y1089909D01*
X871905Y1090015D01*
X871965Y1090106D01*
X871996Y1090182D01*
X872011Y1090213D01*
X872041Y1090350D01*
X872057Y1090471D01*
Y1090563D01*
Y1090578D01*
Y1090593D01*
X872041Y1090791D01*
X872011Y1090943D01*
X871996Y1091004D01*
X871981Y1091050D01*
X871965Y1091065D01*
Y1091080D01*
X871874Y1091232D01*
X871783Y1091354D01*
X871707Y1091430D01*
X871692Y1091460D01*
X871676D01*
X871509Y1091567D01*
X871357Y1091658D01*
X871281Y1091689D01*
X871220Y1091704D01*
X871189Y1091719D01*
X871174D01*
X870916Y1091780D01*
X870672Y1091795D01*
X870566Y1091810D01*
D02*
G37*
G36*
X779689Y1096344D02*
Y1091704D01*
X782717D01*
X779689Y1096344D01*
D02*
G37*
G36*
X818030Y1096710D02*
X817923D01*
X817695Y1096694D01*
X817497Y1096664D01*
X817299Y1096618D01*
X817132Y1096573D01*
X817010Y1096512D01*
X816904Y1096466D01*
X816828Y1096436D01*
X816813Y1096420D01*
X816630Y1096314D01*
X816462Y1096192D01*
X816326Y1096055D01*
X816204Y1095934D01*
X816097Y1095827D01*
X816021Y1095736D01*
X815976Y1095675D01*
X815960Y1095660D01*
X815839Y1095477D01*
X815732Y1095279D01*
X815641Y1095097D01*
X815565Y1094914D01*
X815504Y1094762D01*
X815458Y1094625D01*
X815443Y1094549D01*
X815428Y1094534D01*
Y1094519D01*
X815367Y1094275D01*
X815306Y1094016D01*
X815276Y1093788D01*
X815261Y1093560D01*
X815245Y1093378D01*
X815230Y1093241D01*
Y1093180D01*
Y1093134D01*
Y1093119D01*
Y1093104D01*
X815245Y1092815D01*
X815261Y1092541D01*
X815291Y1092282D01*
X815321Y1092069D01*
X815367Y1091887D01*
X815397Y1091750D01*
X815413Y1091658D01*
X815428Y1091643D01*
Y1091628D01*
X815504Y1091400D01*
X815595Y1091171D01*
X815687Y1090989D01*
X815763Y1090822D01*
X815854Y1090685D01*
X815915Y1090593D01*
X815960Y1090517D01*
X815976Y1090502D01*
X816113Y1090335D01*
X816249Y1090182D01*
X816402Y1090061D01*
X816539Y1089954D01*
X816645Y1089878D01*
X816736Y1089817D01*
X816813Y1089787D01*
X816828Y1089772D01*
X817010Y1089696D01*
X817208Y1089635D01*
X817391Y1089589D01*
X817558Y1089559D01*
X817710Y1089543D01*
X817817Y1089528D01*
X817923D01*
X818151Y1089543D01*
X818349Y1089574D01*
X818547Y1089604D01*
X818699Y1089665D01*
X818836Y1089711D01*
X818942Y1089741D01*
X819003Y1089772D01*
X819034Y1089787D01*
X819216Y1089893D01*
X819384Y1090015D01*
X819521Y1090152D01*
X819642Y1090274D01*
X819749Y1090380D01*
X819825Y1090471D01*
X819871Y1090532D01*
X819886Y1090548D01*
X820007Y1090730D01*
X820114Y1090928D01*
X820205Y1091126D01*
X820281Y1091308D01*
X820342Y1091460D01*
X820388Y1091582D01*
X820403Y1091658D01*
X820418Y1091689D01*
X820479Y1091932D01*
X820525Y1092191D01*
X820555Y1092419D01*
X820571Y1092647D01*
X820586Y1092830D01*
X820601Y1092982D01*
Y1093028D01*
Y1093073D01*
Y1093088D01*
Y1093104D01*
X820586Y1093408D01*
X820571Y1093682D01*
X820540Y1093925D01*
X820510Y1094154D01*
X820479Y1094336D01*
X820449Y1094458D01*
X820418Y1094549D01*
Y1094579D01*
X820342Y1094823D01*
X820251Y1095036D01*
X820160Y1095234D01*
X820068Y1095401D01*
X819992Y1095538D01*
X819931Y1095645D01*
X819886Y1095705D01*
X819871Y1095721D01*
X819734Y1095888D01*
X819597Y1096040D01*
X819445Y1096162D01*
X819308Y1096268D01*
X819201Y1096344D01*
X819095Y1096405D01*
X819034Y1096436D01*
X819019Y1096451D01*
X818821Y1096542D01*
X818638Y1096603D01*
X818456Y1096649D01*
X818288Y1096679D01*
X818136Y1096694D01*
X818030Y1096710D01*
D02*
G37*
%LPD*%
G36*
X817984Y1095310D02*
X818136Y1095295D01*
X818258Y1095264D01*
X818349Y1095234D01*
X818440Y1095203D01*
X818486Y1095188D01*
X818501Y1095173D01*
X818760Y1095036D01*
X818866Y1094945D01*
X818958Y1094868D01*
X819034Y1094808D01*
X819095Y1094747D01*
X819125Y1094716D01*
X819140Y1094701D01*
X819308Y1094473D01*
X819429Y1094245D01*
X819475Y1094154D01*
X819505Y1094077D01*
X819536Y1094016D01*
Y1094001D01*
X819612Y1093682D01*
X819642Y1093530D01*
X819658Y1093378D01*
Y1093256D01*
X819673Y1093149D01*
Y1093088D01*
Y1093058D01*
X819658Y1092678D01*
X819582Y1092343D01*
X819490Y1092054D01*
X819369Y1091795D01*
X819216Y1091582D01*
X819049Y1091415D01*
X818866Y1091263D01*
X818684Y1091156D01*
X818501Y1091065D01*
X818334Y1091004D01*
X818167Y1090943D01*
X818014Y1090913D01*
X817893Y1090898D01*
X817801Y1090882D01*
X817710D01*
X817482Y1090898D01*
X817269Y1090913D01*
X817071Y1090943D01*
X816889Y1090989D01*
X816752Y1091034D01*
X816630Y1091065D01*
X816569Y1091080D01*
X816539Y1091095D01*
Y1091963D01*
X816721Y1091887D01*
X816889Y1091826D01*
X817056Y1091780D01*
X817208Y1091750D01*
X817330Y1091734D01*
X817421Y1091719D01*
X817512D01*
X817710Y1091734D01*
X817878Y1091765D01*
X818030Y1091826D01*
X818151Y1091887D01*
X818243Y1091932D01*
X818304Y1091993D01*
X818349Y1092023D01*
X818364Y1092039D01*
X818456Y1092176D01*
X818532Y1092343D01*
X818577Y1092525D01*
X818623Y1092693D01*
X818638Y1092845D01*
X818653Y1092967D01*
Y1093058D01*
Y1093073D01*
Y1093088D01*
X818638Y1093332D01*
X818608Y1093545D01*
X818562Y1093727D01*
X818501Y1093864D01*
X818456Y1093986D01*
X818410Y1094077D01*
X818380Y1094123D01*
X818364Y1094138D01*
X818243Y1094260D01*
X818106Y1094351D01*
X817969Y1094412D01*
X817832Y1094458D01*
X817710Y1094488D01*
X817619Y1094503D01*
X817527D01*
X817345Y1094488D01*
X817178Y1094473D01*
X817117Y1094458D01*
X817071Y1094443D01*
X817041Y1094427D01*
X817026D01*
X816843Y1094367D01*
X816691Y1094321D01*
X816630Y1094290D01*
X816584Y1094260D01*
X816554Y1094245D01*
X816539D01*
Y1095142D01*
X816736Y1095203D01*
X816919Y1095264D01*
X817117Y1095295D01*
X817284Y1095310D01*
X817436Y1095325D01*
X817558Y1095340D01*
X817832D01*
X817984Y1095310D01*
D02*
G37*
%LPC*%
G36*
X795482Y1096603D02*
X795406D01*
X795162Y1096588D01*
X795071Y1096573D01*
X794979Y1096542D01*
X794903Y1096527D01*
X794843Y1096497D01*
X794812Y1096481D01*
X794797D01*
X794599Y1096390D01*
X794447Y1096283D01*
X794386Y1096238D01*
X794341Y1096192D01*
X794325Y1096177D01*
X794310Y1096162D01*
X794158Y1096010D01*
X794051Y1095842D01*
X794006Y1095781D01*
X793975Y1095721D01*
X793945Y1095690D01*
Y1095675D01*
X793838Y1095462D01*
X793762Y1095264D01*
X793732Y1095188D01*
X793701Y1095127D01*
X793686Y1095082D01*
Y1095066D01*
X797383Y1092343D01*
X797399Y1092480D01*
Y1092602D01*
Y1092693D01*
Y1092708D01*
Y1092723D01*
Y1092875D01*
Y1093012D01*
Y1093119D01*
Y1093134D01*
Y1093149D01*
Y1093454D01*
X797383Y1093727D01*
X797353Y1093986D01*
X797323Y1094199D01*
X797307Y1094382D01*
X797277Y1094519D01*
X797262Y1094595D01*
Y1094625D01*
X797201Y1094853D01*
X797140Y1095066D01*
X797079Y1095264D01*
X797018Y1095416D01*
X796957Y1095553D01*
X796912Y1095645D01*
X796881Y1095705D01*
X796866Y1095721D01*
X796760Y1095873D01*
X796653Y1096010D01*
X796562Y1096116D01*
X796455Y1096207D01*
X796364Y1096283D01*
X796303Y1096329D01*
X796257Y1096360D01*
X796242Y1096375D01*
X796090Y1096451D01*
X795953Y1096512D01*
X795816Y1096542D01*
X795679Y1096573D01*
X795573Y1096588D01*
X795482Y1096603D01*
D02*
G37*
G36*
X793473Y1093956D02*
X793458Y1093803D01*
Y1093651D01*
X793443Y1093606D01*
Y1093560D01*
Y1093530D01*
Y1093514D01*
X793428Y1093347D01*
X793412Y1093195D01*
Y1093149D01*
Y1093104D01*
Y1093073D01*
Y1093058D01*
Y1092754D01*
X793443Y1092480D01*
X793458Y1092221D01*
X793488Y1091993D01*
X793519Y1091826D01*
X793534Y1091689D01*
X793565Y1091597D01*
Y1091582D01*
Y1091567D01*
X793625Y1091339D01*
X793686Y1091126D01*
X793747Y1090943D01*
X793808Y1090791D01*
X793869Y1090654D01*
X793914Y1090563D01*
X793945Y1090502D01*
X793960Y1090487D01*
X794067Y1090335D01*
X794173Y1090213D01*
X794280Y1090091D01*
X794371Y1090015D01*
X794462Y1089939D01*
X794538Y1089893D01*
X794584Y1089863D01*
X794599Y1089848D01*
X794736Y1089772D01*
X794873Y1089726D01*
X795010Y1089680D01*
X795132Y1089665D01*
X795253Y1089650D01*
X795329Y1089635D01*
X795406D01*
X795664Y1089650D01*
X795771Y1089665D01*
X795862Y1089696D01*
X795938Y1089711D01*
X795999Y1089726D01*
X796029Y1089741D01*
X796044D01*
X796242Y1089848D01*
X796395Y1089954D01*
X796455Y1089985D01*
X796501Y1090030D01*
X796531Y1090045D01*
X796547Y1090061D01*
X796699Y1090228D01*
X796805Y1090396D01*
X796851Y1090456D01*
X796881Y1090517D01*
X796912Y1090548D01*
Y1090563D01*
X797018Y1090791D01*
X797094Y1091004D01*
X797125Y1091095D01*
X797140Y1091156D01*
X797155Y1091202D01*
Y1091217D01*
X793473Y1093956D01*
D02*
G37*
G36*
X833138Y1094716D02*
X833016D01*
X832788Y1094701D01*
X832605Y1094671D01*
X832529Y1094640D01*
X832484Y1094625D01*
X832453Y1094610D01*
X832438D01*
X832255Y1094519D01*
X832118Y1094412D01*
X832027Y1094336D01*
X832012Y1094321D01*
X831997Y1094306D01*
X831860Y1094154D01*
X831768Y1094016D01*
X831738Y1093941D01*
X831708Y1093895D01*
X831692Y1093864D01*
Y1093849D01*
X831616Y1093651D01*
X831586Y1093469D01*
X831571Y1093393D01*
Y1093332D01*
Y1093286D01*
Y1093271D01*
X831586Y1093073D01*
X831616Y1092891D01*
X831647Y1092830D01*
X831662Y1092769D01*
X831677Y1092738D01*
Y1092723D01*
X831753Y1092541D01*
X831844Y1092404D01*
X831890Y1092343D01*
X831921Y1092297D01*
X831936Y1092282D01*
X831951Y1092267D01*
X832103Y1092130D01*
X832240Y1092039D01*
X832316Y1091993D01*
X832362Y1091963D01*
X832392Y1091947D01*
X832407D01*
X832620Y1091887D01*
X832818Y1091856D01*
X832894Y1091841D01*
X833016D01*
X833244Y1091856D01*
X833351Y1091871D01*
X833442Y1091887D01*
X833503Y1091902D01*
X833564Y1091917D01*
X833594Y1091932D01*
X833609D01*
X833792Y1092023D01*
X833929Y1092115D01*
X833990Y1092160D01*
X834035Y1092191D01*
X834051Y1092221D01*
X834066D01*
X834187Y1092373D01*
X834279Y1092525D01*
X834309Y1092586D01*
X834340Y1092632D01*
X834355Y1092662D01*
Y1092678D01*
X834416Y1092891D01*
X834446Y1093073D01*
X834461Y1093149D01*
Y1093210D01*
Y1093256D01*
Y1093271D01*
X834446Y1093469D01*
X834416Y1093636D01*
X834400Y1093712D01*
X834385Y1093758D01*
X834370Y1093788D01*
Y1093803D01*
X834294Y1093986D01*
X834203Y1094138D01*
X834157Y1094199D01*
X834127Y1094245D01*
X834096Y1094260D01*
Y1094275D01*
X833944Y1094412D01*
X833792Y1094503D01*
X833731Y1094549D01*
X833686Y1094579D01*
X833655Y1094595D01*
X833640D01*
X833427Y1094671D01*
X833229Y1094701D01*
X833138Y1094716D01*
D02*
G37*
G36*
X834096Y1088950D02*
X834081D01*
X832331Y1088889D01*
X832088Y1088874D01*
X831890Y1088844D01*
X831708Y1088813D01*
X831571Y1088767D01*
X831449Y1088737D01*
X831373Y1088707D01*
X831327Y1088691D01*
X831312Y1088676D01*
X831206Y1088600D01*
X831114Y1088494D01*
X831053Y1088402D01*
X831023Y1088296D01*
X830993Y1088205D01*
X830977Y1088129D01*
Y1088083D01*
Y1088068D01*
X830993Y1087915D01*
X831023Y1087778D01*
X831068Y1087672D01*
X831084Y1087657D01*
Y1087642D01*
X831175Y1087489D01*
X831297Y1087383D01*
X831388Y1087307D01*
X831403Y1087277D01*
X831419D01*
X831616Y1087170D01*
X831814Y1087079D01*
X831890Y1087048D01*
X831966Y1087018D01*
X832012Y1087003D01*
X832027D01*
X832164Y1086972D01*
X832331Y1086942D01*
X832484Y1086926D01*
X832620Y1086911D01*
X832757Y1086896D01*
X832955D01*
X833259Y1086911D01*
X833533Y1086926D01*
X833777Y1086972D01*
X833975Y1087018D01*
X834127Y1087048D01*
X834233Y1087094D01*
X834294Y1087109D01*
X834324Y1087124D01*
X834492Y1087216D01*
X834598Y1087322D01*
X834690Y1087429D01*
X834751Y1087550D01*
X834781Y1087642D01*
X834796Y1087733D01*
X834811Y1087794D01*
Y1087809D01*
Y1087915D01*
X834796Y1088022D01*
X834781Y1088083D01*
Y1088113D01*
X834751Y1088220D01*
X834720Y1088311D01*
X834690Y1088372D01*
X834674Y1088402D01*
X834613Y1088509D01*
X834538Y1088585D01*
X834477Y1088646D01*
X834461Y1088676D01*
X834340Y1088767D01*
X834218Y1088859D01*
X834111Y1088920D01*
X834096Y1088950D01*
D02*
G37*
%LPD*%
D18*
X857250Y431800D02*
D03*
X985550Y421800D02*
D03*
X679450Y431800D02*
D03*
X807750Y421800D02*
D03*
D30*
X910260Y949300D02*
D03*
Y562000D02*
D03*
X730260Y949300D02*
D03*
Y562000D02*
D03*
D31*
X891200Y673100D02*
D03*
X910250Y660410D02*
D03*
X891200Y647700D02*
D03*
X910250Y635000D02*
D03*
X891200Y622300D02*
D03*
X910250Y609600D02*
D03*
X891200Y596900D02*
D03*
X910250Y914400D02*
D03*
X891200Y901700D02*
D03*
X910250Y889000D02*
D03*
X891200Y876310D02*
D03*
X910250Y863600D02*
D03*
X891200Y850900D02*
D03*
X910250Y838200D02*
D03*
X891200Y825500D02*
D03*
X910250Y812800D02*
D03*
X891200Y800100D02*
D03*
X910250Y787400D02*
D03*
X891200Y774700D02*
D03*
X910250Y762000D02*
D03*
X891200Y749300D02*
D03*
X910250Y736600D02*
D03*
X711200Y673100D02*
D03*
X730250Y660410D02*
D03*
X711200Y647700D02*
D03*
X730250Y635000D02*
D03*
X711200Y622300D02*
D03*
X730250Y609600D02*
D03*
X711200Y596900D02*
D03*
X730250Y914400D02*
D03*
X711200Y901700D02*
D03*
X730250Y889000D02*
D03*
X711200Y876310D02*
D03*
X730250Y863600D02*
D03*
X711200Y850900D02*
D03*
X730250Y838200D02*
D03*
X711200Y825500D02*
D03*
X730250Y812800D02*
D03*
X711200Y800100D02*
D03*
X730250Y787400D02*
D03*
X711200Y774700D02*
D03*
X730250Y762000D02*
D03*
X711200Y749300D02*
D03*
X730250Y736600D02*
D03*
D32*
X882650Y514350D02*
D03*
X908050D02*
D03*
X882650Y488950D02*
D03*
D33*
X908050D02*
D03*
D34*
X781050Y1035050D02*
D03*
X965200D02*
D03*
X755650D02*
D03*
X939800D02*
D03*
D35*
X806450D02*
D03*
X990600D02*
D03*
X704850D02*
D03*
X730250D02*
D03*
X889000D02*
D03*
X914400D02*
D03*
D36*
X692150Y488950D02*
D03*
D37*
X717550D02*
D03*
X692150Y514350D02*
D03*
X717550D02*
D03*
D38*
X684000Y1094000D02*
D03*
X984000D02*
D03*
Y334000D02*
D03*
X684000D02*
D03*
D39*
X704850Y1009650D02*
D03*
X889000D02*
D03*
D40*
X862000Y1044000D02*
D03*
X676000D02*
D03*
X864000Y968000D02*
D03*
X856000Y478000D02*
D03*
X958000Y442000D02*
D03*
X920000D02*
D03*
X882000D02*
D03*
X780000D02*
D03*
X742000D02*
D03*
X704000D02*
D03*
D56*
X905168Y1113022D02*
X905930Y1113783D01*
X907072Y1114164D01*
X908596D01*
X909738Y1113783D01*
X910500Y1113022D01*
Y1112260D01*
X910119Y1111498D01*
X909738Y1111117D01*
X908977Y1110736D01*
X906691Y1109975D01*
X905930Y1109594D01*
X905549Y1109213D01*
X905168Y1108451D01*
Y1107309D01*
X905930Y1106547D01*
X907072Y1106166D01*
X908596D01*
X909738Y1106547D01*
X910500Y1107309D01*
X897284Y1106166D02*
X900331Y1114164D01*
X903378Y1106166D01*
X902235Y1108832D02*
X898426D01*
X892751Y1114164D02*
Y1106166D01*
X895417Y1114164D02*
X890085D01*
X883039Y1106166D02*
X886086Y1114164D01*
X889133Y1106166D01*
X887991Y1108832D02*
X884182D01*
X881173Y1109594D02*
X874317D01*
X871956Y1114164D02*
Y1106166D01*
Y1114164D02*
X868909Y1106166D01*
X865862Y1114164D02*
X868909Y1106166D01*
X865862Y1114164D02*
Y1106166D01*
X861672Y1111498D02*
X862434Y1111117D01*
X863196Y1110356D01*
X863577Y1109213D01*
Y1108451D01*
X863196Y1107309D01*
X862434Y1106547D01*
X861672Y1106166D01*
X860530D01*
X859768Y1106547D01*
X859006Y1107309D01*
X858625Y1108451D01*
Y1109213D01*
X859006Y1110356D01*
X859768Y1111117D01*
X860530Y1111498D01*
X861672D01*
X852303Y1114164D02*
Y1106166D01*
Y1110356D02*
X853065Y1111117D01*
X853826Y1111498D01*
X854969D01*
X855731Y1111117D01*
X856492Y1110356D01*
X856873Y1109213D01*
Y1108451D01*
X856492Y1107309D01*
X855731Y1106547D01*
X854969Y1106166D01*
X853826D01*
X853065Y1106547D01*
X852303Y1107309D01*
X850170Y1111498D02*
Y1107690D01*
X849789Y1106547D01*
X849027Y1106166D01*
X847885D01*
X847123Y1106547D01*
X845981Y1107690D01*
Y1111498D02*
Y1106166D01*
X843886Y1114164D02*
Y1106166D01*
X837639Y1111498D02*
Y1106166D01*
Y1110356D02*
X838401Y1111117D01*
X839163Y1111498D01*
X840305D01*
X841067Y1111117D01*
X841829Y1110356D01*
X842210Y1109213D01*
Y1108451D01*
X841829Y1107309D01*
X841067Y1106547D01*
X840305Y1106166D01*
X839163D01*
X838401Y1106547D01*
X837639Y1107309D01*
X835507Y1111498D02*
Y1106166D01*
Y1109213D02*
X835126Y1110356D01*
X834364Y1111117D01*
X833602Y1111498D01*
X832459D01*
X831736Y1109594D02*
X824880D01*
X822519Y1114164D02*
Y1106166D01*
Y1114164D02*
X819091D01*
X817948Y1113783D01*
X817568Y1113403D01*
X817187Y1112641D01*
Y1111879D01*
X817568Y1111117D01*
X817948Y1110736D01*
X819091Y1110356D01*
X822519D02*
X819091D01*
X817948Y1109975D01*
X817568Y1109594D01*
X817187Y1108832D01*
Y1107690D01*
X817568Y1106928D01*
X817948Y1106547D01*
X819091Y1106166D01*
X822519D01*
X810826Y1111498D02*
Y1106166D01*
Y1110356D02*
X811588Y1111117D01*
X812350Y1111498D01*
X813492D01*
X814254Y1111117D01*
X815016Y1110356D01*
X815396Y1109213D01*
Y1108451D01*
X815016Y1107309D01*
X814254Y1106547D01*
X813492Y1106166D01*
X812350D01*
X811588Y1106547D01*
X810826Y1107309D01*
X804123Y1110356D02*
X804884Y1111117D01*
X805646Y1111498D01*
X806789D01*
X807551Y1111117D01*
X808312Y1110356D01*
X808693Y1109213D01*
Y1108451D01*
X808312Y1107309D01*
X807551Y1106547D01*
X806789Y1106166D01*
X805646D01*
X804884Y1106547D01*
X804123Y1107309D01*
X802409Y1114164D02*
Y1106166D01*
X798600Y1111498D02*
X802409Y1107690D01*
X800885Y1109213D02*
X798219Y1106166D01*
X796962Y1111498D02*
Y1103500D01*
Y1110356D02*
X796201Y1111117D01*
X795439Y1111498D01*
X794296D01*
X793534Y1111117D01*
X792773Y1110356D01*
X792392Y1109213D01*
Y1108451D01*
X792773Y1107309D01*
X793534Y1106547D01*
X794296Y1106166D01*
X795439D01*
X796201Y1106547D01*
X796962Y1107309D01*
X790678Y1114164D02*
Y1106166D01*
X784432Y1111498D02*
Y1106166D01*
Y1110356D02*
X785193Y1111117D01*
X785955Y1111498D01*
X787098D01*
X787859Y1111117D01*
X788621Y1110356D01*
X789002Y1109213D01*
Y1108451D01*
X788621Y1107309D01*
X787859Y1106547D01*
X787098Y1106166D01*
X785955D01*
X785193Y1106547D01*
X784432Y1107309D01*
X782299Y1111498D02*
Y1106166D01*
Y1109975D02*
X781156Y1111117D01*
X780395Y1111498D01*
X779252D01*
X778490Y1111117D01*
X778109Y1109975D01*
Y1106166D01*
X776014Y1109213D02*
X771444D01*
Y1109975D01*
X771825Y1110736D01*
X772206Y1111117D01*
X772968Y1111498D01*
X774110D01*
X774872Y1111117D01*
X775634Y1110356D01*
X776014Y1109213D01*
Y1108451D01*
X775634Y1107309D01*
X774872Y1106547D01*
X774110Y1106166D01*
X772968D01*
X772206Y1106547D01*
X771444Y1107309D01*
X763446Y1114164D02*
Y1106166D01*
Y1114164D02*
X760018D01*
X758875Y1113783D01*
X758494Y1113403D01*
X758113Y1112641D01*
Y1111879D01*
X758494Y1111117D01*
X758875Y1110736D01*
X760018Y1110356D01*
X763446D01*
X760780D02*
X758113Y1106166D01*
X756323Y1112641D02*
X755562Y1113022D01*
X754419Y1114164D01*
Y1106166D01*
M02*
