M48
;Layer_Color=9474304
;FILE_FORMAT=4:4
METRIC,LZ
;TYPE=PLATED
T1F00S00C0.3048
T2F00S00C0.9100
T3F00S00C1.0200
T4F00S00C1.0300
T5F00S00C1.1000
T6F00S00C1.3500
%
T01
X00882Y00442
X0092
X00958
X00856Y00478
X0078Y00442
X00742
X00704
X00676Y01044
X00862
X00864Y00968
T02
X008912Y005969
Y006223
Y006477
Y006731
X0091025Y0066041
Y00635
Y006096
Y007366
Y00762
Y007874
X008912Y007747
Y007493
X0073025Y00762
Y007874
X007112Y007747
Y007493
X0073025Y007366
Y0066041
Y00635
Y006096
X007112Y006223
Y006477
Y006731
Y005969
Y008001
Y008255
Y008509
Y0087631
Y009017
X0073025Y009144
Y00889
Y008636
Y008382
Y008128
X008912Y008255
Y008509
Y0087631
Y009017
X0091025Y009144
Y00889
Y008636
Y008382
Y008128
X008912Y008001
T03
X0070485Y0100965
Y0103505
X0073025
X0075565
X0078105
X0080645
X00889
Y0100965
X009144Y0103505
X009398
X009652
X009906
T04
X0088265Y0048895
Y0051435
X0090805
Y0048895
T05
X0069215Y0048895
X0071755
Y0051435
X0069215
T06
X0080775Y004218
X0085725Y004318
X0098555Y004218
X0067945Y004318
M30
