G04*
G04 #@! TF.GenerationSoftware,Altium Limited,Altium Designer,22.11.1 (43)*
G04*
G04 Layer_Physical_Order=3*
G04 Layer_Color=36540*
%FSLAX44Y44*%
%MOMM*%
G71*
G04*
G04 #@! TF.SameCoordinates,A02E6F09-B365-49D6-8537-B30C210521C3*
G04*
G04*
G04 #@! TF.FilePolarity,Positive*
G04*
G01*
G75*
%ADD18C,2.0500*%
%ADD30C,1.3400*%
%ADD31C,1.2000*%
%ADD32C,1.5000*%
G04:AMPARAMS|DCode=33|XSize=1.5mm|YSize=1.5mm|CornerRadius=0.375mm|HoleSize=0mm|Usage=FLASHONLY|Rotation=90.000|XOffset=0mm|YOffset=0mm|HoleType=Round|Shape=RoundedRectangle|*
%AMROUNDEDRECTD33*
21,1,1.5000,0.7500,0,0,90.0*
21,1,0.7500,1.5000,0,0,90.0*
1,1,0.7500,0.3750,0.3750*
1,1,0.7500,0.3750,-0.3750*
1,1,0.7500,-0.3750,-0.3750*
1,1,0.7500,-0.3750,0.3750*
%
%ADD33ROUNDEDRECTD33*%
G04:AMPARAMS|DCode=34|XSize=1.52mm|YSize=1.52mm|CornerRadius=0.38mm|HoleSize=0mm|Usage=FLASHONLY|Rotation=0.000|XOffset=0mm|YOffset=0mm|HoleType=Round|Shape=RoundedRectangle|*
%AMROUNDEDRECTD34*
21,1,1.5200,0.7600,0,0,0.0*
21,1,0.7600,1.5200,0,0,0.0*
1,1,0.7600,0.3800,-0.3800*
1,1,0.7600,-0.3800,-0.3800*
1,1,0.7600,-0.3800,0.3800*
1,1,0.7600,0.3800,0.3800*
%
%ADD34ROUNDEDRECTD34*%
%ADD35C,1.5200*%
G04:AMPARAMS|DCode=36|XSize=1.65mm|YSize=1.65mm|CornerRadius=0.4125mm|HoleSize=0mm|Usage=FLASHONLY|Rotation=270.000|XOffset=0mm|YOffset=0mm|HoleType=Round|Shape=RoundedRectangle|*
%AMROUNDEDRECTD36*
21,1,1.6500,0.8250,0,0,270.0*
21,1,0.8250,1.6500,0,0,270.0*
1,1,0.8250,-0.4125,-0.4125*
1,1,0.8250,-0.4125,0.4125*
1,1,0.8250,0.4125,0.4125*
1,1,0.8250,0.4125,-0.4125*
%
%ADD36ROUNDEDRECTD36*%
%ADD37C,1.6500*%
%ADD38C,5.0000*%
G04:AMPARAMS|DCode=39|XSize=1.52mm|YSize=1.52mm|CornerRadius=0.38mm|HoleSize=0mm|Usage=FLASHONLY|Rotation=90.000|XOffset=0mm|YOffset=0mm|HoleType=Round|Shape=RoundedRectangle|*
%AMROUNDEDRECTD39*
21,1,1.5200,0.7600,0,0,90.0*
21,1,0.7600,1.5200,0,0,90.0*
1,1,0.7600,0.3800,0.3800*
1,1,0.7600,0.3800,-0.3800*
1,1,0.7600,-0.3800,-0.3800*
1,1,0.7600,-0.3800,0.3800*
%
%ADD39ROUNDEDRECTD39*%
%ADD40C,0.6096*%
G36*
X970687Y1118941D02*
X970983Y1117706D01*
X969832Y1117120D01*
X966390Y1114619D01*
X963381Y1111610D01*
X960880Y1108168D01*
X958949Y1104377D01*
X957634Y1100330D01*
X956968Y1096127D01*
Y1091872D01*
X957634Y1087670D01*
X958949Y1083623D01*
X960880Y1079832D01*
X963381Y1076390D01*
X966390Y1073381D01*
X969832Y1070880D01*
X973623Y1068949D01*
X977670Y1067634D01*
X981872Y1066968D01*
X986127D01*
X990330Y1067634D01*
X994377Y1068949D01*
X998168Y1070880D01*
X1001610Y1073381D01*
X1004619Y1076390D01*
X1007120Y1079832D01*
X1007706Y1080983D01*
X1008941Y1080687D01*
X1008941Y967400D01*
X1008941Y966044D01*
X1008676Y963345D01*
X1008147Y960685D01*
X1007359Y958090D01*
X1006321Y955584D01*
X1005043Y953193D01*
X1003536Y950938D01*
X1001816Y948841D01*
X1000857Y947883D01*
X1000857Y947883D01*
X978818Y925843D01*
X978796Y925811D01*
X978765Y925789D01*
X977727Y924699D01*
X977666Y924603D01*
X977578Y924531D01*
X975669Y922205D01*
X975598Y922071D01*
X975491Y921964D01*
X973819Y919462D01*
X973761Y919322D01*
X973665Y919204D01*
X972246Y916551D01*
X972202Y916406D01*
X972118Y916280D01*
X970966Y913500D01*
X970937Y913351D01*
X970865Y913217D01*
X969992Y910338D01*
X969977Y910187D01*
X969919Y910047D01*
X969332Y907095D01*
Y906944D01*
X969288Y906799D01*
X968993Y903804D01*
X969004Y903691D01*
X968979Y903579D01*
X968942Y902075D01*
X968949Y902037D01*
X968941Y902000D01*
Y586700D01*
X968949Y586663D01*
X968942Y586625D01*
X968979Y585121D01*
X969004Y585009D01*
X968993Y584896D01*
X969288Y581901D01*
X969332Y581756D01*
Y581604D01*
X969919Y578653D01*
X969977Y578513D01*
X969992Y578362D01*
X970865Y575483D01*
X970937Y575349D01*
X970966Y575200D01*
X972118Y572420D01*
X972202Y572294D01*
X972246Y572149D01*
X973665Y569496D01*
X973761Y569378D01*
X973819Y569238D01*
X975491Y566736D01*
X975598Y566629D01*
X975669Y566495D01*
X977578Y564169D01*
X977666Y564097D01*
X977727Y564001D01*
X978765Y562911D01*
X978796Y562889D01*
X978818Y562857D01*
X1000857Y540817D01*
X1001816Y539859D01*
X1003536Y537762D01*
X1005043Y535507D01*
X1006321Y533115D01*
X1007359Y530610D01*
X1008146Y528015D01*
X1008676Y525355D01*
X1008941Y522656D01*
X1008941Y521300D01*
Y347313D01*
X1007706Y347017D01*
X1007120Y348168D01*
X1004619Y351610D01*
X1001610Y354619D01*
X998168Y357120D01*
X994377Y359052D01*
X990330Y360366D01*
X986127Y361032D01*
X981872D01*
X977670Y360366D01*
X973623Y359052D01*
X969832Y357120D01*
X966390Y354619D01*
X963381Y351610D01*
X960880Y348168D01*
X958949Y344377D01*
X957634Y340330D01*
X956968Y336127D01*
Y331872D01*
X957634Y327670D01*
X958949Y323623D01*
X960880Y319832D01*
X963381Y316390D01*
X966390Y313381D01*
X969832Y310880D01*
X970983Y310294D01*
X970687Y309059D01*
X697313Y309059D01*
X697017Y310294D01*
X698168Y310880D01*
X701610Y313381D01*
X704619Y316390D01*
X707120Y319832D01*
X709052Y323623D01*
X710366Y327670D01*
X711032Y331872D01*
Y336127D01*
X710366Y340330D01*
X709052Y344377D01*
X707120Y348168D01*
X704619Y351610D01*
X701610Y354619D01*
X698168Y357120D01*
X694377Y359052D01*
X690330Y360366D01*
X686127Y361032D01*
X681873D01*
X677670Y360366D01*
X673623Y359052D01*
X669832Y357120D01*
X666390Y354619D01*
X663381Y351610D01*
X660880Y348168D01*
X660294Y347017D01*
X659059Y347313D01*
X659059Y521300D01*
Y522656D01*
X659324Y525355D01*
X659854Y528015D01*
X660641Y530610D01*
X661679Y533115D01*
X662957Y535507D01*
X664464Y537762D01*
X666184Y539859D01*
X667143Y540817D01*
X667143Y540817D01*
X669183Y542857D01*
X669204Y542889D01*
X669235Y542911D01*
X670273Y544001D01*
X670334Y544097D01*
X670422Y544169D01*
X672331Y546495D01*
X672402Y546629D01*
X672509Y546736D01*
X674181Y549238D01*
X674239Y549378D01*
X674335Y549496D01*
X675754Y552149D01*
X675798Y552294D01*
X675882Y552421D01*
X677033Y555200D01*
X677063Y555349D01*
X677135Y555483D01*
X678008Y558362D01*
X678023Y558513D01*
X678081Y558653D01*
X678668Y561604D01*
Y561756D01*
X678712Y561901D01*
X679007Y564896D01*
X678996Y565009D01*
X679021Y565120D01*
X679058Y566625D01*
X679051Y566663D01*
X679059Y566700D01*
X679059Y902000D01*
X679051Y902037D01*
X679058Y902075D01*
X679021Y903579D01*
X678996Y903691D01*
X679007Y903804D01*
X678712Y906799D01*
X678668Y906944D01*
Y907095D01*
X678081Y910046D01*
X678023Y910187D01*
X678008Y910338D01*
X677135Y913217D01*
X677063Y913351D01*
X677033Y913500D01*
X675882Y916280D01*
X675798Y916406D01*
X675754Y916551D01*
X674335Y919204D01*
X674239Y919322D01*
X674181Y919462D01*
X672509Y921964D01*
X672402Y922071D01*
X672331Y922205D01*
X670422Y924531D01*
X670334Y924603D01*
X670273Y924699D01*
X669235Y925789D01*
X669204Y925811D01*
X669183Y925843D01*
X667143Y927882D01*
X667143Y927883D01*
X666184Y928841D01*
X664464Y930938D01*
X662957Y933193D01*
X661678Y935584D01*
X660641Y938090D01*
X659854Y940685D01*
X659324Y943345D01*
X659059Y946044D01*
X659059Y947400D01*
Y1080687D01*
X660294Y1080983D01*
X660880Y1079832D01*
X663381Y1076390D01*
X666390Y1073381D01*
X669832Y1070880D01*
X673623Y1068949D01*
X677670Y1067634D01*
X681873Y1066968D01*
X686127D01*
X690330Y1067634D01*
X694377Y1068949D01*
X698168Y1070880D01*
X701610Y1073381D01*
X704619Y1076390D01*
X707120Y1079832D01*
X709052Y1083623D01*
X710366Y1087670D01*
X711032Y1091872D01*
Y1096127D01*
X710366Y1100330D01*
X709052Y1104377D01*
X707120Y1108168D01*
X704619Y1111610D01*
X701610Y1114619D01*
X698168Y1117120D01*
X697017Y1117707D01*
X697313Y1118941D01*
X970687Y1118941D01*
D02*
G37*
%LPC*%
G36*
X918000Y1056072D02*
X918000Y1056072D01*
X874000D01*
X874000Y1056072D01*
X873207Y1055914D01*
X872535Y1055465D01*
X872535Y1055465D01*
X865486Y1048416D01*
X865165Y1048737D01*
X863111Y1049588D01*
X860889D01*
X858993Y1048803D01*
X862898Y1044898D01*
X861102Y1043102D01*
X857197Y1047007D01*
X856412Y1045111D01*
Y1042888D01*
X857263Y1040835D01*
X857584Y1040514D01*
X745535Y928465D01*
X745086Y927793D01*
X744928Y927000D01*
X744928Y927000D01*
Y799858D01*
X737640Y792570D01*
X737266Y792620D01*
X731148Y786502D01*
X724523Y779877D01*
X724554Y779484D01*
X720928Y775858D01*
X719604Y776330D01*
X719158Y777996D01*
X718109Y779813D01*
X712098Y773802D01*
X711200Y774700D01*
X710302Y773802D01*
X704291Y779813D01*
X703242Y777996D01*
X702660Y775824D01*
Y773576D01*
X703242Y771404D01*
X704366Y769456D01*
X704577Y769245D01*
X704091Y768072D01*
X700000D01*
X700000Y768072D01*
X699207Y767914D01*
X698535Y767465D01*
X698535Y767465D01*
X692535Y761465D01*
X692086Y760793D01*
X691928Y760000D01*
X691928Y760000D01*
Y726000D01*
X691928Y726000D01*
X692086Y725207D01*
X692535Y724535D01*
X692535Y724535D01*
X698535Y718535D01*
X699207Y718086D01*
X700000Y717928D01*
X700000Y717928D01*
X792941D01*
Y582000D01*
Y579622D01*
X793000Y579327D01*
Y579025D01*
X793928Y574361D01*
X794043Y574083D01*
X794102Y573787D01*
X795922Y569394D01*
X796089Y569143D01*
X796204Y568865D01*
X798847Y564911D01*
X799060Y564698D01*
X799227Y564447D01*
X800908Y562766D01*
X800908Y562766D01*
X803594Y560080D01*
X803594Y560080D01*
X803595Y560080D01*
X804572Y559102D01*
X804698Y559018D01*
X804794Y558901D01*
X806932Y557146D01*
X807066Y557075D01*
X807173Y556968D01*
X809472Y555431D01*
X809612Y555373D01*
X809730Y555277D01*
X812168Y553974D01*
X812313Y553930D01*
X812439Y553845D01*
X814994Y552787D01*
X815143Y552758D01*
X815277Y552686D01*
X817923Y551883D01*
X818074Y551869D01*
X818214Y551810D01*
X820926Y551271D01*
X821077D01*
X821223Y551227D01*
X823974Y550956D01*
X824125Y550971D01*
X824274Y550941D01*
X825657Y550941D01*
X828043D01*
X828043Y550941D01*
X828169Y550966D01*
X828296Y550952D01*
X829772Y551074D01*
X829918Y551116D01*
X830069Y551113D01*
X832983Y551646D01*
X833124Y551702D01*
X833276Y551714D01*
X836124Y552530D01*
X836258Y552599D01*
X836408Y552627D01*
X839162Y553718D01*
X839289Y553800D01*
X839435Y553842D01*
X842069Y555198D01*
X842188Y555292D01*
X842329Y555348D01*
X844817Y556955D01*
X844926Y557061D01*
X845061Y557130D01*
X847380Y558974D01*
X847478Y559090D01*
X847606Y559172D01*
X849732Y561234D01*
X849819Y561359D01*
X849937Y561453D01*
X850813Y562487D01*
X852492Y564166D01*
X852660Y564417D01*
X852873Y564630D01*
X855653Y568790D01*
X855768Y569068D01*
X855935Y569319D01*
X857850Y573941D01*
X857909Y574237D01*
X858024Y574515D01*
X859000Y579423D01*
X859000Y579724D01*
X859059Y580019D01*
X859059Y582521D01*
X859059Y716658D01*
X859059Y717928D01*
X928000D01*
X928000Y717928D01*
X928793Y718086D01*
X929465Y718535D01*
X929465Y718535D01*
X935465Y724535D01*
X935914Y725207D01*
X936072Y726000D01*
X936072Y726000D01*
Y921142D01*
X1005465Y990535D01*
X1005914Y991207D01*
X1006072Y992000D01*
X1006072Y992000D01*
Y1042000D01*
X1006072Y1042000D01*
X1005914Y1042793D01*
X1005465Y1043465D01*
X1005465Y1043465D01*
X999465Y1049465D01*
X998793Y1049914D01*
X998000Y1050072D01*
X998000Y1050072D01*
X980000D01*
X979207Y1049914D01*
X978535Y1049465D01*
X978535Y1049465D01*
X972924Y1043854D01*
X971474Y1044822D01*
X969000Y1045314D01*
X961400D01*
X958926Y1044822D01*
X957906Y1044140D01*
X966098Y1035948D01*
X964302Y1034152D01*
X956110Y1042344D01*
X955428Y1041324D01*
X954936Y1038850D01*
Y1031250D01*
X955315Y1029342D01*
X954487Y1028072D01*
X950513D01*
X949685Y1029342D01*
X950064Y1031250D01*
Y1038850D01*
X949572Y1041324D01*
X948890Y1042344D01*
X940698Y1034152D01*
X938902Y1035948D01*
X947094Y1044140D01*
X946074Y1044822D01*
X943600Y1045314D01*
X936000D01*
X933526Y1044822D01*
X931477Y1043453D01*
X919465Y1055465D01*
X918793Y1055914D01*
X918000Y1056072D01*
D02*
G37*
G36*
X677112Y1049588D02*
X674889D01*
X672993Y1048803D01*
X676000Y1045796D01*
X679007Y1048803D01*
X677112Y1049588D01*
D02*
G37*
G36*
X680803Y1047007D02*
X677796Y1044000D01*
X680803Y1040993D01*
X681588Y1042888D01*
Y1045111D01*
X680803Y1047007D01*
D02*
G37*
G36*
X671197Y1047007D02*
X670412Y1045111D01*
Y1042888D01*
X671197Y1040993D01*
X674204Y1044000D01*
X671197Y1047007D01*
D02*
G37*
G36*
X676000Y1042204D02*
X672993Y1039197D01*
X674889Y1038412D01*
X677112D01*
X679007Y1039197D01*
X676000Y1042204D01*
D02*
G37*
G36*
X784850Y1045314D02*
X777250D01*
X774776Y1044822D01*
X773756Y1044140D01*
X781050Y1036846D01*
X788344Y1044140D01*
X787324Y1044822D01*
X784850Y1045314D01*
D02*
G37*
G36*
X759450D02*
X751850D01*
X749376Y1044822D01*
X748356Y1044140D01*
X755650Y1036846D01*
X762944Y1044140D01*
X761924Y1044822D01*
X759450Y1045314D01*
D02*
G37*
G36*
X790140Y1042344D02*
X782846Y1035050D01*
X790140Y1027756D01*
X790822Y1028776D01*
X791314Y1031250D01*
Y1038850D01*
X790822Y1041324D01*
X790140Y1042344D01*
D02*
G37*
G36*
X771960Y1042344D02*
X771278Y1041324D01*
X770786Y1038850D01*
Y1031250D01*
X771278Y1028776D01*
X771960Y1027756D01*
X779254Y1035050D01*
X771960Y1042344D01*
D02*
G37*
G36*
X746560Y1042344D02*
X745878Y1041324D01*
X745386Y1038850D01*
Y1031250D01*
X745878Y1028776D01*
X746560Y1027756D01*
X753854Y1035050D01*
X746560Y1042344D01*
D02*
G37*
G36*
X764740D02*
X757446Y1035050D01*
X764740Y1027756D01*
X765422Y1028776D01*
X765914Y1031250D01*
Y1038850D01*
X765422Y1041324D01*
X764740Y1042344D01*
D02*
G37*
G36*
X807718Y1044682D02*
X805182D01*
X802732Y1044026D01*
X800536Y1042757D01*
X798743Y1040964D01*
X797474Y1038768D01*
X796818Y1036318D01*
Y1033782D01*
X797474Y1031332D01*
X798743Y1029136D01*
X800536Y1027343D01*
X802732Y1026074D01*
X805182Y1025418D01*
X807718D01*
X810168Y1026074D01*
X812364Y1027343D01*
X814157Y1029136D01*
X815426Y1031332D01*
X816082Y1033782D01*
Y1036318D01*
X815426Y1038768D01*
X814157Y1040964D01*
X812364Y1042757D01*
X810168Y1044026D01*
X807718Y1044682D01*
D02*
G37*
G36*
X731518D02*
X728982D01*
X726532Y1044026D01*
X724336Y1042757D01*
X722542Y1040964D01*
X721274Y1038768D01*
X720618Y1036318D01*
Y1033782D01*
X721274Y1031332D01*
X722542Y1029136D01*
X724336Y1027343D01*
X726532Y1026074D01*
X728982Y1025418D01*
X731518D01*
X733968Y1026074D01*
X736164Y1027343D01*
X737958Y1029136D01*
X739226Y1031332D01*
X739882Y1033782D01*
Y1036318D01*
X739226Y1038768D01*
X737958Y1040964D01*
X736164Y1042757D01*
X733968Y1044026D01*
X731518Y1044682D01*
D02*
G37*
G36*
X706118D02*
X703582D01*
X701132Y1044026D01*
X698936Y1042757D01*
X697142Y1040964D01*
X695874Y1038768D01*
X695218Y1036318D01*
Y1033782D01*
X695874Y1031332D01*
X697142Y1029136D01*
X698936Y1027343D01*
X701132Y1026074D01*
X703582Y1025418D01*
X706118D01*
X708568Y1026074D01*
X710764Y1027343D01*
X712558Y1029136D01*
X713826Y1031332D01*
X714482Y1033782D01*
Y1036318D01*
X713826Y1038768D01*
X712558Y1040964D01*
X710764Y1042757D01*
X708568Y1044026D01*
X706118Y1044682D01*
D02*
G37*
G36*
X781050Y1033254D02*
X773756Y1025960D01*
X774776Y1025278D01*
X777250Y1024786D01*
X784850D01*
X787324Y1025278D01*
X788344Y1025960D01*
X781050Y1033254D01*
D02*
G37*
G36*
X755650D02*
X748356Y1025960D01*
X749376Y1025278D01*
X751850Y1024786D01*
X759450D01*
X761924Y1025278D01*
X762944Y1025960D01*
X755650Y1033254D01*
D02*
G37*
G36*
X708650Y1019396D02*
X701050D01*
X698774Y1018944D01*
X696845Y1017655D01*
X695556Y1015725D01*
X695104Y1013450D01*
Y1005850D01*
X695556Y1003575D01*
X696845Y1001645D01*
X698774Y1000356D01*
X701050Y999904D01*
X708650D01*
X710926Y1000356D01*
X712855Y1001645D01*
X714144Y1003575D01*
X714596Y1005850D01*
Y1013450D01*
X714144Y1015725D01*
X712855Y1017655D01*
X710926Y1018944D01*
X708650Y1019396D01*
D02*
G37*
G36*
X731780Y964732D02*
X728740D01*
X725759Y964139D01*
X722950Y962976D01*
X720423Y961287D01*
X718273Y959137D01*
X716584Y956610D01*
X715421Y953801D01*
X714828Y950820D01*
Y947780D01*
X715421Y944799D01*
X716584Y941990D01*
X718273Y939463D01*
X720423Y937313D01*
X722950Y935624D01*
X725759Y934461D01*
X728740Y933868D01*
X731780D01*
X734761Y934461D01*
X737570Y935624D01*
X740097Y937313D01*
X742247Y939463D01*
X743936Y941990D01*
X745099Y944799D01*
X745692Y947780D01*
Y950820D01*
X745099Y953801D01*
X743936Y956610D01*
X742247Y959137D01*
X740097Y961287D01*
X737570Y962976D01*
X734761Y964139D01*
X731780Y964732D01*
D02*
G37*
G36*
X731307Y922432D02*
X729193D01*
X727150Y921885D01*
X725318Y920827D01*
X723823Y919332D01*
X722765Y917500D01*
X722218Y915457D01*
Y913343D01*
X722765Y911300D01*
X723823Y909468D01*
X725318Y907973D01*
X727150Y906915D01*
X729193Y906368D01*
X731307D01*
X733350Y906915D01*
X735182Y907973D01*
X736677Y909468D01*
X737735Y911300D01*
X738282Y913343D01*
Y915457D01*
X737735Y917500D01*
X736677Y919332D01*
X735182Y920827D01*
X733350Y921885D01*
X731307Y922432D01*
D02*
G37*
G36*
X712257Y909732D02*
X710143D01*
X708100Y909185D01*
X706268Y908127D01*
X704773Y906632D01*
X703715Y904800D01*
X703168Y902757D01*
Y900643D01*
X703715Y898600D01*
X704773Y896768D01*
X706268Y895273D01*
X708100Y894215D01*
X710143Y893668D01*
X712257D01*
X714300Y894215D01*
X716132Y895273D01*
X717627Y896768D01*
X718685Y898600D01*
X719232Y900643D01*
Y902757D01*
X718685Y904800D01*
X717627Y906632D01*
X716132Y908127D01*
X714300Y909185D01*
X712257Y909732D01*
D02*
G37*
G36*
X731307Y897032D02*
X729193D01*
X727150Y896485D01*
X725318Y895427D01*
X723823Y893932D01*
X722765Y892100D01*
X722218Y890057D01*
Y887943D01*
X722765Y885900D01*
X723823Y884068D01*
X725318Y882573D01*
X727150Y881515D01*
X729193Y880968D01*
X731307D01*
X733350Y881515D01*
X735182Y882573D01*
X736677Y884068D01*
X737735Y885900D01*
X738282Y887943D01*
Y890057D01*
X737735Y892100D01*
X736677Y893932D01*
X735182Y895427D01*
X733350Y896485D01*
X731307Y897032D01*
D02*
G37*
G36*
X712324Y884850D02*
X710076D01*
X707904Y884268D01*
X706087Y883219D01*
X711200Y878106D01*
X716313Y883219D01*
X714496Y884268D01*
X712324Y884850D01*
D02*
G37*
G36*
X704291Y881423D02*
X703242Y879606D01*
X702660Y877434D01*
Y875186D01*
X703242Y873014D01*
X704291Y871197D01*
X709404Y876310D01*
X704291Y881423D01*
D02*
G37*
G36*
X718109Y881423D02*
X712996Y876310D01*
X718109Y871197D01*
X719158Y873014D01*
X719740Y875186D01*
Y877434D01*
X719158Y879606D01*
X718109Y881423D01*
D02*
G37*
G36*
X711200Y874514D02*
X706087Y869401D01*
X707904Y868352D01*
X710076Y867770D01*
X712324D01*
X714496Y868352D01*
X716313Y869401D01*
X711200Y874514D01*
D02*
G37*
G36*
X731374Y872140D02*
X729126D01*
X726954Y871558D01*
X725137Y870509D01*
X730250Y865396D01*
X735363Y870509D01*
X733546Y871558D01*
X731374Y872140D01*
D02*
G37*
G36*
X723341Y868713D02*
X722292Y866896D01*
X721710Y864724D01*
Y862476D01*
X722292Y860304D01*
X723341Y858487D01*
X728454Y863600D01*
X723341Y868713D01*
D02*
G37*
G36*
X737159D02*
X732046Y863600D01*
X737159Y858487D01*
X738208Y860304D01*
X738790Y862476D01*
Y864724D01*
X738208Y866896D01*
X737159Y868713D01*
D02*
G37*
G36*
X730250Y861804D02*
X725137Y856691D01*
X726954Y855642D01*
X729126Y855060D01*
X731374D01*
X733546Y855642D01*
X735363Y856691D01*
X730250Y861804D01*
D02*
G37*
G36*
X712324Y859440D02*
X710076D01*
X707904Y858858D01*
X706087Y857809D01*
X711200Y852696D01*
X716313Y857809D01*
X714496Y858858D01*
X712324Y859440D01*
D02*
G37*
G36*
X704291Y856013D02*
X703242Y854196D01*
X702660Y852024D01*
Y849776D01*
X703242Y847604D01*
X704291Y845787D01*
X709404Y850900D01*
X704291Y856013D01*
D02*
G37*
G36*
X718109D02*
X712996Y850900D01*
X718109Y845787D01*
X719158Y847604D01*
X719740Y849776D01*
Y852024D01*
X719158Y854196D01*
X718109Y856013D01*
D02*
G37*
G36*
X711200Y849104D02*
X706087Y843991D01*
X707904Y842942D01*
X710076Y842360D01*
X712324D01*
X714496Y842942D01*
X716313Y843991D01*
X711200Y849104D01*
D02*
G37*
G36*
X731307Y846232D02*
X729193D01*
X727150Y845685D01*
X725318Y844627D01*
X723823Y843132D01*
X722765Y841300D01*
X722218Y839257D01*
Y837143D01*
X722765Y835100D01*
X723823Y833268D01*
X725318Y831773D01*
X727150Y830715D01*
X729193Y830168D01*
X731307D01*
X733350Y830715D01*
X735182Y831773D01*
X736677Y833268D01*
X737735Y835100D01*
X738282Y837143D01*
Y839257D01*
X737735Y841300D01*
X736677Y843132D01*
X735182Y844627D01*
X733350Y845685D01*
X731307Y846232D01*
D02*
G37*
G36*
X712257Y833532D02*
X710143D01*
X708100Y832985D01*
X706268Y831927D01*
X704773Y830432D01*
X703715Y828600D01*
X703168Y826557D01*
Y824443D01*
X703715Y822400D01*
X704773Y820568D01*
X706268Y819073D01*
X708100Y818015D01*
X710143Y817468D01*
X712257D01*
X714300Y818015D01*
X716132Y819073D01*
X717627Y820568D01*
X718685Y822400D01*
X719232Y824443D01*
Y826557D01*
X718685Y828600D01*
X717627Y830432D01*
X716132Y831927D01*
X714300Y832985D01*
X712257Y833532D01*
D02*
G37*
G36*
X731307Y820832D02*
X729193D01*
X727150Y820285D01*
X725318Y819227D01*
X723823Y817732D01*
X722765Y815900D01*
X722218Y813857D01*
Y811743D01*
X722765Y809700D01*
X723823Y807868D01*
X725318Y806373D01*
X727150Y805315D01*
X729193Y804768D01*
X731307D01*
X733350Y805315D01*
X735182Y806373D01*
X736677Y807868D01*
X737735Y809700D01*
X738282Y811743D01*
Y813857D01*
X737735Y815900D01*
X736677Y817732D01*
X735182Y819227D01*
X733350Y820285D01*
X731307Y820832D01*
D02*
G37*
G36*
X712324Y808640D02*
X710076D01*
X707904Y808058D01*
X706087Y807009D01*
X711200Y801896D01*
X716313Y807009D01*
X714496Y808058D01*
X712324Y808640D01*
D02*
G37*
G36*
X704291Y805213D02*
X703242Y803396D01*
X702660Y801224D01*
Y798976D01*
X703242Y796804D01*
X704291Y794987D01*
X709404Y800100D01*
X704291Y805213D01*
D02*
G37*
G36*
X718109D02*
X712996Y800100D01*
X718109Y794987D01*
X719158Y796804D01*
X719740Y798976D01*
Y801224D01*
X719158Y803396D01*
X718109Y805213D01*
D02*
G37*
G36*
X711200Y798304D02*
X706087Y793191D01*
X707904Y792142D01*
X710076Y791560D01*
X712324D01*
X714496Y792142D01*
X716313Y793191D01*
X711200Y798304D01*
D02*
G37*
G36*
X731374Y795940D02*
X729126D01*
X726954Y795358D01*
X725137Y794309D01*
X730250Y789196D01*
X735363Y794309D01*
X733546Y795358D01*
X731374Y795940D01*
D02*
G37*
G36*
X723341Y792513D02*
X722292Y790696D01*
X721710Y788524D01*
Y786276D01*
X722292Y784104D01*
X723341Y782287D01*
X728454Y787400D01*
X723341Y792513D01*
D02*
G37*
G36*
X712324Y783240D02*
X710076D01*
X707904Y782658D01*
X706087Y781609D01*
X711200Y776496D01*
X716313Y781609D01*
X714496Y782658D01*
X712324Y783240D01*
D02*
G37*
G36*
Y681640D02*
X710076D01*
X707904Y681058D01*
X706087Y680009D01*
X711200Y674896D01*
X716313Y680009D01*
X714496Y681058D01*
X712324Y681640D01*
D02*
G37*
G36*
X892324D02*
X890076D01*
X887904Y681058D01*
X886087Y680009D01*
X891200Y674896D01*
X896313Y680009D01*
X894496Y681058D01*
X892324Y681640D01*
D02*
G37*
G36*
X704291Y678213D02*
X703242Y676396D01*
X702660Y674224D01*
Y671976D01*
X703242Y669804D01*
X704291Y667987D01*
X709404Y673100D01*
X704291Y678213D01*
D02*
G37*
G36*
X718109D02*
X712996Y673100D01*
X718109Y667987D01*
X719158Y669804D01*
X719740Y671976D01*
Y674224D01*
X719158Y676396D01*
X718109Y678213D01*
D02*
G37*
G36*
X898109Y678213D02*
X892996Y673100D01*
X898109Y667987D01*
X899158Y669804D01*
X899740Y671976D01*
Y674224D01*
X899158Y676396D01*
X898109Y678213D01*
D02*
G37*
G36*
X884291Y678213D02*
X883242Y676396D01*
X882660Y674224D01*
Y671976D01*
X883242Y669804D01*
X884291Y667987D01*
X889404Y673100D01*
X884291Y678213D01*
D02*
G37*
G36*
X891200Y671304D02*
X886087Y666191D01*
X887904Y665142D01*
X890076Y664560D01*
X892324D01*
X894496Y665142D01*
X896313Y666191D01*
X891200Y671304D01*
D02*
G37*
G36*
X711200Y671304D02*
X706087Y666191D01*
X707904Y665142D01*
X710076Y664560D01*
X712324D01*
X714496Y665142D01*
X716313Y666191D01*
X711200Y671304D01*
D02*
G37*
G36*
X911307Y668442D02*
X909193D01*
X907150Y667895D01*
X905318Y666837D01*
X903823Y665342D01*
X902765Y663510D01*
X902218Y661467D01*
Y659353D01*
X902765Y657310D01*
X903823Y655478D01*
X905318Y653983D01*
X907150Y652925D01*
X909193Y652378D01*
X911307D01*
X913350Y652925D01*
X915182Y653983D01*
X916677Y655478D01*
X917735Y657310D01*
X918282Y659353D01*
Y661467D01*
X917735Y663510D01*
X916677Y665342D01*
X915182Y666837D01*
X913350Y667895D01*
X911307Y668442D01*
D02*
G37*
G36*
X731307D02*
X729193D01*
X727150Y667895D01*
X725318Y666837D01*
X723823Y665342D01*
X722765Y663510D01*
X722218Y661467D01*
Y659353D01*
X722765Y657310D01*
X723823Y655478D01*
X725318Y653983D01*
X727150Y652925D01*
X729193Y652378D01*
X731307D01*
X733350Y652925D01*
X735182Y653983D01*
X736677Y655478D01*
X737735Y657310D01*
X738282Y659353D01*
Y661467D01*
X737735Y663510D01*
X736677Y665342D01*
X735182Y666837D01*
X733350Y667895D01*
X731307Y668442D01*
D02*
G37*
G36*
X892257Y655732D02*
X890143D01*
X888100Y655185D01*
X886268Y654127D01*
X884773Y652632D01*
X883715Y650800D01*
X883168Y648757D01*
Y646643D01*
X883715Y644600D01*
X884773Y642768D01*
X886268Y641273D01*
X888100Y640215D01*
X890143Y639668D01*
X892257D01*
X894300Y640215D01*
X896132Y641273D01*
X897627Y642768D01*
X898685Y644600D01*
X899232Y646643D01*
Y648757D01*
X898685Y650800D01*
X897627Y652632D01*
X896132Y654127D01*
X894300Y655185D01*
X892257Y655732D01*
D02*
G37*
G36*
X712257D02*
X710143D01*
X708100Y655185D01*
X706268Y654127D01*
X704773Y652632D01*
X703715Y650800D01*
X703168Y648757D01*
Y646643D01*
X703715Y644600D01*
X704773Y642768D01*
X706268Y641273D01*
X708100Y640215D01*
X710143Y639668D01*
X712257D01*
X714300Y640215D01*
X716132Y641273D01*
X717627Y642768D01*
X718685Y644600D01*
X719232Y646643D01*
Y648757D01*
X718685Y650800D01*
X717627Y652632D01*
X716132Y654127D01*
X714300Y655185D01*
X712257Y655732D01*
D02*
G37*
G36*
X731374Y643540D02*
X729126D01*
X726954Y642958D01*
X725137Y641909D01*
X730250Y636796D01*
X735363Y641909D01*
X733546Y642958D01*
X731374Y643540D01*
D02*
G37*
G36*
X911374D02*
X909126D01*
X906954Y642958D01*
X905137Y641909D01*
X910250Y636796D01*
X915363Y641909D01*
X913546Y642958D01*
X911374Y643540D01*
D02*
G37*
G36*
X723341Y640113D02*
X722292Y638296D01*
X721710Y636124D01*
Y633876D01*
X722292Y631704D01*
X723341Y629887D01*
X728454Y635000D01*
X723341Y640113D01*
D02*
G37*
G36*
X737159D02*
X732046Y635000D01*
X737159Y629887D01*
X738208Y631704D01*
X738790Y633876D01*
Y636124D01*
X738208Y638296D01*
X737159Y640113D01*
D02*
G37*
G36*
X917159Y640113D02*
X912046Y635000D01*
X917159Y629887D01*
X918208Y631704D01*
X918790Y633876D01*
Y636124D01*
X918208Y638296D01*
X917159Y640113D01*
D02*
G37*
G36*
X903341Y640113D02*
X902292Y638296D01*
X901710Y636124D01*
Y633876D01*
X902292Y631704D01*
X903341Y629887D01*
X908454Y635000D01*
X903341Y640113D01*
D02*
G37*
G36*
X910250Y633204D02*
X905137Y628091D01*
X906954Y627042D01*
X909126Y626460D01*
X911374D01*
X913546Y627042D01*
X915363Y628091D01*
X910250Y633204D01*
D02*
G37*
G36*
X730250Y633204D02*
X725137Y628091D01*
X726954Y627042D01*
X729126Y626460D01*
X731374D01*
X733546Y627042D01*
X735363Y628091D01*
X730250Y633204D01*
D02*
G37*
G36*
X892257Y630332D02*
X890143D01*
X888100Y629785D01*
X886268Y628727D01*
X884773Y627232D01*
X883715Y625400D01*
X883168Y623357D01*
Y621243D01*
X883715Y619200D01*
X884773Y617368D01*
X886268Y615873D01*
X888100Y614815D01*
X890143Y614268D01*
X892257D01*
X894300Y614815D01*
X896132Y615873D01*
X897627Y617368D01*
X898685Y619200D01*
X899232Y621243D01*
Y623357D01*
X898685Y625400D01*
X897627Y627232D01*
X896132Y628727D01*
X894300Y629785D01*
X892257Y630332D01*
D02*
G37*
G36*
X712257D02*
X710143D01*
X708100Y629785D01*
X706268Y628727D01*
X704773Y627232D01*
X703715Y625400D01*
X703168Y623357D01*
Y621243D01*
X703715Y619200D01*
X704773Y617368D01*
X706268Y615873D01*
X708100Y614815D01*
X710143Y614268D01*
X712257D01*
X714300Y614815D01*
X716132Y615873D01*
X717627Y617368D01*
X718685Y619200D01*
X719232Y621243D01*
Y623357D01*
X718685Y625400D01*
X717627Y627232D01*
X716132Y628727D01*
X714300Y629785D01*
X712257Y630332D01*
D02*
G37*
G36*
X911307Y617632D02*
X909193D01*
X907150Y617085D01*
X905318Y616027D01*
X903823Y614532D01*
X902765Y612700D01*
X902218Y610657D01*
Y608543D01*
X902765Y606500D01*
X903823Y604668D01*
X905318Y603173D01*
X907150Y602115D01*
X909193Y601568D01*
X911307D01*
X913350Y602115D01*
X915182Y603173D01*
X916677Y604668D01*
X917735Y606500D01*
X918282Y608543D01*
Y610657D01*
X917735Y612700D01*
X916677Y614532D01*
X915182Y616027D01*
X913350Y617085D01*
X911307Y617632D01*
D02*
G37*
G36*
X731307D02*
X729193D01*
X727150Y617085D01*
X725318Y616027D01*
X723823Y614532D01*
X722765Y612700D01*
X722218Y610657D01*
Y608543D01*
X722765Y606500D01*
X723823Y604668D01*
X725318Y603173D01*
X727150Y602115D01*
X729193Y601568D01*
X731307D01*
X733350Y602115D01*
X735182Y603173D01*
X736677Y604668D01*
X737735Y606500D01*
X738282Y608543D01*
Y610657D01*
X737735Y612700D01*
X736677Y614532D01*
X735182Y616027D01*
X733350Y617085D01*
X731307Y617632D01*
D02*
G37*
G36*
X712324Y605440D02*
X710076D01*
X707904Y604858D01*
X706087Y603809D01*
X711200Y598696D01*
X716313Y603809D01*
X714496Y604858D01*
X712324Y605440D01*
D02*
G37*
G36*
X892324D02*
X890076D01*
X887904Y604858D01*
X886087Y603809D01*
X891200Y598696D01*
X896313Y603809D01*
X894496Y604858D01*
X892324Y605440D01*
D02*
G37*
G36*
X704291Y602013D02*
X703242Y600196D01*
X702660Y598024D01*
Y595776D01*
X703242Y593604D01*
X704291Y591787D01*
X709404Y596900D01*
X704291Y602013D01*
D02*
G37*
G36*
X718109D02*
X712996Y596900D01*
X718109Y591787D01*
X719158Y593604D01*
X719740Y595776D01*
Y598024D01*
X719158Y600196D01*
X718109Y602013D01*
D02*
G37*
G36*
X898109Y602013D02*
X892996Y596900D01*
X898109Y591787D01*
X899158Y593604D01*
X899740Y595776D01*
Y598024D01*
X899158Y600196D01*
X898109Y602013D01*
D02*
G37*
G36*
X884291Y602013D02*
X883242Y600196D01*
X882660Y598024D01*
Y595776D01*
X883242Y593604D01*
X884291Y591787D01*
X889404Y596900D01*
X884291Y602013D01*
D02*
G37*
G36*
X891200Y595104D02*
X886087Y589991D01*
X887904Y588942D01*
X890076Y588360D01*
X892324D01*
X894496Y588942D01*
X896313Y589991D01*
X891200Y595104D01*
D02*
G37*
G36*
X711200Y595104D02*
X706087Y589991D01*
X707904Y588942D01*
X710076Y588360D01*
X712324D01*
X714496Y588942D01*
X716313Y589991D01*
X711200Y595104D01*
D02*
G37*
G36*
X911780Y577432D02*
X908740D01*
X905759Y576839D01*
X902950Y575676D01*
X900423Y573987D01*
X898273Y571837D01*
X896584Y569310D01*
X895421Y566501D01*
X894828Y563520D01*
Y560480D01*
X895421Y557499D01*
X896584Y554690D01*
X898273Y552163D01*
X900423Y550013D01*
X902950Y548324D01*
X905759Y547161D01*
X908740Y546568D01*
X911780D01*
X914761Y547161D01*
X917570Y548324D01*
X920097Y550013D01*
X922247Y552163D01*
X923936Y554690D01*
X925099Y557499D01*
X925692Y560480D01*
Y563520D01*
X925099Y566501D01*
X923936Y569310D01*
X922247Y571837D01*
X920097Y573987D01*
X917570Y575676D01*
X914761Y576839D01*
X911780Y577432D01*
D02*
G37*
G36*
X731780D02*
X728740D01*
X725759Y576839D01*
X722950Y575676D01*
X720423Y573987D01*
X718273Y571837D01*
X716584Y569310D01*
X715421Y566501D01*
X714828Y563520D01*
Y560480D01*
X715421Y557499D01*
X716584Y554690D01*
X718273Y552163D01*
X720423Y550013D01*
X722950Y548324D01*
X725759Y547161D01*
X728740Y546568D01*
X731780D01*
X734761Y547161D01*
X737570Y548324D01*
X740097Y550013D01*
X742247Y552163D01*
X743936Y554690D01*
X745099Y557499D01*
X745692Y560480D01*
Y563520D01*
X745099Y566501D01*
X743936Y569310D01*
X742247Y571837D01*
X740097Y573987D01*
X737570Y575676D01*
X734761Y576839D01*
X731780Y577432D01*
D02*
G37*
G36*
X718970Y525140D02*
X716130D01*
X713385Y524405D01*
X710925Y522984D01*
X710818Y522878D01*
X717550Y516146D01*
X724282Y522878D01*
X724175Y522984D01*
X721715Y524405D01*
X718970Y525140D01*
D02*
G37*
G36*
X693570D02*
X690730D01*
X687985Y524405D01*
X685525Y522984D01*
X685418Y522878D01*
X692150Y516146D01*
X698882Y522878D01*
X698775Y522984D01*
X696315Y524405D01*
X693570Y525140D01*
D02*
G37*
G36*
X726078Y521082D02*
X719346Y514350D01*
X726078Y507618D01*
X726184Y507725D01*
X727605Y510185D01*
X728340Y512929D01*
Y515770D01*
X727605Y518515D01*
X726184Y520975D01*
X726078Y521082D01*
D02*
G37*
G36*
X700678D02*
X693946Y514350D01*
X700678Y507618D01*
X700784Y507725D01*
X702205Y510185D01*
X702940Y512929D01*
Y515770D01*
X702205Y518515D01*
X700784Y520975D01*
X700678Y521082D01*
D02*
G37*
G36*
X709022D02*
X708916Y520975D01*
X707495Y518515D01*
X706760Y515770D01*
Y512929D01*
X707495Y510185D01*
X708916Y507725D01*
X709022Y507618D01*
X715754Y514350D01*
X709022Y521082D01*
D02*
G37*
G36*
X683622D02*
X683516Y520975D01*
X682095Y518515D01*
X681360Y515770D01*
Y512929D01*
X682095Y510185D01*
X683516Y507725D01*
X683622Y507618D01*
X690354Y514350D01*
X683622Y521082D01*
D02*
G37*
G36*
X909305Y523882D02*
X906795D01*
X904371Y523232D01*
X902197Y521978D01*
X900423Y520203D01*
X899168Y518029D01*
X898518Y515605D01*
Y513095D01*
X899168Y510671D01*
X900423Y508497D01*
X902197Y506722D01*
X904371Y505468D01*
X906795Y504818D01*
X909305D01*
X911729Y505468D01*
X913903Y506722D01*
X915677Y508497D01*
X916932Y510671D01*
X917582Y513095D01*
Y515605D01*
X916932Y518029D01*
X915677Y520203D01*
X913903Y521978D01*
X911729Y523232D01*
X909305Y523882D01*
D02*
G37*
G36*
X883905D02*
X881395D01*
X878971Y523232D01*
X876797Y521978D01*
X875023Y520203D01*
X873768Y518029D01*
X873118Y515605D01*
Y513095D01*
X873768Y510671D01*
X875023Y508497D01*
X876797Y506722D01*
X878971Y505468D01*
X881395Y504818D01*
X883905D01*
X886329Y505468D01*
X888503Y506722D01*
X890277Y508497D01*
X891532Y510671D01*
X892182Y513095D01*
Y515605D01*
X891532Y518029D01*
X890277Y520203D01*
X888503Y521978D01*
X886329Y523232D01*
X883905Y523882D01*
D02*
G37*
G36*
X717550Y512554D02*
X710818Y505822D01*
X710925Y505716D01*
X713385Y504295D01*
X716130Y503560D01*
X718970D01*
X721715Y504295D01*
X724175Y505716D01*
X724282Y505822D01*
X717550Y512554D01*
D02*
G37*
G36*
X692150D02*
X685418Y505822D01*
X685525Y505716D01*
X687985Y504295D01*
X690730Y503560D01*
X693570D01*
X696315Y504295D01*
X698775Y505716D01*
X698882Y505822D01*
X692150Y512554D01*
D02*
G37*
G36*
X883972Y498990D02*
X881328D01*
X878775Y498306D01*
X876485Y496984D01*
X876449Y496947D01*
X882650Y490746D01*
X888851Y496947D01*
X888815Y496984D01*
X886525Y498306D01*
X883972Y498990D01*
D02*
G37*
G36*
X911800Y499113D02*
X904300D01*
X901846Y498625D01*
X900842Y497954D01*
X908050Y490746D01*
X915258Y497954D01*
X914254Y498625D01*
X911800Y499113D01*
D02*
G37*
G36*
X874653Y495151D02*
X874616Y495115D01*
X873294Y492825D01*
X872610Y490272D01*
Y487628D01*
X873294Y485075D01*
X874616Y482785D01*
X874653Y482749D01*
X880854Y488950D01*
X874653Y495151D01*
D02*
G37*
G36*
X890647D02*
X884446Y488950D01*
X890647Y482749D01*
X890684Y482785D01*
X892006Y485075D01*
X892690Y487628D01*
Y490272D01*
X892006Y492825D01*
X890684Y495115D01*
X890647Y495151D01*
D02*
G37*
G36*
X899046Y496158D02*
X898375Y495154D01*
X897887Y492700D01*
Y485200D01*
X898375Y482746D01*
X899046Y481742D01*
X906254Y488950D01*
X899046Y496158D01*
D02*
G37*
G36*
X917054D02*
X909846Y488950D01*
X917054Y481742D01*
X917725Y482746D01*
X918213Y485200D01*
Y492700D01*
X917725Y495154D01*
X917054Y496158D01*
D02*
G37*
G36*
X857112Y483588D02*
X854889D01*
X852993Y482803D01*
X856000Y479796D01*
X859007Y482803D01*
X857112Y483588D01*
D02*
G37*
G36*
X882650Y487154D02*
X876449Y480953D01*
X876485Y480916D01*
X878775Y479594D01*
X881328Y478910D01*
X883972D01*
X886525Y479594D01*
X888815Y480916D01*
X888851Y480953D01*
X882650Y487154D01*
D02*
G37*
G36*
X908050D02*
X900842Y479946D01*
X901846Y479275D01*
X904300Y478787D01*
X911800D01*
X914254Y479275D01*
X915258Y479946D01*
X908050Y487154D01*
D02*
G37*
G36*
X718904Y499232D02*
X716196D01*
X713581Y498531D01*
X711237Y497178D01*
X709322Y495263D01*
X707969Y492919D01*
X707268Y490304D01*
Y487596D01*
X707969Y484981D01*
X709322Y482637D01*
X711237Y480722D01*
X713581Y479369D01*
X716196Y478668D01*
X718904D01*
X721519Y479369D01*
X723863Y480722D01*
X725778Y482637D01*
X727131Y484981D01*
X727832Y487596D01*
Y490304D01*
X727131Y492919D01*
X725778Y495263D01*
X723863Y497178D01*
X721519Y498531D01*
X718904Y499232D01*
D02*
G37*
G36*
X696275Y499353D02*
X688025D01*
X685623Y498875D01*
X683586Y497514D01*
X682225Y495477D01*
X681747Y493075D01*
Y484825D01*
X682225Y482423D01*
X683586Y480386D01*
X685623Y479025D01*
X688025Y478547D01*
X696275D01*
X698677Y479025D01*
X700714Y480386D01*
X702075Y482423D01*
X702553Y484825D01*
Y493075D01*
X702075Y495477D01*
X700714Y497514D01*
X698677Y498875D01*
X696275Y499353D01*
D02*
G37*
G36*
X860803Y481007D02*
X857796Y478000D01*
X860803Y474993D01*
X861588Y476889D01*
Y479112D01*
X860803Y481007D01*
D02*
G37*
G36*
X851197Y481007D02*
X850412Y479112D01*
Y476889D01*
X851197Y474993D01*
X854204Y478000D01*
X851197Y481007D01*
D02*
G37*
G36*
X856000Y476204D02*
X852993Y473197D01*
X854889Y472412D01*
X857112D01*
X859007Y473197D01*
X856000Y476204D01*
D02*
G37*
G36*
X959111Y447588D02*
X956889D01*
X954993Y446803D01*
X958000Y443796D01*
X961007Y446803D01*
X959111Y447588D01*
D02*
G37*
G36*
X781112D02*
X778888D01*
X776993Y446803D01*
X780000Y443796D01*
X783007Y446803D01*
X781112Y447588D01*
D02*
G37*
G36*
X921112D02*
X918888D01*
X916993Y446803D01*
X920000Y443796D01*
X923007Y446803D01*
X921112Y447588D01*
D02*
G37*
G36*
X883111D02*
X880889D01*
X878993Y446803D01*
X882000Y443796D01*
X885007Y446803D01*
X883111Y447588D01*
D02*
G37*
G36*
X743111D02*
X740889D01*
X738993Y446803D01*
X742000Y443796D01*
X745007Y446803D01*
X743111Y447588D01*
D02*
G37*
G36*
X705111D02*
X702888D01*
X700993Y446803D01*
X704000Y443796D01*
X707007Y446803D01*
X705111Y447588D01*
D02*
G37*
G36*
X784803Y445007D02*
X781796Y442000D01*
X784803Y438993D01*
X785588Y440888D01*
Y443111D01*
X784803Y445007D01*
D02*
G37*
G36*
X962803D02*
X959796Y442000D01*
X962803Y438993D01*
X963588Y440888D01*
Y443111D01*
X962803Y445007D01*
D02*
G37*
G36*
X924803D02*
X921796Y442000D01*
X924803Y438993D01*
X925588Y440888D01*
Y443111D01*
X924803Y445007D01*
D02*
G37*
G36*
X886803D02*
X883796Y442000D01*
X886803Y438993D01*
X887588Y440888D01*
Y443111D01*
X886803Y445007D01*
D02*
G37*
G36*
X746803D02*
X743796Y442000D01*
X746803Y438993D01*
X747588Y440888D01*
Y443111D01*
X746803Y445007D01*
D02*
G37*
G36*
X708803D02*
X705796Y442000D01*
X708803Y438993D01*
X709588Y440888D01*
Y443111D01*
X708803Y445007D01*
D02*
G37*
G36*
X953197Y445007D02*
X952412Y443111D01*
Y440888D01*
X953197Y438993D01*
X956204Y442000D01*
X953197Y445007D01*
D02*
G37*
G36*
X915197D02*
X914412Y443111D01*
Y440888D01*
X915197Y438993D01*
X918204Y442000D01*
X915197Y445007D01*
D02*
G37*
G36*
X877197D02*
X876412Y443111D01*
Y440888D01*
X877197Y438993D01*
X880204Y442000D01*
X877197Y445007D01*
D02*
G37*
G36*
X775197D02*
X774412Y443111D01*
Y440888D01*
X775197Y438993D01*
X778204Y442000D01*
X775197Y445007D01*
D02*
G37*
G36*
X737197D02*
X736412Y443111D01*
Y440888D01*
X737197Y438993D01*
X740204Y442000D01*
X737197Y445007D01*
D02*
G37*
G36*
X699197D02*
X698412Y443111D01*
Y440888D01*
X699197Y438993D01*
X702204Y442000D01*
X699197Y445007D01*
D02*
G37*
G36*
X958000Y440204D02*
X954993Y437197D01*
X956889Y436412D01*
X959111D01*
X961007Y437197D01*
X958000Y440204D01*
D02*
G37*
G36*
X920000D02*
X916993Y437197D01*
X918888Y436412D01*
X921112D01*
X923007Y437197D01*
X920000Y440204D01*
D02*
G37*
G36*
X882000D02*
X878993Y437197D01*
X880889Y436412D01*
X883111D01*
X885007Y437197D01*
X882000Y440204D01*
D02*
G37*
G36*
X780000D02*
X776993Y437197D01*
X778888Y436412D01*
X781112D01*
X783007Y437197D01*
X780000Y440204D01*
D02*
G37*
G36*
X742000D02*
X738993Y437197D01*
X740889Y436412D01*
X743111D01*
X745007Y437197D01*
X742000Y440204D01*
D02*
G37*
G36*
X704000D02*
X700993Y437197D01*
X702888Y436412D01*
X705111D01*
X707007Y437197D01*
X704000Y440204D01*
D02*
G37*
G36*
X858934Y444590D02*
X855566D01*
X852313Y443718D01*
X849397Y442034D01*
X849104Y441742D01*
X857250Y433596D01*
X865396Y441742D01*
X865103Y442034D01*
X862187Y443718D01*
X858934Y444590D01*
D02*
G37*
G36*
X681134D02*
X677766D01*
X674513Y443718D01*
X671597Y442034D01*
X671304Y441742D01*
X679450Y433596D01*
X687596Y441742D01*
X687303Y442034D01*
X684387Y443718D01*
X681134Y444590D01*
D02*
G37*
G36*
X847308Y439946D02*
X847016Y439653D01*
X845332Y436737D01*
X844460Y433484D01*
Y430116D01*
X845332Y426863D01*
X847016Y423947D01*
X847308Y423654D01*
X855454Y431800D01*
X847308Y439946D01*
D02*
G37*
G36*
X669508D02*
X669215Y439653D01*
X667532Y436737D01*
X666660Y433484D01*
Y430116D01*
X667532Y426863D01*
X669215Y423947D01*
X669508Y423654D01*
X677654Y431800D01*
X669508Y439946D01*
D02*
G37*
G36*
X867192D02*
X859046Y431800D01*
X867192Y423654D01*
X867485Y423947D01*
X869168Y426863D01*
X870040Y430116D01*
Y433484D01*
X869168Y436737D01*
X867485Y439653D01*
X867192Y439946D01*
D02*
G37*
G36*
X689392D02*
X681246Y431800D01*
X689392Y423654D01*
X689685Y423947D01*
X691368Y426863D01*
X692240Y430116D01*
Y433484D01*
X691368Y436737D01*
X689685Y439653D01*
X689392Y439946D01*
D02*
G37*
G36*
X987234Y434590D02*
X983866D01*
X980613Y433718D01*
X977697Y432034D01*
X977404Y431742D01*
X985550Y423596D01*
X993696Y431742D01*
X993403Y432034D01*
X990487Y433718D01*
X987234Y434590D01*
D02*
G37*
G36*
X809434D02*
X806066D01*
X802813Y433718D01*
X799897Y432034D01*
X799604Y431742D01*
X807750Y423596D01*
X815896Y431742D01*
X815603Y432034D01*
X812687Y433718D01*
X809434Y434590D01*
D02*
G37*
G36*
X857250Y430004D02*
X849104Y421858D01*
X849397Y421566D01*
X852313Y419882D01*
X855566Y419010D01*
X858934D01*
X862187Y419882D01*
X865103Y421566D01*
X865396Y421858D01*
X857250Y430004D01*
D02*
G37*
G36*
X679450D02*
X671304Y421858D01*
X671597Y421566D01*
X674513Y419882D01*
X677766Y419010D01*
X681134D01*
X684387Y419882D01*
X687303Y421566D01*
X687596Y421858D01*
X679450Y430004D01*
D02*
G37*
G36*
X797808Y429946D02*
X797515Y429653D01*
X795832Y426737D01*
X794960Y423484D01*
Y420116D01*
X795832Y416863D01*
X797515Y413947D01*
X797808Y413654D01*
X805954Y421800D01*
X797808Y429946D01*
D02*
G37*
G36*
X975608D02*
X975315Y429653D01*
X973632Y426737D01*
X972760Y423484D01*
Y420116D01*
X973632Y416863D01*
X975315Y413947D01*
X975608Y413654D01*
X983754Y421800D01*
X975608Y429946D01*
D02*
G37*
G36*
X995492Y429946D02*
X987346Y421800D01*
X995492Y413654D01*
X995785Y413947D01*
X997468Y416863D01*
X998340Y420116D01*
Y423484D01*
X997468Y426737D01*
X995785Y429653D01*
X995492Y429946D01*
D02*
G37*
G36*
X817692D02*
X809546Y421800D01*
X817692Y413654D01*
X817984Y413947D01*
X819668Y416863D01*
X820540Y420116D01*
Y423484D01*
X819668Y426737D01*
X817984Y429653D01*
X817692Y429946D01*
D02*
G37*
G36*
X985550Y420004D02*
X977404Y411858D01*
X977697Y411565D01*
X980613Y409882D01*
X983866Y409010D01*
X987234D01*
X990487Y409882D01*
X993403Y411565D01*
X993696Y411858D01*
X985550Y420004D01*
D02*
G37*
G36*
X807750D02*
X799604Y411858D01*
X799897Y411565D01*
X802813Y409882D01*
X806066Y409010D01*
X809434D01*
X812687Y409882D01*
X815603Y411565D01*
X815896Y411858D01*
X807750Y420004D01*
D02*
G37*
%LPD*%
G36*
X930654Y1041346D02*
X930506Y1041125D01*
X930054Y1038850D01*
Y1031250D01*
X930506Y1028975D01*
X931795Y1027045D01*
X933725Y1025756D01*
X936000Y1025304D01*
X943600D01*
X945875Y1025756D01*
X946240Y1026000D01*
X958000D01*
X958304Y1026304D01*
X959125Y1025756D01*
X961400Y1025304D01*
X969000D01*
X971275Y1025756D01*
X973205Y1027045D01*
X974494Y1028975D01*
X974946Y1031250D01*
Y1038850D01*
X974494Y1041125D01*
X973946Y1041946D01*
X980000Y1048000D01*
X998000D01*
X1004000Y1042000D01*
Y992000D01*
X934000Y922000D01*
Y726000D01*
X928000Y720000D01*
X859059D01*
X859059Y905479D01*
X859059Y905479D01*
X859059Y907980D01*
X859000Y908276D01*
Y908577D01*
X858024Y913485D01*
X857909Y913763D01*
X857850Y914058D01*
X855935Y918681D01*
X855768Y918932D01*
X855653Y919210D01*
X852873Y923370D01*
X852660Y923583D01*
X852492Y923834D01*
X850723Y925602D01*
X848891Y927435D01*
X848890Y927435D01*
X847856Y928470D01*
X847729Y928554D01*
X847633Y928672D01*
X845370Y930529D01*
X845236Y930601D01*
X845129Y930708D01*
X842695Y932335D01*
X842554Y932393D01*
X842437Y932489D01*
X839855Y933869D01*
X839710Y933913D01*
X839584Y933998D01*
X836879Y935118D01*
X836730Y935148D01*
X836596Y935219D01*
X833794Y936069D01*
X833643Y936084D01*
X833503Y936142D01*
X830631Y936713D01*
X830480D01*
X830335Y936757D01*
X827421Y937044D01*
X827270Y937029D01*
X827121Y937059D01*
X825657Y937059D01*
X825657Y937059D01*
X824275Y937059D01*
X824126Y937029D01*
X823975Y937044D01*
X821223Y936773D01*
X821078Y936729D01*
X820926D01*
X818214Y936190D01*
X818074Y936132D01*
X817923Y936117D01*
X815277Y935314D01*
X815143Y935243D01*
X814995Y935213D01*
X812440Y934155D01*
X812314Y934071D01*
X812169Y934027D01*
X809730Y932723D01*
X809613Y932627D01*
X809473Y932569D01*
X807173Y931033D01*
X807066Y930925D01*
X806932Y930854D01*
X804795Y929100D01*
X804698Y928982D01*
X804572Y928898D01*
X803595Y927921D01*
X801277Y925602D01*
X801276Y925602D01*
X799508Y923833D01*
X799340Y923583D01*
X799127Y923370D01*
X796348Y919210D01*
X796232Y918931D01*
X796065Y918681D01*
X794150Y914058D01*
X794091Y913763D01*
X793976Y913484D01*
X793000Y908577D01*
Y908276D01*
X792941Y907981D01*
Y905479D01*
Y720000D01*
X700000D01*
X694000Y726000D01*
Y760000D01*
X700000Y766000D01*
X714000D01*
X727754Y779754D01*
X729193Y779368D01*
X731307D01*
X733350Y779915D01*
X735182Y780973D01*
X736677Y782468D01*
X737735Y784300D01*
X738282Y786343D01*
Y788457D01*
X737896Y789896D01*
X747000Y799000D01*
Y927000D01*
X859526Y1039526D01*
X860990Y1038920D01*
X863010D01*
X864878Y1039693D01*
X866307Y1041122D01*
X867080Y1042990D01*
Y1045011D01*
X866474Y1046474D01*
X874000Y1054000D01*
X918000D01*
X930654Y1041346D01*
D02*
G37*
%LPC*%
G36*
X991935Y1045190D02*
X989265D01*
X986686Y1044499D01*
X984374Y1043164D01*
X984328Y1043118D01*
X990600Y1036846D01*
X996872Y1043118D01*
X996826Y1043164D01*
X994514Y1044499D01*
X991935Y1045190D01*
D02*
G37*
G36*
X998668Y1041322D02*
X992396Y1035050D01*
X998668Y1028778D01*
X998714Y1028824D01*
X1000049Y1031136D01*
X1000740Y1033715D01*
Y1036385D01*
X1000049Y1038964D01*
X998714Y1041276D01*
X998668Y1041322D01*
D02*
G37*
G36*
X982532Y1041322D02*
X982486Y1041276D01*
X981151Y1038964D01*
X980460Y1036385D01*
Y1033715D01*
X981151Y1031136D01*
X982486Y1028824D01*
X982532Y1028778D01*
X988804Y1035050D01*
X982532Y1041322D01*
D02*
G37*
G36*
X915668Y1044682D02*
X913132D01*
X910682Y1044026D01*
X908486Y1042757D01*
X906693Y1040964D01*
X905424Y1038768D01*
X904768Y1036318D01*
Y1033782D01*
X905424Y1031332D01*
X906693Y1029136D01*
X908486Y1027343D01*
X910682Y1026074D01*
X913132Y1025418D01*
X915668D01*
X918118Y1026074D01*
X920314Y1027343D01*
X922107Y1029136D01*
X923376Y1031332D01*
X924032Y1033782D01*
Y1036318D01*
X923376Y1038768D01*
X922107Y1040964D01*
X920314Y1042757D01*
X918118Y1044026D01*
X915668Y1044682D01*
D02*
G37*
G36*
X890268D02*
X887732D01*
X885282Y1044026D01*
X883086Y1042757D01*
X881292Y1040964D01*
X880024Y1038768D01*
X879368Y1036318D01*
Y1033782D01*
X880024Y1031332D01*
X881292Y1029136D01*
X883086Y1027343D01*
X885282Y1026074D01*
X887732Y1025418D01*
X890268D01*
X892718Y1026074D01*
X894914Y1027343D01*
X896708Y1029136D01*
X897976Y1031332D01*
X898632Y1033782D01*
Y1036318D01*
X897976Y1038768D01*
X896708Y1040964D01*
X894914Y1042757D01*
X892718Y1044026D01*
X890268Y1044682D01*
D02*
G37*
G36*
X990600Y1033254D02*
X984328Y1026982D01*
X984374Y1026936D01*
X986686Y1025601D01*
X989265Y1024910D01*
X991935D01*
X994514Y1025601D01*
X996826Y1026936D01*
X996872Y1026982D01*
X990600Y1033254D01*
D02*
G37*
G36*
X892800Y1019396D02*
X885200D01*
X882924Y1018944D01*
X880995Y1017655D01*
X879706Y1015725D01*
X879254Y1013450D01*
Y1005850D01*
X879706Y1003575D01*
X880995Y1001645D01*
X882924Y1000356D01*
X885200Y999904D01*
X892800D01*
X895076Y1000356D01*
X897005Y1001645D01*
X898294Y1003575D01*
X898746Y1005850D01*
Y1013450D01*
X898294Y1015725D01*
X897005Y1017655D01*
X895076Y1018944D01*
X892800Y1019396D01*
D02*
G37*
G36*
X865111Y973588D02*
X862888D01*
X860993Y972803D01*
X864000Y969796D01*
X867007Y972803D01*
X865111Y973588D01*
D02*
G37*
G36*
X868803Y971007D02*
X865796Y968000D01*
X868803Y964993D01*
X869588Y966889D01*
Y969111D01*
X868803Y971007D01*
D02*
G37*
G36*
X859197Y971007D02*
X858412Y969111D01*
Y966889D01*
X859197Y964993D01*
X862204Y968000D01*
X859197Y971007D01*
D02*
G37*
G36*
X864000Y966204D02*
X860993Y963197D01*
X862888Y962412D01*
X865111D01*
X867007Y963197D01*
X864000Y966204D01*
D02*
G37*
G36*
X911780Y964732D02*
X908740D01*
X905759Y964139D01*
X902950Y962976D01*
X900423Y961287D01*
X898273Y959137D01*
X896584Y956610D01*
X895421Y953801D01*
X894828Y950820D01*
Y947780D01*
X895421Y944799D01*
X896584Y941990D01*
X898273Y939463D01*
X900423Y937313D01*
X902950Y935624D01*
X905759Y934461D01*
X908740Y933868D01*
X911780D01*
X914761Y934461D01*
X917570Y935624D01*
X920097Y937313D01*
X922247Y939463D01*
X923936Y941990D01*
X925099Y944799D01*
X925692Y947780D01*
Y950820D01*
X925099Y953801D01*
X923936Y956610D01*
X922247Y959137D01*
X920097Y961287D01*
X917570Y962976D01*
X914761Y964139D01*
X911780Y964732D01*
D02*
G37*
G36*
X911307Y922432D02*
X909193D01*
X907150Y921885D01*
X905318Y920827D01*
X903823Y919332D01*
X902765Y917500D01*
X902218Y915457D01*
Y913343D01*
X902765Y911300D01*
X903823Y909468D01*
X905318Y907973D01*
X907150Y906915D01*
X909193Y906368D01*
X911307D01*
X913350Y906915D01*
X915182Y907973D01*
X916677Y909468D01*
X917735Y911300D01*
X918282Y913343D01*
Y915457D01*
X917735Y917500D01*
X916677Y919332D01*
X915182Y920827D01*
X913350Y921885D01*
X911307Y922432D01*
D02*
G37*
G36*
X892257Y909732D02*
X890143D01*
X888100Y909185D01*
X886268Y908127D01*
X884773Y906632D01*
X883715Y904800D01*
X883168Y902757D01*
Y900643D01*
X883715Y898600D01*
X884773Y896768D01*
X886268Y895273D01*
X888100Y894215D01*
X890143Y893668D01*
X892257D01*
X894300Y894215D01*
X896132Y895273D01*
X897627Y896768D01*
X898685Y898600D01*
X899232Y900643D01*
Y902757D01*
X898685Y904800D01*
X897627Y906632D01*
X896132Y908127D01*
X894300Y909185D01*
X892257Y909732D01*
D02*
G37*
G36*
X911307Y897032D02*
X909193D01*
X907150Y896485D01*
X905318Y895427D01*
X903823Y893932D01*
X902765Y892100D01*
X902218Y890057D01*
Y887943D01*
X902765Y885900D01*
X903823Y884068D01*
X905318Y882573D01*
X907150Y881515D01*
X909193Y880968D01*
X911307D01*
X913350Y881515D01*
X915182Y882573D01*
X916677Y884068D01*
X917735Y885900D01*
X918282Y887943D01*
Y890057D01*
X917735Y892100D01*
X916677Y893932D01*
X915182Y895427D01*
X913350Y896485D01*
X911307Y897032D01*
D02*
G37*
G36*
X892257Y884342D02*
X890143D01*
X888100Y883795D01*
X886268Y882737D01*
X884773Y881242D01*
X883715Y879410D01*
X883168Y877367D01*
Y875253D01*
X883715Y873210D01*
X884773Y871378D01*
X886268Y869883D01*
X888100Y868825D01*
X890143Y868278D01*
X892257D01*
X894300Y868825D01*
X896132Y869883D01*
X897627Y871378D01*
X898685Y873210D01*
X899232Y875253D01*
Y877367D01*
X898685Y879410D01*
X897627Y881242D01*
X896132Y882737D01*
X894300Y883795D01*
X892257Y884342D01*
D02*
G37*
G36*
X911307Y871632D02*
X909193D01*
X907150Y871085D01*
X905318Y870027D01*
X903823Y868532D01*
X902765Y866700D01*
X902218Y864657D01*
Y862543D01*
X902765Y860500D01*
X903823Y858668D01*
X905318Y857173D01*
X907150Y856115D01*
X909193Y855568D01*
X911307D01*
X913350Y856115D01*
X915182Y857173D01*
X916677Y858668D01*
X917735Y860500D01*
X918282Y862543D01*
Y864657D01*
X917735Y866700D01*
X916677Y868532D01*
X915182Y870027D01*
X913350Y871085D01*
X911307Y871632D01*
D02*
G37*
G36*
X892257Y858932D02*
X890143D01*
X888100Y858385D01*
X886268Y857327D01*
X884773Y855832D01*
X883715Y854000D01*
X883168Y851957D01*
Y849843D01*
X883715Y847800D01*
X884773Y845968D01*
X886268Y844473D01*
X888100Y843415D01*
X890143Y842868D01*
X892257D01*
X894300Y843415D01*
X896132Y844473D01*
X897627Y845968D01*
X898685Y847800D01*
X899232Y849843D01*
Y851957D01*
X898685Y854000D01*
X897627Y855832D01*
X896132Y857327D01*
X894300Y858385D01*
X892257Y858932D01*
D02*
G37*
G36*
X911307Y846232D02*
X909193D01*
X907150Y845685D01*
X905318Y844627D01*
X903823Y843132D01*
X902765Y841300D01*
X902218Y839257D01*
Y837143D01*
X902765Y835100D01*
X903823Y833268D01*
X905318Y831773D01*
X907150Y830715D01*
X909193Y830168D01*
X911307D01*
X913350Y830715D01*
X915182Y831773D01*
X916677Y833268D01*
X917735Y835100D01*
X918282Y837143D01*
Y839257D01*
X917735Y841300D01*
X916677Y843132D01*
X915182Y844627D01*
X913350Y845685D01*
X911307Y846232D01*
D02*
G37*
G36*
X892257Y833532D02*
X890143D01*
X888100Y832985D01*
X886268Y831927D01*
X884773Y830432D01*
X883715Y828600D01*
X883168Y826557D01*
Y824443D01*
X883715Y822400D01*
X884773Y820568D01*
X886268Y819073D01*
X888100Y818015D01*
X890143Y817468D01*
X892257D01*
X894300Y818015D01*
X896132Y819073D01*
X897627Y820568D01*
X898685Y822400D01*
X899232Y824443D01*
Y826557D01*
X898685Y828600D01*
X897627Y830432D01*
X896132Y831927D01*
X894300Y832985D01*
X892257Y833532D01*
D02*
G37*
G36*
X911307Y820832D02*
X909193D01*
X907150Y820285D01*
X905318Y819227D01*
X903823Y817732D01*
X902765Y815900D01*
X902218Y813857D01*
Y811743D01*
X902765Y809700D01*
X903823Y807868D01*
X905318Y806373D01*
X907150Y805315D01*
X909193Y804768D01*
X911307D01*
X913350Y805315D01*
X915182Y806373D01*
X916677Y807868D01*
X917735Y809700D01*
X918282Y811743D01*
Y813857D01*
X917735Y815900D01*
X916677Y817732D01*
X915182Y819227D01*
X913350Y820285D01*
X911307Y820832D01*
D02*
G37*
G36*
X892257Y808132D02*
X890143D01*
X888100Y807585D01*
X886268Y806527D01*
X884773Y805032D01*
X883715Y803200D01*
X883168Y801157D01*
Y799043D01*
X883715Y797000D01*
X884773Y795168D01*
X886268Y793673D01*
X888100Y792615D01*
X890143Y792068D01*
X892257D01*
X894300Y792615D01*
X896132Y793673D01*
X897627Y795168D01*
X898685Y797000D01*
X899232Y799043D01*
Y801157D01*
X898685Y803200D01*
X897627Y805032D01*
X896132Y806527D01*
X894300Y807585D01*
X892257Y808132D01*
D02*
G37*
G36*
X911307Y795432D02*
X909193D01*
X907150Y794885D01*
X905318Y793827D01*
X903823Y792332D01*
X902765Y790500D01*
X902218Y788457D01*
Y786343D01*
X902765Y784300D01*
X903823Y782468D01*
X905318Y780973D01*
X907150Y779915D01*
X909193Y779368D01*
X911307D01*
X913350Y779915D01*
X915182Y780973D01*
X916677Y782468D01*
X917735Y784300D01*
X918282Y786343D01*
Y788457D01*
X917735Y790500D01*
X916677Y792332D01*
X915182Y793827D01*
X913350Y794885D01*
X911307Y795432D01*
D02*
G37*
G36*
X892257Y782732D02*
X890143D01*
X888100Y782185D01*
X886268Y781127D01*
X884773Y779632D01*
X883715Y777800D01*
X883168Y775757D01*
Y773643D01*
X883715Y771600D01*
X884773Y769768D01*
X886268Y768273D01*
X888100Y767215D01*
X890143Y766668D01*
X892257D01*
X894300Y767215D01*
X896132Y768273D01*
X897627Y769768D01*
X898685Y771600D01*
X899232Y773643D01*
Y775757D01*
X898685Y777800D01*
X897627Y779632D01*
X896132Y781127D01*
X894300Y782185D01*
X892257Y782732D01*
D02*
G37*
G36*
X731374Y770540D02*
X729126D01*
X726954Y769958D01*
X725137Y768909D01*
X730250Y763796D01*
X735363Y768909D01*
X733546Y769958D01*
X731374Y770540D01*
D02*
G37*
G36*
X911374D02*
X909126D01*
X906954Y769958D01*
X905137Y768909D01*
X910250Y763796D01*
X915363Y768909D01*
X913546Y769958D01*
X911374Y770540D01*
D02*
G37*
G36*
X723341Y767113D02*
X722292Y765296D01*
X721710Y763124D01*
Y760876D01*
X722292Y758704D01*
X723341Y756887D01*
X728454Y762000D01*
X723341Y767113D01*
D02*
G37*
G36*
X737159D02*
X732046Y762000D01*
X737159Y756887D01*
X738208Y758704D01*
X738790Y760876D01*
Y763124D01*
X738208Y765296D01*
X737159Y767113D01*
D02*
G37*
G36*
X917159Y767113D02*
X912046Y762000D01*
X917159Y756887D01*
X918208Y758704D01*
X918790Y760876D01*
Y763124D01*
X918208Y765296D01*
X917159Y767113D01*
D02*
G37*
G36*
X903341Y767113D02*
X902292Y765296D01*
X901710Y763124D01*
Y760876D01*
X902292Y758704D01*
X903341Y756887D01*
X908454Y762000D01*
X903341Y767113D01*
D02*
G37*
G36*
X910250Y760204D02*
X905137Y755091D01*
X906954Y754042D01*
X909126Y753460D01*
X911374D01*
X913546Y754042D01*
X915363Y755091D01*
X910250Y760204D01*
D02*
G37*
G36*
X730250Y760204D02*
X725137Y755091D01*
X726954Y754042D01*
X729126Y753460D01*
X731374D01*
X733546Y754042D01*
X735363Y755091D01*
X730250Y760204D01*
D02*
G37*
G36*
X712324Y757840D02*
X710076D01*
X707904Y757258D01*
X706087Y756209D01*
X711200Y751096D01*
X716313Y756209D01*
X714496Y757258D01*
X712324Y757840D01*
D02*
G37*
G36*
X892324D02*
X890076D01*
X887904Y757258D01*
X886087Y756209D01*
X891200Y751096D01*
X896313Y756209D01*
X894496Y757258D01*
X892324Y757840D01*
D02*
G37*
G36*
X704291Y754413D02*
X703242Y752596D01*
X702660Y750424D01*
Y748176D01*
X703242Y746004D01*
X704291Y744187D01*
X709404Y749300D01*
X704291Y754413D01*
D02*
G37*
G36*
X718109D02*
X712996Y749300D01*
X718109Y744187D01*
X719158Y746004D01*
X719740Y748176D01*
Y750424D01*
X719158Y752596D01*
X718109Y754413D01*
D02*
G37*
G36*
X898109Y754413D02*
X892996Y749300D01*
X898109Y744187D01*
X899158Y746004D01*
X899740Y748176D01*
Y750424D01*
X899158Y752596D01*
X898109Y754413D01*
D02*
G37*
G36*
X884291Y754413D02*
X883242Y752596D01*
X882660Y750424D01*
Y748176D01*
X883242Y746004D01*
X884291Y744187D01*
X889404Y749300D01*
X884291Y754413D01*
D02*
G37*
G36*
X891200Y747504D02*
X886087Y742391D01*
X887904Y741342D01*
X890076Y740760D01*
X892324D01*
X894496Y741342D01*
X896313Y742391D01*
X891200Y747504D01*
D02*
G37*
G36*
X711200Y747504D02*
X706087Y742391D01*
X707904Y741342D01*
X710076Y740760D01*
X712324D01*
X714496Y741342D01*
X716313Y742391D01*
X711200Y747504D01*
D02*
G37*
G36*
X731374Y745140D02*
X729126D01*
X726954Y744558D01*
X725137Y743509D01*
X730250Y738396D01*
X735363Y743509D01*
X733546Y744558D01*
X731374Y745140D01*
D02*
G37*
G36*
X911374D02*
X909126D01*
X906954Y744558D01*
X905137Y743509D01*
X910250Y738396D01*
X915363Y743509D01*
X913546Y744558D01*
X911374Y745140D01*
D02*
G37*
G36*
X723341Y741713D02*
X722292Y739896D01*
X721710Y737724D01*
Y735476D01*
X722292Y733304D01*
X723341Y731487D01*
X728454Y736600D01*
X723341Y741713D01*
D02*
G37*
G36*
X737159D02*
X732046Y736600D01*
X737159Y731487D01*
X738208Y733304D01*
X738790Y735476D01*
Y737724D01*
X738208Y739896D01*
X737159Y741713D01*
D02*
G37*
G36*
X917159Y741713D02*
X912046Y736600D01*
X917159Y731487D01*
X918208Y733304D01*
X918790Y735476D01*
Y737724D01*
X918208Y739896D01*
X917159Y741713D01*
D02*
G37*
G36*
X903341Y741713D02*
X902292Y739896D01*
X901710Y737724D01*
Y735476D01*
X902292Y733304D01*
X903341Y731487D01*
X908454Y736600D01*
X903341Y741713D01*
D02*
G37*
G36*
X910250Y734804D02*
X905137Y729691D01*
X906954Y728642D01*
X909126Y728060D01*
X911374D01*
X913546Y728642D01*
X915363Y729691D01*
X910250Y734804D01*
D02*
G37*
G36*
X730250Y734804D02*
X725137Y729691D01*
X726954Y728642D01*
X729126Y728060D01*
X731374D01*
X733546Y728642D01*
X735363Y729691D01*
X730250Y734804D01*
D02*
G37*
%LPD*%
D18*
X857250Y431800D02*
D03*
X985550Y421800D02*
D03*
X679450Y431800D02*
D03*
X807750Y421800D02*
D03*
D30*
X730260Y949300D02*
D03*
Y562000D02*
D03*
X910260Y949300D02*
D03*
Y562000D02*
D03*
D31*
X711200Y673100D02*
D03*
X730250Y660410D02*
D03*
X711200Y647700D02*
D03*
X730250Y635000D02*
D03*
X711200Y622300D02*
D03*
X730250Y609600D02*
D03*
X711200Y596900D02*
D03*
X730250Y914400D02*
D03*
X711200Y901700D02*
D03*
X730250Y889000D02*
D03*
X711200Y876310D02*
D03*
X730250Y863600D02*
D03*
X711200Y850900D02*
D03*
X730250Y838200D02*
D03*
X711200Y825500D02*
D03*
X730250Y812800D02*
D03*
X711200Y800100D02*
D03*
X730250Y787400D02*
D03*
X711200Y774700D02*
D03*
X730250Y762000D02*
D03*
X711200Y749300D02*
D03*
X730250Y736600D02*
D03*
X891200Y673100D02*
D03*
X910250Y660410D02*
D03*
X891200Y647700D02*
D03*
X910250Y635000D02*
D03*
X891200Y622300D02*
D03*
X910250Y609600D02*
D03*
X891200Y596900D02*
D03*
X910250Y914400D02*
D03*
X891200Y901700D02*
D03*
X910250Y889000D02*
D03*
X891200Y876310D02*
D03*
X910250Y863600D02*
D03*
X891200Y850900D02*
D03*
X910250Y838200D02*
D03*
X891200Y825500D02*
D03*
X910250Y812800D02*
D03*
X891200Y800100D02*
D03*
X910250Y787400D02*
D03*
X891200Y774700D02*
D03*
X910250Y762000D02*
D03*
X891200Y749300D02*
D03*
X910250Y736600D02*
D03*
D32*
X882650Y514350D02*
D03*
X908050D02*
D03*
X882650Y488950D02*
D03*
D33*
X908050D02*
D03*
D34*
X781050Y1035050D02*
D03*
X965200D02*
D03*
X755650D02*
D03*
X939800D02*
D03*
D35*
X806450D02*
D03*
X990600D02*
D03*
X704850D02*
D03*
X730250D02*
D03*
X889000D02*
D03*
X914400D02*
D03*
D36*
X692150Y488950D02*
D03*
D37*
X717550D02*
D03*
X692150Y514350D02*
D03*
X717550D02*
D03*
D38*
X684000Y1094000D02*
D03*
X984000D02*
D03*
Y334000D02*
D03*
X684000D02*
D03*
D39*
X704850Y1009650D02*
D03*
X889000D02*
D03*
D40*
X862000Y1044000D02*
D03*
X676000D02*
D03*
X864000Y968000D02*
D03*
X856000Y478000D02*
D03*
X958000Y442000D02*
D03*
X920000D02*
D03*
X882000D02*
D03*
X780000D02*
D03*
X742000D02*
D03*
X704000D02*
D03*
M02*
