G04*
G04 #@! TF.GenerationSoftware,Altium Limited,Altium Designer,22.11.1 (43)*
G04*
G04 Layer_Physical_Order=2*
G04 Layer_Color=32768*
%FSLAX44Y44*%
%MOMM*%
G71*
G04*
G04 #@! TF.SameCoordinates,6BFD124F-6662-46D6-B746-139303AAAD4B*
G04*
G04*
G04 #@! TF.FilePolarity,Negative*
G04*
G01*
G75*
%ADD41C,1.0160*%
%ADD42R,8.8000X2.6000*%
%ADD43C,3.6960*%
G04:AMPARAMS|DCode=44|XSize=2.434mm|YSize=2.434mm|CornerRadius=0mm|HoleSize=0mm|Usage=FLASHONLY|Rotation=0.000|XOffset=0mm|YOffset=0mm|HoleType=Round|Shape=Relief|Width=0.254mm|Gap=0.254mm|Entries=4|*
%AMTHD44*
7,0,0,2.4340,1.9260,0.2540,45*
%
%ADD44THD44*%
%ADD45C,1.9260*%
G04:AMPARAMS|DCode=46|XSize=2.874mm|YSize=2.874mm|CornerRadius=0mm|HoleSize=0mm|Usage=FLASHONLY|Rotation=0.000|XOffset=0mm|YOffset=0mm|HoleType=Round|Shape=Relief|Width=0.254mm|Gap=0.254mm|Entries=4|*
%AMTHD46*
7,0,0,2.8740,2.3660,0.2540,45*
%
%ADD46THD46*%
%ADD47C,2.0460*%
G04:AMPARAMS|DCode=48|XSize=2.554mm|YSize=2.554mm|CornerRadius=0mm|HoleSize=0mm|Usage=FLASHONLY|Rotation=0.000|XOffset=0mm|YOffset=0mm|HoleType=Round|Shape=Relief|Width=0.254mm|Gap=0.254mm|Entries=4|*
%AMTHD48*
7,0,0,2.5540,2.0460,0.2540,45*
%
%ADD48THD48*%
G04:AMPARAMS|DCode=49|XSize=2.544mm|YSize=2.544mm|CornerRadius=0mm|HoleSize=0mm|Usage=FLASHONLY|Rotation=0.000|XOffset=0mm|YOffset=0mm|HoleType=Round|Shape=Relief|Width=0.254mm|Gap=0.254mm|Entries=4|*
%AMTHD49*
7,0,0,2.5440,2.0360,0.2540,45*
%
%ADD49THD49*%
%ADD50C,2.0360*%
%ADD51C,2.1160*%
G04:AMPARAMS|DCode=52|XSize=2.624mm|YSize=2.624mm|CornerRadius=0mm|HoleSize=0mm|Usage=FLASHONLY|Rotation=0.000|XOffset=0mm|YOffset=0mm|HoleType=Round|Shape=Relief|Width=0.254mm|Gap=0.254mm|Entries=4|*
%AMTHD52*
7,0,0,2.6240,2.1160,0.2540,45*
%
%ADD52THD52*%
%ADD53C,4.2160*%
G04:AMPARAMS|DCode=54|XSize=1.8288mm|YSize=1.8288mm|CornerRadius=0mm|HoleSize=0mm|Usage=FLASHONLY|Rotation=0.000|XOffset=0mm|YOffset=0mm|HoleType=Round|Shape=Relief|Width=0.254mm|Gap=0.254mm|Entries=4|*
%AMTHD54*
7,0,0,1.8288,1.3208,0.2540,45*
%
%ADD54THD54*%
%ADD55C,1.3208*%
G36*
X830035Y933713D02*
X832906Y933142D01*
X835708Y932292D01*
X838413Y931172D01*
X840995Y929791D01*
X843429Y928165D01*
X845693Y926307D01*
X846728Y925272D01*
X846728Y925272D01*
X848560Y923439D01*
X850330Y921671D01*
X853109Y917511D01*
X855024Y912888D01*
X856000Y907981D01*
X856000Y905479D01*
X856000Y905479D01*
X856000Y582521D01*
X856000Y580019D01*
X855024Y575112D01*
X853109Y570490D01*
X850330Y566329D01*
X848560Y564561D01*
X847603Y563430D01*
X845476Y561368D01*
X843158Y559525D01*
X840669Y557917D01*
X838035Y556562D01*
X835281Y555471D01*
X832433Y554655D01*
X829519Y554122D01*
X828043Y554000D01*
X828043Y554000D01*
X825657D01*
X824274Y554000D01*
X821523Y554271D01*
X818811Y554810D01*
X816164Y555613D01*
X813610Y556671D01*
X811171Y557975D01*
X808872Y559511D01*
X806735Y561265D01*
X805757Y562243D01*
Y562243D01*
X803071Y564929D01*
X801390Y566610D01*
X798748Y570564D01*
X796928Y574958D01*
X796000Y579622D01*
Y582000D01*
Y905479D01*
Y907981D01*
X796976Y912888D01*
X798891Y917510D01*
X801671Y921670D01*
X803439Y923439D01*
X803439Y923439D01*
X805758Y925758D01*
X806735Y926735D01*
X808873Y928489D01*
X811172Y930025D01*
X813610Y931329D01*
X816165Y932387D01*
X818811Y933190D01*
X821523Y933729D01*
X824275Y934000D01*
X825657Y934000D01*
X825657Y934000D01*
X827121Y934000D01*
X830035Y933713D01*
D02*
G37*
D41*
X827121Y934000D02*
X830035Y933713D01*
X832906Y933142D01*
X835708Y932292D01*
X838413Y931172D01*
X840995Y929791D01*
X843429Y928165D01*
X845693Y926307D01*
X846728Y925272D01*
X846728Y925272D01*
X848560Y923439D01*
X850330Y921671D01*
X853109Y917511D01*
X855024Y912888D01*
X856000Y907981D01*
X856000Y905479D02*
X856000Y907981D01*
X856000Y582521D02*
X856000Y580019D01*
X855024Y575112D02*
X856000Y580019D01*
X853109Y570490D02*
X855024Y575112D01*
X850330Y566329D02*
X853109Y570490D01*
X848560Y564561D02*
X850330Y566329D01*
X847603Y563430D02*
X848560Y564561D01*
X845476Y561368D02*
X847603Y563430D01*
X843158Y559525D02*
X845476Y561368D01*
X840669Y557917D02*
X843158Y559525D01*
X838035Y556562D02*
X840669Y557917D01*
X835281Y555471D02*
X838035Y556562D01*
X832433Y554655D02*
X835281Y555471D01*
X829519Y554122D02*
X832433Y554655D01*
X828043Y554000D02*
X829519Y554122D01*
X828043Y554000D02*
X828043Y554000D01*
X825657D02*
X828043D01*
X813610Y556671D02*
X816164Y555613D01*
X811171Y557975D02*
X813610Y556671D01*
X806735Y561265D02*
X808872Y559511D01*
X805757Y562243D02*
X806735Y561265D01*
X798748Y570564D02*
X801390Y566610D01*
X796928Y574958D02*
X798748Y570564D01*
X796000Y579622D02*
X796928Y574958D01*
X796000Y579622D02*
Y582000D01*
Y905479D01*
Y907981D01*
X796976Y912888D01*
X798891Y917510D01*
X801671Y921670D01*
X803439Y923439D01*
X803439Y923439D01*
X805758Y925758D01*
X806735Y926735D01*
X808873Y928489D01*
X811172Y930025D01*
X813610Y931329D01*
X816165Y932387D01*
X818811Y933190D01*
X821523Y933729D01*
X824275Y934000D01*
X825657Y934000D01*
X825657Y934000D01*
X827121Y934000D01*
X856000Y905479D02*
X856000Y905479D01*
X818811Y554810D02*
X821523Y554271D01*
X816164Y555613D02*
X818811Y554810D01*
X808872Y559511D02*
X811171Y557975D01*
X801390Y566610D02*
X803071Y564929D01*
X805757Y562243D02*
Y562243D01*
X824274Y554000D02*
X825657Y554000D01*
X821523Y554271D02*
X824274Y554000D01*
X803071Y564929D02*
X805757Y562243D01*
X856000Y582521D02*
X856000Y905479D01*
X682165Y1122000D02*
X684000Y1122000D01*
X678526Y1121521D02*
X682165Y1122000D01*
X674980Y1120571D02*
X678526Y1121521D01*
X671589Y1119166D02*
X674980Y1120571D01*
X668411Y1117331D02*
X671589Y1119166D01*
X665499Y1115097D02*
X668411Y1117331D01*
X662903Y1112501D02*
X665499Y1115097D01*
X660669Y1109589D02*
X662903Y1112501D01*
X658834Y1106411D02*
X660669Y1109589D01*
X657429Y1103020D02*
X658834Y1106411D01*
X656479Y1099474D02*
X657429Y1103020D01*
X656000Y1095835D02*
X656479Y1099474D01*
X656000Y1095835D02*
X656000Y1094000D01*
X656000Y945894D02*
X656000Y947400D01*
X656000Y945894D02*
X656295Y942896D01*
X656883Y939941D01*
X657757Y937058D01*
X658910Y934275D01*
X660330Y931618D01*
X662004Y929113D01*
X663915Y926785D01*
X664980Y925720D01*
X667020Y923680D01*
X668057Y922590D01*
X669966Y920264D01*
X671638Y917763D01*
X673056Y915109D01*
X674208Y912329D01*
X675081Y909450D01*
X675668Y906499D01*
X675963Y903504D01*
X676000Y902000D01*
X676000Y566700D01*
X675963Y565196D02*
X676000Y566700D01*
X675668Y562201D02*
X675963Y565196D01*
X675081Y559250D02*
X675668Y562201D01*
X674208Y556371D02*
X675081Y559250D01*
X673056Y553591D02*
X674208Y556371D01*
X671638Y550937D02*
X673056Y553591D01*
X669966Y548436D02*
X671638Y550937D01*
X668057Y546110D02*
X669966Y548436D01*
X667020Y545020D02*
X668057Y546110D01*
X664980Y542980D02*
X667020Y545020D01*
X663915Y541915D02*
X664980Y542980D01*
X662004Y539586D02*
X663915Y541915D01*
X660330Y537082D02*
X662004Y539586D01*
X658910Y534425D02*
X660330Y537082D01*
X657757Y531642D02*
X658910Y534425D01*
X656883Y528759D02*
X657757Y531642D01*
X656295Y525804D02*
X656883Y528759D01*
X656000Y522806D02*
X656295Y525804D01*
X656000Y521300D02*
Y522806D01*
Y521300D02*
X656000Y334000D01*
X656000Y332165D02*
X656000Y334000D01*
X656000Y332165D02*
X656479Y328526D01*
X657429Y324980D01*
X658834Y321589D01*
X660669Y318411D01*
X662903Y315499D01*
X665499Y312903D01*
X668411Y310669D01*
X671589Y308834D01*
X674980Y307429D01*
X678526Y306479D01*
X682165Y306000D01*
X684000D01*
X984000Y306000D01*
X985835D01*
X989474Y306479D01*
X993020Y307429D01*
X996411Y308834D01*
X999589Y310669D01*
X1002501Y312903D01*
X1005097Y315499D01*
X1007331Y318411D01*
X1009166Y321589D01*
X1010571Y324980D01*
X1011521Y328526D01*
X1012000Y332165D01*
Y334000D01*
X1012000Y522806D02*
X1012000Y521300D01*
X1011705Y525804D02*
X1012000Y522806D01*
X1011117Y528759D02*
X1011705Y525804D01*
X1010242Y531642D02*
X1011117Y528759D01*
X1009090Y534425D02*
X1010242Y531642D01*
X1007670Y537082D02*
X1009090Y534425D01*
X1005996Y539586D02*
X1007670Y537082D01*
X1004085Y541915D02*
X1005996Y539586D01*
X1003020Y542980D02*
X1004085Y541915D01*
X980980Y565020D02*
X1003020Y542980D01*
X979943Y566110D02*
X980980Y565020D01*
X978034Y568436D02*
X979943Y566110D01*
X976362Y570937D02*
X978034Y568436D01*
X974944Y573591D02*
X976362Y570937D01*
X973792Y576371D02*
X974944Y573591D01*
X972919Y579250D02*
X973792Y576371D01*
X972332Y582201D02*
X972919Y579250D01*
X972037Y585196D02*
X972332Y582201D01*
X972000Y586700D02*
X972037Y585196D01*
X972000Y586700D02*
Y902000D01*
X972037Y903504D01*
X972332Y906499D01*
X972919Y909450D01*
X973792Y912329D01*
X974944Y915109D01*
X976362Y917763D01*
X978034Y920264D01*
X979943Y922590D01*
X980980Y923680D01*
X1003020Y945720D01*
X1004085Y946785D01*
X1005996Y949113D01*
X1007670Y951618D01*
X1009090Y954275D01*
X1010242Y957058D01*
X1011117Y959941D01*
X1011705Y962896D01*
X1012000Y965894D01*
X1012000Y967400D02*
X1012000Y965894D01*
X1012000Y967400D02*
X1012000Y1094000D01*
Y1095835D01*
X1011521Y1099474D02*
X1012000Y1095835D01*
X1010571Y1103020D02*
X1011521Y1099474D01*
X1009166Y1106411D02*
X1010571Y1103020D01*
X1007331Y1109589D02*
X1009166Y1106411D01*
X1005097Y1112501D02*
X1007331Y1109589D01*
X1002501Y1115097D02*
X1005097Y1112501D01*
X999589Y1117331D02*
X1002501Y1115097D01*
X996411Y1119166D02*
X999589Y1117331D01*
X993020Y1120571D02*
X996411Y1119166D01*
X989474Y1121521D02*
X993020Y1120571D01*
X985835Y1122000D02*
X989474Y1121521D01*
X984000Y1122000D02*
X985835D01*
X656000Y947400D02*
Y1094000D01*
X1012000Y334000D02*
Y521300D01*
X684000Y1122000D02*
X984000Y1122000D01*
D42*
X920000Y421000D02*
D03*
X742000D02*
D03*
D43*
X910260Y949300D02*
D03*
Y562000D02*
D03*
X730260Y949300D02*
D03*
Y562000D02*
D03*
D44*
X891200Y673100D02*
D03*
X910250Y635000D02*
D03*
X891200Y596900D02*
D03*
Y876310D02*
D03*
X910250Y863600D02*
D03*
X891200Y850900D02*
D03*
Y800100D02*
D03*
X910250Y787400D02*
D03*
X891200Y774700D02*
D03*
X711200Y673100D02*
D03*
X730250Y635000D02*
D03*
X711200Y596900D02*
D03*
Y876310D02*
D03*
X730250Y863600D02*
D03*
X711200Y850900D02*
D03*
Y800100D02*
D03*
X730250Y787400D02*
D03*
X711200Y774700D02*
D03*
D45*
X910250Y660410D02*
D03*
X891200Y647700D02*
D03*
Y622300D02*
D03*
X910250Y609600D02*
D03*
Y914400D02*
D03*
X891200Y901700D02*
D03*
X910250Y889000D02*
D03*
Y838200D02*
D03*
X891200Y825500D02*
D03*
X910250Y812800D02*
D03*
Y762000D02*
D03*
X891200Y749300D02*
D03*
X910250Y736600D02*
D03*
X730250Y660410D02*
D03*
X711200Y647700D02*
D03*
Y622300D02*
D03*
X730250Y609600D02*
D03*
Y914400D02*
D03*
X711200Y901700D02*
D03*
X730250Y889000D02*
D03*
Y838200D02*
D03*
X711200Y825500D02*
D03*
X730250Y812800D02*
D03*
Y762000D02*
D03*
X711200Y749300D02*
D03*
X730250Y736600D02*
D03*
D46*
X857250Y431800D02*
D03*
X985550Y421800D02*
D03*
X679450Y431800D02*
D03*
X807750Y421800D02*
D03*
D47*
X882650Y514350D02*
D03*
X908050D02*
D03*
D48*
X882650Y488950D02*
D03*
X908050D02*
D03*
D49*
X781050Y1035050D02*
D03*
X965200D02*
D03*
X755650D02*
D03*
X939800D02*
D03*
D50*
X806450D02*
D03*
X990600D02*
D03*
X704850Y1009650D02*
D03*
Y1035050D02*
D03*
X730250D02*
D03*
X889000Y1009650D02*
D03*
Y1035050D02*
D03*
X914400D02*
D03*
D51*
X692150Y488950D02*
D03*
X717550D02*
D03*
D52*
X692150Y514350D02*
D03*
X717550D02*
D03*
D53*
X684000Y1094000D02*
D03*
X984000D02*
D03*
Y334000D02*
D03*
X684000D02*
D03*
D54*
X862000Y1044000D02*
D03*
X676000D02*
D03*
X856000Y478000D02*
D03*
X958000Y442000D02*
D03*
X920000D02*
D03*
X882000D02*
D03*
X780000D02*
D03*
X742000D02*
D03*
X704000D02*
D03*
D55*
X864000Y968000D02*
D03*
M02*
