G04*
G04 #@! TF.GenerationSoftware,Altium Limited,Altium Designer,22.11.1 (43)*
G04*
G04 Layer_Physical_Order=1*
G04 Layer_Color=255*
%FSLAX44Y44*%
%MOMM*%
G71*
G04*
G04 #@! TF.SameCoordinates,93F20DB6-68A8-4E48-8693-521813210F72*
G04*
G04*
G04 #@! TF.FilePolarity,Positive*
G04*
G01*
G75*
%ADD13R,1.4082X1.0065*%
%ADD14R,1.2000X1.2000*%
%ADD15R,0.9000X2.4000*%
%ADD18C,2.0500*%
%ADD28C,0.2202*%
%ADD29C,0.2540*%
%ADD30C,1.3400*%
%ADD31C,1.2000*%
%ADD32C,1.5000*%
G04:AMPARAMS|DCode=33|XSize=1.5mm|YSize=1.5mm|CornerRadius=0.375mm|HoleSize=0mm|Usage=FLASHONLY|Rotation=90.000|XOffset=0mm|YOffset=0mm|HoleType=Round|Shape=RoundedRectangle|*
%AMROUNDEDRECTD33*
21,1,1.5000,0.7500,0,0,90.0*
21,1,0.7500,1.5000,0,0,90.0*
1,1,0.7500,0.3750,0.3750*
1,1,0.7500,0.3750,-0.3750*
1,1,0.7500,-0.3750,-0.3750*
1,1,0.7500,-0.3750,0.3750*
%
%ADD33ROUNDEDRECTD33*%
G04:AMPARAMS|DCode=34|XSize=1.52mm|YSize=1.52mm|CornerRadius=0.38mm|HoleSize=0mm|Usage=FLASHONLY|Rotation=0.000|XOffset=0mm|YOffset=0mm|HoleType=Round|Shape=RoundedRectangle|*
%AMROUNDEDRECTD34*
21,1,1.5200,0.7600,0,0,0.0*
21,1,0.7600,1.5200,0,0,0.0*
1,1,0.7600,0.3800,-0.3800*
1,1,0.7600,-0.3800,-0.3800*
1,1,0.7600,-0.3800,0.3800*
1,1,0.7600,0.3800,0.3800*
%
%ADD34ROUNDEDRECTD34*%
%ADD35C,1.5200*%
G04:AMPARAMS|DCode=36|XSize=1.65mm|YSize=1.65mm|CornerRadius=0.4125mm|HoleSize=0mm|Usage=FLASHONLY|Rotation=270.000|XOffset=0mm|YOffset=0mm|HoleType=Round|Shape=RoundedRectangle|*
%AMROUNDEDRECTD36*
21,1,1.6500,0.8250,0,0,270.0*
21,1,0.8250,1.6500,0,0,270.0*
1,1,0.8250,-0.4125,-0.4125*
1,1,0.8250,-0.4125,0.4125*
1,1,0.8250,0.4125,0.4125*
1,1,0.8250,0.4125,-0.4125*
%
%ADD36ROUNDEDRECTD36*%
%ADD37C,1.6500*%
%ADD38C,5.0000*%
G04:AMPARAMS|DCode=39|XSize=1.52mm|YSize=1.52mm|CornerRadius=0.38mm|HoleSize=0mm|Usage=FLASHONLY|Rotation=90.000|XOffset=0mm|YOffset=0mm|HoleType=Round|Shape=RoundedRectangle|*
%AMROUNDEDRECTD39*
21,1,1.5200,0.7600,0,0,90.0*
21,1,0.7600,1.5200,0,0,90.0*
1,1,0.7600,0.3800,0.3800*
1,1,0.7600,0.3800,-0.3800*
1,1,0.7600,-0.3800,-0.3800*
1,1,0.7600,-0.3800,0.3800*
%
%ADD39ROUNDEDRECTD39*%
%ADD40C,0.6096*%
G36*
X822000Y1064000D02*
Y1024000D01*
X847533Y998467D01*
Y994473D01*
X841827D01*
Y980344D01*
X859973D01*
Y984368D01*
X861146Y984854D01*
X894886Y951114D01*
X894828Y950820D01*
Y947780D01*
X895421Y944799D01*
X896584Y941990D01*
X898273Y939463D01*
X900423Y937313D01*
X902950Y935624D01*
X905759Y934461D01*
X908740Y933868D01*
X911780D01*
X912074Y933926D01*
X932000Y914000D01*
Y804000D01*
X926000Y798000D01*
X899996D01*
X899223Y799008D01*
X899232Y799043D01*
Y801157D01*
X898685Y803200D01*
X897627Y805032D01*
X896132Y806527D01*
X894300Y807585D01*
X892257Y808132D01*
X890143D01*
X888100Y807585D01*
X886268Y806527D01*
X884773Y805032D01*
X883715Y803200D01*
X883168Y801157D01*
Y799043D01*
X883177Y799008D01*
X882404Y798000D01*
X866000D01*
X859059Y804941D01*
X859059Y905479D01*
X859059Y905479D01*
X859059Y907980D01*
X859000Y908276D01*
Y908577D01*
X858024Y913485D01*
X857909Y913763D01*
X857850Y914058D01*
X855935Y918681D01*
X855768Y918932D01*
X855653Y919210D01*
X852873Y923370D01*
X852660Y923583D01*
X852492Y923834D01*
X850723Y925602D01*
X848891Y927435D01*
X848890Y927435D01*
X847856Y928470D01*
X847729Y928554D01*
X847633Y928672D01*
X845370Y930529D01*
X845236Y930601D01*
X845129Y930708D01*
X842695Y932335D01*
X842554Y932393D01*
X842437Y932489D01*
X839855Y933869D01*
X839710Y933913D01*
X839584Y933998D01*
X836879Y935118D01*
X836730Y935148D01*
X836596Y935219D01*
X833794Y936069D01*
X833643Y936084D01*
X833503Y936142D01*
X830631Y936713D01*
X830480D01*
X830335Y936757D01*
X827421Y937044D01*
X827270Y937029D01*
X827121Y937059D01*
X825657Y937059D01*
X825657Y937059D01*
X824275Y937059D01*
X824126Y937029D01*
X823975Y937044D01*
X821223Y936773D01*
X821078Y936729D01*
X820926D01*
X818214Y936190D01*
X818074Y936132D01*
X817923Y936117D01*
X815277Y935314D01*
X815143Y935243D01*
X814995Y935213D01*
X812440Y934155D01*
X812314Y934071D01*
X812169Y934027D01*
X809730Y932723D01*
X809613Y932627D01*
X809473Y932569D01*
X807173Y931033D01*
X807066Y930925D01*
X806932Y930854D01*
X804795Y929100D01*
X804698Y928982D01*
X804572Y928898D01*
X803595Y927921D01*
X801277Y925602D01*
X801276Y925602D01*
X799508Y923833D01*
X799340Y923583D01*
X799127Y923370D01*
X796348Y919210D01*
X796232Y918931D01*
X796065Y918681D01*
X794150Y914058D01*
X794091Y913763D01*
X793976Y913484D01*
X793000Y908577D01*
Y908276D01*
X792941Y907981D01*
Y905479D01*
Y804941D01*
X786000Y798000D01*
X719996D01*
X719223Y799008D01*
X719232Y799043D01*
Y801157D01*
X718685Y803200D01*
X717627Y805032D01*
X716132Y806527D01*
X714300Y807585D01*
X712257Y808132D01*
X710143D01*
X708100Y807585D01*
X706268Y806527D01*
X704773Y805032D01*
X703715Y803200D01*
X703168Y801157D01*
Y799043D01*
X703177Y799008D01*
X702404Y798000D01*
X686000D01*
X679059Y804941D01*
X679059Y902000D01*
X679051Y902037D01*
X679058Y902075D01*
X679021Y903579D01*
X678996Y903691D01*
X679007Y903804D01*
X678712Y906799D01*
X678668Y906944D01*
Y907095D01*
X678081Y910046D01*
X678023Y910187D01*
X678008Y910338D01*
X677135Y913217D01*
X677063Y913351D01*
X677033Y913500D01*
X675882Y916280D01*
X675798Y916406D01*
X675754Y916551D01*
X674335Y919204D01*
X674239Y919322D01*
X674181Y919462D01*
X672509Y921964D01*
X672402Y922071D01*
X672331Y922205D01*
X670422Y924531D01*
X670334Y924603D01*
X670273Y924699D01*
X669235Y925789D01*
X669204Y925811D01*
X669183Y925843D01*
X667143Y927882D01*
X667143Y927883D01*
X666184Y928841D01*
X664464Y930938D01*
X662957Y933193D01*
X661678Y935584D01*
X660641Y938090D01*
X659854Y940685D01*
X659324Y943345D01*
X659059Y946044D01*
X659059Y947400D01*
Y960819D01*
X674535D01*
X667860Y967493D01*
X668759Y968391D01*
X667860Y969289D01*
X674535Y975964D01*
X659059D01*
Y980344D01*
X675823D01*
Y994473D01*
X670117D01*
Y1003818D01*
X674782D01*
Y1008633D01*
X684605D01*
X685969Y1007269D01*
X687062Y1006540D01*
X688350Y1006283D01*
X695104D01*
Y1005850D01*
X695556Y1003575D01*
X696845Y1001645D01*
X698774Y1000356D01*
X701050Y999904D01*
X708650D01*
X710926Y1000356D01*
X712855Y1001645D01*
X714144Y1003575D01*
X714596Y1005850D01*
Y1013450D01*
X714144Y1015725D01*
X712855Y1017655D01*
X710926Y1018944D01*
X708650Y1019396D01*
X701050D01*
X698774Y1018944D01*
X696845Y1017655D01*
X695556Y1015725D01*
X695104Y1013450D01*
Y1013017D01*
X689744D01*
X688381Y1014381D01*
X687288Y1015110D01*
X686000Y1015367D01*
X674782D01*
Y1019882D01*
X659059D01*
Y1024818D01*
X674782D01*
Y1036121D01*
X677700Y1039039D01*
X677854Y1039269D01*
X678878Y1039693D01*
X680307Y1041122D01*
X681080Y1042990D01*
Y1045011D01*
X680307Y1046878D01*
X678878Y1048307D01*
X677010Y1049080D01*
X674989D01*
X673122Y1048307D01*
X671693Y1046878D01*
X670920Y1045011D01*
Y1042990D01*
X671274Y1042135D01*
X670021Y1040882D01*
X659059D01*
Y1057059D01*
X664000Y1062000D01*
X679148D01*
X684000Y1061618D01*
X688852Y1062000D01*
X700000D01*
X710000Y1072000D01*
X814000D01*
X822000Y1064000D01*
D02*
G37*
%LPC*%
G36*
X807785Y1045190D02*
X805115D01*
X802536Y1044499D01*
X800224Y1043164D01*
X800178Y1043118D01*
X806450Y1036846D01*
X812722Y1043118D01*
X812676Y1043164D01*
X810364Y1044499D01*
X807785Y1045190D01*
D02*
G37*
G36*
X814518Y1041322D02*
X808246Y1035050D01*
X814518Y1028778D01*
X814564Y1028824D01*
X815899Y1031136D01*
X816590Y1033715D01*
Y1036385D01*
X815899Y1038964D01*
X814564Y1041276D01*
X814518Y1041322D01*
D02*
G37*
G36*
X798382Y1041322D02*
X798336Y1041276D01*
X797001Y1038964D01*
X796310Y1036385D01*
Y1033715D01*
X797001Y1031136D01*
X798336Y1028824D01*
X798382Y1028778D01*
X804654Y1035050D01*
X798382Y1041322D01*
D02*
G37*
G36*
X731518Y1044682D02*
X728982D01*
X726532Y1044026D01*
X724336Y1042757D01*
X722542Y1040964D01*
X721274Y1038768D01*
X720618Y1036318D01*
Y1033782D01*
X721274Y1031332D01*
X722542Y1029136D01*
X724336Y1027343D01*
X726532Y1026074D01*
X728982Y1025418D01*
X731518D01*
X733968Y1026074D01*
X736164Y1027343D01*
X737958Y1029136D01*
X739226Y1031332D01*
X739882Y1033782D01*
Y1036318D01*
X739226Y1038768D01*
X737958Y1040964D01*
X736164Y1042757D01*
X733968Y1044026D01*
X731518Y1044682D01*
D02*
G37*
G36*
X706118D02*
X703582D01*
X701132Y1044026D01*
X698936Y1042757D01*
X697142Y1040964D01*
X695874Y1038768D01*
X695218Y1036318D01*
Y1033782D01*
X695874Y1031332D01*
X697142Y1029136D01*
X698936Y1027343D01*
X701132Y1026074D01*
X703582Y1025418D01*
X706118D01*
X708568Y1026074D01*
X710764Y1027343D01*
X712558Y1029136D01*
X713826Y1031332D01*
X714482Y1033782D01*
Y1036318D01*
X713826Y1038768D01*
X712558Y1040964D01*
X710764Y1042757D01*
X708568Y1044026D01*
X706118Y1044682D01*
D02*
G37*
G36*
X784850Y1044796D02*
X777250D01*
X774975Y1044344D01*
X773045Y1043055D01*
X771756Y1041125D01*
X771304Y1038850D01*
Y1031250D01*
X771756Y1028975D01*
X773045Y1027045D01*
X774975Y1025756D01*
X777250Y1025304D01*
X784850D01*
X787125Y1025756D01*
X789055Y1027045D01*
X790344Y1028975D01*
X790796Y1031250D01*
Y1038850D01*
X790344Y1041125D01*
X789055Y1043055D01*
X787125Y1044344D01*
X784850Y1044796D01*
D02*
G37*
G36*
X759450D02*
X751850D01*
X749575Y1044344D01*
X747645Y1043055D01*
X746356Y1041125D01*
X745904Y1038850D01*
Y1031250D01*
X746356Y1028975D01*
X747645Y1027045D01*
X749575Y1025756D01*
X751850Y1025304D01*
X759450D01*
X761725Y1025756D01*
X763655Y1027045D01*
X764944Y1028975D01*
X765396Y1031250D01*
Y1038850D01*
X764944Y1041125D01*
X763655Y1043055D01*
X761725Y1044344D01*
X759450Y1044796D01*
D02*
G37*
G36*
X806450Y1033254D02*
X800178Y1026982D01*
X800224Y1026936D01*
X802536Y1025601D01*
X805115Y1024910D01*
X807785D01*
X810364Y1025601D01*
X812676Y1026936D01*
X812722Y1026982D01*
X806450Y1033254D01*
D02*
G37*
G36*
X859973Y975456D02*
X841827D01*
Y961327D01*
X859973D01*
Y963047D01*
X860655Y963430D01*
X861243Y963643D01*
X862990Y962920D01*
X865011D01*
X866878Y963693D01*
X868307Y965122D01*
X869080Y966990D01*
Y969010D01*
X868307Y970878D01*
X866878Y972307D01*
X865011Y973080D01*
X862990D01*
X861243Y972357D01*
X860655Y972570D01*
X859973Y972953D01*
Y975456D01*
D02*
G37*
G36*
X676331Y974168D02*
X670555Y968391D01*
X676331Y962615D01*
Y974168D01*
D02*
G37*
G36*
X731780Y964732D02*
X728740D01*
X725759Y964139D01*
X722950Y962976D01*
X720423Y961287D01*
X718273Y959137D01*
X716584Y956610D01*
X715421Y953801D01*
X714828Y950820D01*
Y947780D01*
X715421Y944799D01*
X716584Y941990D01*
X718273Y939463D01*
X720423Y937313D01*
X722950Y935624D01*
X725759Y934461D01*
X728740Y933868D01*
X731780D01*
X734761Y934461D01*
X737570Y935624D01*
X740097Y937313D01*
X742247Y939463D01*
X743936Y941990D01*
X745099Y944799D01*
X745692Y947780D01*
Y950820D01*
X745099Y953801D01*
X743936Y956610D01*
X742247Y959137D01*
X740097Y961287D01*
X737570Y962976D01*
X734761Y964139D01*
X731780Y964732D01*
D02*
G37*
G36*
X911307Y922432D02*
X909193D01*
X907150Y921885D01*
X905318Y920827D01*
X903823Y919332D01*
X902765Y917500D01*
X902218Y915457D01*
Y913343D01*
X902765Y911300D01*
X903823Y909468D01*
X905318Y907973D01*
X907150Y906915D01*
X909193Y906368D01*
X911307D01*
X913350Y906915D01*
X915182Y907973D01*
X916677Y909468D01*
X917735Y911300D01*
X918282Y913343D01*
Y915457D01*
X917735Y917500D01*
X916677Y919332D01*
X915182Y920827D01*
X913350Y921885D01*
X911307Y922432D01*
D02*
G37*
G36*
X731307D02*
X729193D01*
X727150Y921885D01*
X725318Y920827D01*
X723823Y919332D01*
X722765Y917500D01*
X722218Y915457D01*
Y913343D01*
X722765Y911300D01*
X723823Y909468D01*
X725318Y907973D01*
X727150Y906915D01*
X729193Y906368D01*
X731307D01*
X733350Y906915D01*
X735182Y907973D01*
X736677Y909468D01*
X737735Y911300D01*
X738282Y913343D01*
Y915457D01*
X737735Y917500D01*
X736677Y919332D01*
X735182Y920827D01*
X733350Y921885D01*
X731307Y922432D01*
D02*
G37*
G36*
X892257Y909732D02*
X890143D01*
X888100Y909185D01*
X886268Y908127D01*
X884773Y906632D01*
X883715Y904800D01*
X883168Y902757D01*
Y900643D01*
X883715Y898600D01*
X884773Y896768D01*
X886268Y895273D01*
X888100Y894215D01*
X890143Y893668D01*
X892257D01*
X894300Y894215D01*
X896132Y895273D01*
X897627Y896768D01*
X898685Y898600D01*
X899232Y900643D01*
Y902757D01*
X898685Y904800D01*
X897627Y906632D01*
X896132Y908127D01*
X894300Y909185D01*
X892257Y909732D01*
D02*
G37*
G36*
X712257D02*
X710143D01*
X708100Y909185D01*
X706268Y908127D01*
X704773Y906632D01*
X703715Y904800D01*
X703168Y902757D01*
Y900643D01*
X703715Y898600D01*
X704773Y896768D01*
X706268Y895273D01*
X708100Y894215D01*
X710143Y893668D01*
X712257D01*
X714300Y894215D01*
X716132Y895273D01*
X717627Y896768D01*
X718685Y898600D01*
X719232Y900643D01*
Y902757D01*
X718685Y904800D01*
X717627Y906632D01*
X716132Y908127D01*
X714300Y909185D01*
X712257Y909732D01*
D02*
G37*
G36*
X911307Y897032D02*
X909193D01*
X907150Y896485D01*
X905318Y895427D01*
X903823Y893932D01*
X902765Y892100D01*
X902218Y890057D01*
Y887943D01*
X902765Y885900D01*
X903823Y884068D01*
X905318Y882573D01*
X907150Y881515D01*
X909193Y880968D01*
X911307D01*
X913350Y881515D01*
X915182Y882573D01*
X916677Y884068D01*
X917735Y885900D01*
X918282Y887943D01*
Y890057D01*
X917735Y892100D01*
X916677Y893932D01*
X915182Y895427D01*
X913350Y896485D01*
X911307Y897032D01*
D02*
G37*
G36*
X731307D02*
X729193D01*
X727150Y896485D01*
X725318Y895427D01*
X723823Y893932D01*
X722765Y892100D01*
X722218Y890057D01*
Y887943D01*
X722765Y885900D01*
X723823Y884068D01*
X725318Y882573D01*
X727150Y881515D01*
X729193Y880968D01*
X731307D01*
X733350Y881515D01*
X735182Y882573D01*
X736677Y884068D01*
X737735Y885900D01*
X738282Y887943D01*
Y890057D01*
X737735Y892100D01*
X736677Y893932D01*
X735182Y895427D01*
X733350Y896485D01*
X731307Y897032D01*
D02*
G37*
G36*
X892257Y884342D02*
X890143D01*
X888100Y883795D01*
X886268Y882737D01*
X884773Y881242D01*
X883715Y879410D01*
X883168Y877367D01*
Y875253D01*
X883715Y873210D01*
X884773Y871378D01*
X886268Y869883D01*
X888100Y868825D01*
X890143Y868278D01*
X892257D01*
X894300Y868825D01*
X896132Y869883D01*
X897627Y871378D01*
X898685Y873210D01*
X899232Y875253D01*
Y877367D01*
X898685Y879410D01*
X897627Y881242D01*
X896132Y882737D01*
X894300Y883795D01*
X892257Y884342D01*
D02*
G37*
G36*
X712257D02*
X710143D01*
X708100Y883795D01*
X706268Y882737D01*
X704773Y881242D01*
X703715Y879410D01*
X703168Y877367D01*
Y875253D01*
X703715Y873210D01*
X704773Y871378D01*
X706268Y869883D01*
X708100Y868825D01*
X710143Y868278D01*
X712257D01*
X714300Y868825D01*
X716132Y869883D01*
X717627Y871378D01*
X718685Y873210D01*
X719232Y875253D01*
Y877367D01*
X718685Y879410D01*
X717627Y881242D01*
X716132Y882737D01*
X714300Y883795D01*
X712257Y884342D01*
D02*
G37*
G36*
X911307Y871632D02*
X909193D01*
X907150Y871085D01*
X905318Y870027D01*
X903823Y868532D01*
X902765Y866700D01*
X902218Y864657D01*
Y862543D01*
X902765Y860500D01*
X903823Y858668D01*
X905318Y857173D01*
X907150Y856115D01*
X909193Y855568D01*
X911307D01*
X913350Y856115D01*
X915182Y857173D01*
X916677Y858668D01*
X917735Y860500D01*
X918282Y862543D01*
Y864657D01*
X917735Y866700D01*
X916677Y868532D01*
X915182Y870027D01*
X913350Y871085D01*
X911307Y871632D01*
D02*
G37*
G36*
X731307D02*
X729193D01*
X727150Y871085D01*
X725318Y870027D01*
X723823Y868532D01*
X722765Y866700D01*
X722218Y864657D01*
Y862543D01*
X722765Y860500D01*
X723823Y858668D01*
X725318Y857173D01*
X727150Y856115D01*
X729193Y855568D01*
X731307D01*
X733350Y856115D01*
X735182Y857173D01*
X736677Y858668D01*
X737735Y860500D01*
X738282Y862543D01*
Y864657D01*
X737735Y866700D01*
X736677Y868532D01*
X735182Y870027D01*
X733350Y871085D01*
X731307Y871632D01*
D02*
G37*
G36*
X892257Y858932D02*
X890143D01*
X888100Y858385D01*
X886268Y857327D01*
X884773Y855832D01*
X883715Y854000D01*
X883168Y851957D01*
Y849843D01*
X883715Y847800D01*
X884773Y845968D01*
X886268Y844473D01*
X888100Y843415D01*
X890143Y842868D01*
X892257D01*
X894300Y843415D01*
X896132Y844473D01*
X897627Y845968D01*
X898685Y847800D01*
X899232Y849843D01*
Y851957D01*
X898685Y854000D01*
X897627Y855832D01*
X896132Y857327D01*
X894300Y858385D01*
X892257Y858932D01*
D02*
G37*
G36*
X712257D02*
X710143D01*
X708100Y858385D01*
X706268Y857327D01*
X704773Y855832D01*
X703715Y854000D01*
X703168Y851957D01*
Y849843D01*
X703715Y847800D01*
X704773Y845968D01*
X706268Y844473D01*
X708100Y843415D01*
X710143Y842868D01*
X712257D01*
X714300Y843415D01*
X716132Y844473D01*
X717627Y845968D01*
X718685Y847800D01*
X719232Y849843D01*
Y851957D01*
X718685Y854000D01*
X717627Y855832D01*
X716132Y857327D01*
X714300Y858385D01*
X712257Y858932D01*
D02*
G37*
G36*
X731374Y846740D02*
X729126D01*
X726954Y846158D01*
X725137Y845109D01*
X730250Y839996D01*
X735363Y845109D01*
X733546Y846158D01*
X731374Y846740D01*
D02*
G37*
G36*
X911374D02*
X909126D01*
X906954Y846158D01*
X905137Y845109D01*
X910250Y839996D01*
X915363Y845109D01*
X913546Y846158D01*
X911374Y846740D01*
D02*
G37*
G36*
X723341Y843313D02*
X722292Y841496D01*
X721710Y839324D01*
Y837076D01*
X722292Y834904D01*
X723341Y833087D01*
X728454Y838200D01*
X723341Y843313D01*
D02*
G37*
G36*
X737159D02*
X732046Y838200D01*
X737159Y833087D01*
X738208Y834904D01*
X738790Y837076D01*
Y839324D01*
X738208Y841496D01*
X737159Y843313D01*
D02*
G37*
G36*
X917159Y843313D02*
X912046Y838200D01*
X917159Y833087D01*
X918208Y834904D01*
X918790Y837076D01*
Y839324D01*
X918208Y841496D01*
X917159Y843313D01*
D02*
G37*
G36*
X903341Y843313D02*
X902292Y841496D01*
X901710Y839324D01*
Y837076D01*
X902292Y834904D01*
X903341Y833087D01*
X908454Y838200D01*
X903341Y843313D01*
D02*
G37*
G36*
X910250Y836404D02*
X905137Y831291D01*
X906954Y830242D01*
X909126Y829660D01*
X911374D01*
X913546Y830242D01*
X915363Y831291D01*
X910250Y836404D01*
D02*
G37*
G36*
X730250Y836404D02*
X725137Y831291D01*
X726954Y830242D01*
X729126Y829660D01*
X731374D01*
X733546Y830242D01*
X735363Y831291D01*
X730250Y836404D01*
D02*
G37*
G36*
X712324Y834040D02*
X710076D01*
X707904Y833458D01*
X706087Y832409D01*
X711200Y827296D01*
X716313Y832409D01*
X714496Y833458D01*
X712324Y834040D01*
D02*
G37*
G36*
X892324D02*
X890076D01*
X887904Y833458D01*
X886087Y832409D01*
X891200Y827296D01*
X896313Y832409D01*
X894496Y833458D01*
X892324Y834040D01*
D02*
G37*
G36*
X704291Y830613D02*
X703242Y828796D01*
X702660Y826624D01*
Y824376D01*
X703242Y822204D01*
X704291Y820387D01*
X709404Y825500D01*
X704291Y830613D01*
D02*
G37*
G36*
X718109D02*
X712996Y825500D01*
X718109Y820387D01*
X719158Y822204D01*
X719740Y824376D01*
Y826624D01*
X719158Y828796D01*
X718109Y830613D01*
D02*
G37*
G36*
X898109Y830613D02*
X892996Y825500D01*
X898109Y820387D01*
X899158Y822204D01*
X899740Y824376D01*
Y826624D01*
X899158Y828796D01*
X898109Y830613D01*
D02*
G37*
G36*
X884291Y830613D02*
X883242Y828796D01*
X882660Y826624D01*
Y824376D01*
X883242Y822204D01*
X884291Y820387D01*
X889404Y825500D01*
X884291Y830613D01*
D02*
G37*
G36*
X891200Y823704D02*
X886087Y818591D01*
X887904Y817542D01*
X890076Y816960D01*
X892324D01*
X894496Y817542D01*
X896313Y818591D01*
X891200Y823704D01*
D02*
G37*
G36*
X711200Y823704D02*
X706087Y818591D01*
X707904Y817542D01*
X710076Y816960D01*
X712324D01*
X714496Y817542D01*
X716313Y818591D01*
X711200Y823704D01*
D02*
G37*
G36*
X731374Y821340D02*
X729126D01*
X726954Y820758D01*
X725137Y819709D01*
X730250Y814596D01*
X735363Y819709D01*
X733546Y820758D01*
X731374Y821340D01*
D02*
G37*
G36*
X911374D02*
X909126D01*
X906954Y820758D01*
X905137Y819709D01*
X910250Y814596D01*
X915363Y819709D01*
X913546Y820758D01*
X911374Y821340D01*
D02*
G37*
G36*
X723341Y817913D02*
X722292Y816096D01*
X721710Y813924D01*
Y811676D01*
X722292Y809504D01*
X723341Y807687D01*
X728454Y812800D01*
X723341Y817913D01*
D02*
G37*
G36*
X737159D02*
X732046Y812800D01*
X737159Y807687D01*
X738208Y809504D01*
X738790Y811676D01*
Y813924D01*
X738208Y816096D01*
X737159Y817913D01*
D02*
G37*
G36*
X917159Y817913D02*
X912046Y812800D01*
X917159Y807687D01*
X918208Y809504D01*
X918790Y811676D01*
Y813924D01*
X918208Y816096D01*
X917159Y817913D01*
D02*
G37*
G36*
X903341Y817913D02*
X902292Y816096D01*
X901710Y813924D01*
Y811676D01*
X902292Y809504D01*
X903341Y807687D01*
X908454Y812800D01*
X903341Y817913D01*
D02*
G37*
G36*
X910250Y811004D02*
X905137Y805891D01*
X906954Y804842D01*
X909126Y804260D01*
X911374D01*
X913546Y804842D01*
X915363Y805891D01*
X910250Y811004D01*
D02*
G37*
G36*
X730250Y811004D02*
X725137Y805891D01*
X726954Y804842D01*
X729126Y804260D01*
X731374D01*
X733546Y804842D01*
X735363Y805891D01*
X730250Y811004D01*
D02*
G37*
%LPD*%
D13*
X850900Y968391D02*
D03*
Y987409D02*
D03*
X844550Y542909D02*
D03*
Y523891D02*
D03*
X666750Y968391D02*
D03*
Y987409D02*
D03*
D14*
X850900Y1011850D02*
D03*
Y1032850D02*
D03*
X844550Y499450D02*
D03*
Y478450D02*
D03*
X666750Y1011850D02*
D03*
Y1032850D02*
D03*
D15*
X958050Y420800D02*
D03*
X945350D02*
D03*
X932650D02*
D03*
X919950D02*
D03*
X907250D02*
D03*
X894550D02*
D03*
X881850D02*
D03*
X780250D02*
D03*
X767550D02*
D03*
X754850D02*
D03*
X742150D02*
D03*
X729450D02*
D03*
X716750D02*
D03*
X704050D02*
D03*
D18*
X857250Y431800D02*
D03*
X985550Y421800D02*
D03*
X679450Y431800D02*
D03*
X807750Y421800D02*
D03*
D28*
X932110Y600897D02*
X933503Y599503D01*
X929078Y600897D02*
X932110D01*
X927282Y602693D02*
X929078Y600897D01*
X927282Y602693D02*
Y605725D01*
X926503Y606503D02*
X927282Y605725D01*
X933503Y599503D02*
X937766Y595241D01*
X914103Y618903D02*
X926503Y606503D01*
X937766Y589041D02*
Y591527D01*
X932686Y583961D02*
X937766Y589041D01*
X932686Y581421D02*
Y583961D01*
Y581421D02*
X937766Y576341D01*
Y573801D02*
Y576341D01*
X932686Y568721D02*
X937766Y573801D01*
X932686Y566181D02*
Y568721D01*
Y566181D02*
X937766Y561101D01*
Y560000D02*
Y561101D01*
Y591527D02*
Y595241D01*
Y491228D02*
Y560000D01*
X943138Y628862D02*
X947000Y625000D01*
X936575Y628862D02*
X943138D01*
X934779Y630658D02*
X936575Y628862D01*
X934779Y630658D02*
Y637221D01*
X934000Y638000D02*
X934779Y637221D01*
X947000Y625000D02*
X956000Y616000D01*
X924000Y648000D02*
X934000Y638000D01*
X956000Y471988D02*
Y616000D01*
X752872Y600135D02*
X755114Y597893D01*
X750078Y600135D02*
X752872D01*
X748282Y601931D02*
X750078Y600135D01*
X748282Y601931D02*
Y604725D01*
X747503Y605503D02*
X748282Y604725D01*
X745935Y607072D02*
X747503Y605503D01*
X734103Y618903D02*
X745935Y607072D01*
X757766Y588281D02*
Y592691D01*
X752686Y583201D02*
X757766Y588281D01*
X752686Y580661D02*
Y583201D01*
Y580661D02*
X757766Y575581D01*
Y573041D02*
Y575581D01*
X752686Y567961D02*
X757766Y573041D01*
X752686Y565421D02*
Y567961D01*
Y565421D02*
X757766Y560341D01*
Y557801D02*
Y560341D01*
X752686Y552721D02*
X757766Y557801D01*
X752686Y550181D02*
Y552721D01*
Y550181D02*
X757766Y545101D01*
Y544000D02*
Y545101D01*
Y592691D02*
Y595241D01*
Y490128D02*
Y544000D01*
X755114Y597893D02*
X757766Y595241D01*
X767138Y626862D02*
X771000Y623000D01*
X760575Y626862D02*
X767138D01*
X758779Y628658D02*
X760575Y626862D01*
X758779Y628658D02*
Y635221D01*
X758000Y636000D02*
X758779Y635221D01*
X771000Y623000D02*
X777006Y616994D01*
X748000Y646000D02*
X758000Y636000D01*
X777006Y470994D02*
Y616994D01*
X735857Y623138D02*
X762000Y596995D01*
Y488374D02*
Y596995D01*
X725217Y451591D02*
X762000Y488374D01*
X720983Y453345D02*
X757766Y490128D01*
X725217Y432533D02*
Y451591D01*
X720983Y432533D02*
Y453345D01*
X903600Y646872D02*
X915857D01*
X916985Y648000D01*
X900898Y649575D02*
X903600Y646872D01*
X893075Y649575D02*
X900898D01*
X891200Y647700D02*
X893075Y649575D01*
X916985Y648000D02*
X924000D01*
X904063Y654223D02*
X910250Y660410D01*
X904063Y652398D02*
Y654223D01*
X905354Y651107D02*
X914103D01*
X915231Y652234D01*
X925754D01*
X904063Y652398D02*
X905354Y651107D01*
X925754Y652234D02*
X960234Y617754D01*
Y470234D02*
Y617754D01*
X941117Y451117D02*
X960234Y470234D01*
X936883Y452871D02*
X956000Y471988D01*
X941117Y432533D02*
Y451117D01*
X945350Y420800D02*
Y428300D01*
X932650D02*
X936883Y432533D01*
Y452871D01*
X941117Y432533D02*
X945350Y428300D01*
X932650Y420800D02*
Y428300D01*
X724473Y646000D02*
X748000D01*
X724063Y652398D02*
X726227Y650234D01*
X711200Y647700D02*
X713075Y649575D01*
X726227Y650234D02*
X749754D01*
X720898Y649575D02*
X724473Y646000D01*
X713075Y649575D02*
X720898D01*
X724063Y654223D02*
X730250Y660410D01*
X724063Y652398D02*
Y654223D01*
X749754Y650234D02*
X781240Y618748D01*
Y469240D02*
Y618748D01*
X763317Y451317D02*
X781240Y469240D01*
X723703Y620607D02*
X726234Y623138D01*
X727987Y618903D02*
X734103D01*
X726234Y623138D02*
X735857D01*
X726697Y617613D02*
X727987Y618903D01*
X730250Y609600D02*
Y612236D01*
X711200Y622300D02*
X712893Y620607D01*
X726697Y615789D02*
Y617613D01*
Y615789D02*
X730250Y612236D01*
X712893Y620607D02*
X723703D01*
X767550Y420800D02*
Y428300D01*
X763317Y432533D02*
X767550Y428300D01*
X763317Y432533D02*
Y451317D01*
X759083Y453071D02*
X777006Y470994D01*
X759083Y432533D02*
Y453071D01*
X754850Y420800D02*
Y428300D01*
X759083Y432533D01*
X903017Y450491D02*
X942000Y489474D01*
Y596995D01*
X903017Y432533D02*
Y450491D01*
X898783Y452245D02*
X937766Y491228D01*
X898783Y432533D02*
Y452245D01*
X893075Y620425D02*
X900891D01*
X903603Y623138D01*
X904064Y617610D02*
X905357Y618903D01*
X904064Y615786D02*
Y617610D01*
Y615786D02*
X910250Y609600D01*
X905357Y618903D02*
X914103D01*
X903603Y623138D02*
X915857D01*
X942000Y596995D01*
X891200Y622300D02*
X893075Y620425D01*
X903017Y432533D02*
X907250Y428300D01*
X894550D02*
X898783Y432533D01*
X907250Y420800D02*
Y428300D01*
X894550Y420800D02*
Y428300D01*
X725217Y432533D02*
X729450Y428300D01*
Y420800D02*
Y428300D01*
X716750D02*
X720983Y432533D01*
X716750Y420800D02*
Y428300D01*
D29*
X850900Y1032850D02*
X862000Y1043950D01*
Y1044000D01*
X666750Y1032850D02*
X675320Y1041420D01*
Y1043320D02*
X676000Y1044000D01*
X675320Y1041420D02*
Y1043320D01*
X851291Y968000D02*
X864000D01*
X672750Y1011850D02*
X672900Y1012000D01*
X686000D01*
X666750Y1011850D02*
X672750D01*
X688350Y1009650D02*
X704850D01*
X686000Y1012000D02*
X688350Y1009650D01*
X868000Y1010000D02*
X888650D01*
X889000Y1009650D01*
X850900Y1011850D02*
X866150D01*
X868000Y1010000D01*
X666750Y987409D02*
Y1011850D01*
X850900Y968391D02*
X851291Y968000D01*
X850900Y987409D02*
Y1011850D01*
X855550Y478450D02*
X856000Y478000D01*
X844550Y478450D02*
X855550D01*
X864000Y520000D02*
X869650Y514350D01*
X882650D01*
X864000Y520000D02*
Y536000D01*
X857091Y542909D02*
X864000Y536000D01*
X844550Y542909D02*
X857091D01*
X844550Y499450D02*
Y523891D01*
X958000Y442000D02*
X958050Y441950D01*
Y420800D02*
Y441950D01*
X919950Y441950D02*
X920000Y442000D01*
X919950Y420800D02*
Y441950D01*
X882000Y432950D02*
Y442000D01*
X881850Y432800D02*
X882000Y432950D01*
X881850Y420800D02*
Y432800D01*
X780000Y442000D02*
X780250Y441750D01*
Y420800D02*
Y441750D01*
X742000Y442000D02*
X742150Y441850D01*
Y420800D02*
Y441850D01*
X704050Y420800D02*
Y441950D01*
X704000Y442000D02*
X704050Y441950D01*
D30*
X910260Y949300D02*
D03*
Y562000D02*
D03*
X730260Y949300D02*
D03*
Y562000D02*
D03*
D31*
X891200Y673100D02*
D03*
X910250Y660410D02*
D03*
X891200Y647700D02*
D03*
X910250Y635000D02*
D03*
X891200Y622300D02*
D03*
X910250Y609600D02*
D03*
X891200Y596900D02*
D03*
X910250Y914400D02*
D03*
X891200Y901700D02*
D03*
X910250Y889000D02*
D03*
X891200Y876310D02*
D03*
X910250Y863600D02*
D03*
X891200Y850900D02*
D03*
X910250Y838200D02*
D03*
X891200Y825500D02*
D03*
X910250Y812800D02*
D03*
X891200Y800100D02*
D03*
X910250Y787400D02*
D03*
X891200Y774700D02*
D03*
X910250Y762000D02*
D03*
X891200Y749300D02*
D03*
X910250Y736600D02*
D03*
X711200Y673100D02*
D03*
X730250Y660410D02*
D03*
X711200Y647700D02*
D03*
X730250Y635000D02*
D03*
X711200Y622300D02*
D03*
X730250Y609600D02*
D03*
X711200Y596900D02*
D03*
X730250Y914400D02*
D03*
X711200Y901700D02*
D03*
X730250Y889000D02*
D03*
X711200Y876310D02*
D03*
X730250Y863600D02*
D03*
X711200Y850900D02*
D03*
X730250Y838200D02*
D03*
X711200Y825500D02*
D03*
X730250Y812800D02*
D03*
X711200Y800100D02*
D03*
X730250Y787400D02*
D03*
X711200Y774700D02*
D03*
X730250Y762000D02*
D03*
X711200Y749300D02*
D03*
X730250Y736600D02*
D03*
D32*
X882650Y514350D02*
D03*
X908050D02*
D03*
X882650Y488950D02*
D03*
D33*
X908050D02*
D03*
D34*
X781050Y1035050D02*
D03*
X965200D02*
D03*
X755650D02*
D03*
X939800D02*
D03*
D35*
X806450D02*
D03*
X990600D02*
D03*
X704850D02*
D03*
X730250D02*
D03*
X889000D02*
D03*
X914400D02*
D03*
D36*
X692150Y488950D02*
D03*
D37*
X717550D02*
D03*
X692150Y514350D02*
D03*
X717550D02*
D03*
D38*
X684000Y1094000D02*
D03*
X984000D02*
D03*
Y334000D02*
D03*
X684000D02*
D03*
D39*
X704850Y1009650D02*
D03*
X889000D02*
D03*
D40*
X862000Y1044000D02*
D03*
X676000D02*
D03*
X864000Y968000D02*
D03*
X856000Y478000D02*
D03*
X958000Y442000D02*
D03*
X920000D02*
D03*
X882000D02*
D03*
X780000D02*
D03*
X742000D02*
D03*
X704000D02*
D03*
M02*
